NotoSerifTamil-ExtraCondensedSemiBold.ufo
<glyph name="exclam" format="2">
  <advance width="300.06896551724134"/>
  <unicode hex="0021"/>
  <outline>
    <contour>
      <point x="128.17241379310346" y="211.0344827586207" type="line"/>
      <point x="171.51724137931035" y="211.0344827586207" type="line"/>
      <point x="215.31034482758622" y="714.0" type="line"/>
      <point x="84.37931034482759" y="714.0" type="line"/>
    </contour>
    <contour>
      <point x="150.6551724137931" y="-7.0" type="curve" smooth="yes"/>
      <point x="183.24137931034483" y="-7.0"/>
      <point x="211.58620689655172" y="9.241379310344827"/>
      <point x="211.58620689655172" y="61.827586206896555" type="curve" smooth="yes"/>
      <point x="211.58620689655172" y="113.79310344827586"/>
      <point x="183.24137931034483" y="130.6551724137931"/>
      <point x="150.6551724137931" y="130.6551724137931" type="curve" smooth="yes"/>
      <point x="116.0689655172414" y="130.6551724137931"/>
      <point x="89.72413793103448" y="113.79310344827586"/>
      <point x="89.72413793103448" y="61.827586206896555" type="curve" smooth="yes"/>
      <point x="89.72413793103448" y="9.241379310344827"/>
      <point x="116.0689655172414" y="-7.0"/>
    </contour>
  </outline>
</glyph>
<glyph name="quotedbl" format="2">
  <advance width="393.65517241379314"/>
  <unicode hex="0022"/>
  <outline>
    <contour>
      <point x="263.89655172413796" y="463.7586206896552" type="line"/>
      <point x="313.58620689655174" y="463.7586206896552" type="line"/>
      <point x="340.68965517241384" y="714.0" type="line"/>
      <point x="223.1034482758621" y="714.0" type="line"/>
    </contour>
    <contour>
      <point x="86.79310344827587" y="463.7586206896552" type="line"/>
      <point x="136.1034482758621" y="463.7586206896552" type="line"/>
      <point x="170.55172413793105" y="714.0" type="line"/>
      <point x="52.58620689655172" y="714.0" type="line"/>
    </contour>
  </outline>
</glyph>
<glyph name="numbersign" format="2">
  <advance width="451.0689655172414"/>
  <unicode hex="0023"/>
  <outline>
    <contour>
      <point x="47.10344827586207" y="0.0" type="line"/>
      <point x="110.17241379310346" y="0.0" type="line"/>
      <point x="149.17241379310346" y="204.27586206896552" type="line"/>
      <point x="240.13793103448273" y="204.27586206896552" type="line"/>
      <point x="202.3793103448276" y="0.0" type="line"/>
      <point x="265.44827586206895" y="0.0" type="line"/>
      <point x="303.82758620689657" y="204.27586206896552" type="line"/>
      <point x="409.2068965517241" y="204.27586206896552" type="line"/>
      <point x="409.2068965517241" y="264.58620689655174" type="line"/>
      <point x="315.6896551724138" y="264.58620689655174" type="line"/>
      <point x="351.8275862068965" y="454.41379310344826" type="line"/>
      <point x="441.2068965517242" y="454.41379310344826" type="line"/>
      <point x="441.2068965517242" y="516.1034482758621" type="line"/>
      <point x="363.06896551724134" y="516.1034482758621" type="line"/>
      <point x="400.44827586206895" y="714.0" type="line"/>
      <point x="337.0" y="714.0" type="line"/>
      <point x="299.3793103448276" y="516.1034482758621" type="line"/>
      <point x="208.41379310344828" y="516.1034482758621" type="line"/>
      <point x="245.17241379310343" y="714.0" type="line"/>
      <point x="181.10344827586206" y="714.0" type="line"/>
      <point x="144.72413793103448" y="516.1034482758621" type="line"/>
      <point x="41.48275862068965" y="516.1034482758621" type="line"/>
      <point x="41.48275862068965" y="454.41379310344826" type="line"/>
      <point x="132.48275862068965" y="454.41379310344826" type="line"/>
      <point x="96.72413793103448" y="264.58620689655174" type="line"/>
      <point x="9.482758620689657" y="264.58620689655174" type="line"/>
      <point x="9.482758620689657" y="204.27586206896552" type="line"/>
      <point x="85.48275862068965" y="204.27586206896552" type="line"/>
    </contour>
    <contour>
      <point x="160.41379310344828" y="264.58620689655174" type="line"/>
      <point x="197.17241379310346" y="454.41379310344826" type="line"/>
      <point x="288.7586206896552" y="454.41379310344826" type="line"/>
      <point x="252.62068965517238" y="264.58620689655174" type="line"/>
    </contour>
  </outline>
</glyph>
<glyph name="percent" format="2">
  <advance width="728.3793103448277"/>
  <unicode hex="0025"/>
  <outline>
    <contour>
      <point x="193.20689655172413" y="0.0" type="line"/>
      <point x="253.79310344827587" y="0.0" type="line"/>
      <point x="532.7931034482759" y="714.0" type="line"/>
      <point x="472.58620689655174" y="714.0" type="line"/>
    </contour>
    <contour>
      <point x="171.58620689655172" y="280.0" type="curve" smooth="yes"/>
      <point x="267.7931034482759" y="280.0"/>
      <point x="314.89655172413796" y="369.0"/>
      <point x="314.89655172413796" y="503.0" type="curve"/>
      <point x="314.89655172413796" y="637.0"/>
      <point x="267.7931034482759" y="724.0"/>
      <point x="171.9655172413793" y="724.0" type="curve" smooth="yes"/>
      <point x="70.75862068965517" y="724.0"/>
      <point x="28.6551724137931" y="637.0"/>
      <point x="28.6551724137931" y="503.0" type="curve" smooth="yes"/>
      <point x="28.6551724137931" y="369.0"/>
      <point x="70.75862068965517" y="280.0"/>
    </contour>
    <contour>
      <point x="171.58620689655172" y="321.58620689655174" type="curve" smooth="yes"/>
      <point x="127.31034482758619" y="321.58620689655174"/>
      <point x="111.9310344827586" y="386.7241379310345"/>
      <point x="111.9310344827586" y="503.0" type="curve"/>
      <point x="111.9310344827586" y="617.2758620689655"/>
      <point x="127.31034482758619" y="681.4137931034483"/>
      <point x="171.9655172413793" y="681.4137931034483" type="curve" smooth="yes"/>
      <point x="216.86206896551724" y="681.4137931034483"/>
      <point x="230.6206896551724" y="617.2758620689655"/>
      <point x="230.6206896551724" y="503.0" type="curve" smooth="yes"/>
      <point x="230.6206896551724" y="386.7241379310345"/>
      <point x="216.86206896551724" y="321.58620689655174"/>
    </contour>
    <contour>
      <point x="556.4137931034483" y="-10.0" type="curve" smooth="yes"/>
      <point x="653.2413793103448" y="-10.0"/>
      <point x="699.7241379310345" y="79.0"/>
      <point x="699.7241379310345" y="213.0" type="curve" smooth="yes"/>
      <point x="699.7241379310345" y="347.0"/>
      <point x="653.2413793103448" y="434.0"/>
      <point x="557.4137931034483" y="434.0" type="curve" smooth="yes"/>
      <point x="456.58620689655174" y="434.0"/>
      <point x="414.1034482758621" y="347.0"/>
      <point x="414.1034482758621" y="213.0" type="curve" smooth="yes"/>
      <point x="414.1034482758621" y="79.0"/>
      <point x="456.58620689655174" y="-10.0"/>
    </contour>
    <contour>
      <point x="556.4137931034483" y="31.586206896551722" type="curve" smooth="yes"/>
      <point x="512.7586206896552" y="31.586206896551722"/>
      <point x="497.37931034482756" y="96.72413793103448"/>
      <point x="497.37931034482756" y="213.0" type="curve" smooth="yes"/>
      <point x="497.37931034482756" y="327.2758620689655"/>
      <point x="512.7586206896552" y="391.41379310344826"/>
      <point x="557.0344827586207" y="391.41379310344826" type="curve" smooth="yes"/>
      <point x="601.6896551724138" y="391.41379310344826"/>
      <point x="616.0689655172413" y="327.2758620689655"/>
      <point x="616.0689655172413" y="213.0" type="curve" smooth="yes"/>
      <point x="616.0689655172413" y="96.72413793103448"/>
      <point x="601.6896551724138" y="31.586206896551722"/>
    </contour>
  </outline>
</glyph>
<glyph name="quotesingle" format="2">
  <advance width="223.51724137931032"/>
  <unicode hex="0027"/>
  <outline>
    <contour>
      <point x="86.79310344827587" y="463.7586206896552" type="line"/>
      <point x="136.1034482758621" y="463.7586206896552" type="line"/>
      <point x="170.55172413793105" y="714.0" type="line"/>
      <point x="52.58620689655172" y="714.0" type="line"/>
    </contour>
  </outline>
</glyph>
<glyph name="parenleft" format="2">
  <advance width="313.17241379310343"/>
  <unicode hex="0028"/>
  <outline>
    <contour>
      <point x="288.55172413793105" y="-131.9655172413793" type="curve"/>
      <point x="288.55172413793105" y="-79.27586206896552" type="line"/>
      <point x="186.27586206896552" y="3.1034482758620694"/>
      <point x="166.68965517241378" y="158.0"/>
      <point x="166.68965517241378" y="317.0" type="curve" smooth="yes"/>
      <point x="166.68965517241378" y="476.0"/>
      <point x="186.27586206896552" y="629.5172413793103"/>
      <point x="288.55172413793105" y="712.8965517241379" type="curve"/>
      <point x="288.55172413793105" y="764.2068965517241" type="line"/>
      <point x="114.68965517241381" y="686.1379310344828"/>
      <point x="45.62068965517241" y="548.2068965517242"/>
      <point x="45.62068965517241" y="317.0" type="curve" smooth="yes"/>
      <point x="45.62068965517241" y="85.41379310344828"/>
      <point x="114.68965517241381" y="-52.51724137931034"/>
    </contour>
  </outline>
</glyph>
<glyph name="parenright" format="2">
  <advance width="313.17241379310343"/>
  <unicode hex="0029"/>
  <outline>
    <contour>
      <point x="25.0" y="-131.9655172413793" type="line"/>
      <point x="199.48275862068965" y="-52.51724137931034"/>
      <point x="267.9310344827586" y="85.41379310344828"/>
      <point x="267.9310344827586" y="317.0" type="curve" smooth="yes"/>
      <point x="267.9310344827586" y="548.2068965517242"/>
      <point x="199.48275862068965" y="686.1379310344828"/>
      <point x="25.0" y="764.2068965517241" type="curve"/>
      <point x="25.0" y="712.8965517241379" type="line"/>
      <point x="127.27586206896552" y="629.5172413793103"/>
      <point x="147.24137931034483" y="476.0"/>
      <point x="147.24137931034483" y="317.0" type="curve" smooth="yes"/>
      <point x="147.24137931034483" y="158.0"/>
      <point x="127.27586206896552" y="3.1034482758620694"/>
      <point x="25.0" y="-79.27586206896552" type="curve"/>
    </contour>
  </outline>
</glyph>
<glyph name="asterisk" format="2">
  <advance width="390.8965517241379"/>
  <unicode hex="002A"/>
  <outline>
    <contour>
      <point x="154.86206896551724" y="370.2758620689655" type="line"/>
      <point x="238.8965517241379" y="370.2758620689655" type="line"/>
      <point x="212.17241379310346" y="535.6551724137931" type="line"/>
      <point x="329.0344827586207" y="437.68965517241384" type="line"/>
      <point x="363.6206896551724" y="519.1034482758621" type="line"/>
      <point x="241.24137931034483" y="565.1379310344828" type="line"/>
      <point x="363.6206896551724" y="611.1724137931035" type="line"/>
      <point x="329.0344827586207" y="693.9655172413793" type="line"/>
      <point x="212.17241379310346" y="594.6206896551724" type="line"/>
      <point x="238.89655172413794" y="760.0" type="line"/>
      <point x="154.86206896551724" y="760.0" type="line"/>
      <point x="180.20689655172413" y="593.6206896551724" type="line"/>
      <point x="63.103448275862064" y="695.9655172413793" type="line"/>
      <point x="29.137931034482758" y="612.1724137931035" type="line"/>
      <point x="152.13793103448273" y="565.1379310344828" type="line"/>
      <point x="29.137931034482758" y="518.1034482758621" type="line"/>
      <point x="63.103448275862064" y="436.3103448275862" type="line"/>
      <point x="179.20689655172413" y="537.2758620689655" type="line"/>
    </contour>
  </outline>
</glyph>
<glyph name="plus" format="2">
  <advance width="425.0"/>
  <unicode hex="002B"/>
  <outline>
    <contour>
      <point x="178.89655172413794" y="143.0" type="line"/>
      <point x="244.72413793103448" y="143.0" type="line"/>
      <point x="244.72413793103448" y="325.89655172413796" type="line"/>
      <point x="385.1034482758621" y="325.89655172413796" type="line"/>
      <point x="385.1034482758621" y="389.10344827586204" type="line"/>
      <point x="244.72413793103448" y="389.10344827586204" type="line"/>
      <point x="244.72413793103448" y="572.0" type="line"/>
      <point x="178.89655172413794" y="572.0" type="line"/>
      <point x="178.89655172413794" y="389.10344827586204" type="line"/>
      <point x="39.89655172413793" y="389.10344827586204" type="line"/>
      <point x="39.89655172413793" y="325.89655172413796" type="line"/>
      <point x="178.89655172413794" y="325.89655172413796" type="line"/>
    </contour>
  </outline>
</glyph>
<glyph name="comma" format="2">
  <advance width="229.96551724137933"/>
  <unicode hex="002C"/>
  <outline>
    <contour>
      <point x="36.96551724137931" y="-154.0" type="line"/>
      <point x="136.27586206896552" y="-121.37931034482759"/>
      <point x="173.3793103448276" y="-49.51724137931034"/>
      <point x="173.3793103448276" y="30.344827586206897" type="curve" smooth="yes"/>
      <point x="173.3793103448276" y="93.3103448275862"/>
      <point x="148.75862068965517" y="130.6551724137931"/>
      <point x="105.93103448275862" y="130.6551724137931" type="curve" smooth="yes"/>
      <point x="75.20689655172414" y="130.6551724137931"/>
      <point x="50.48275862068965" y="108.79310344827586"/>
      <point x="50.48275862068965" y="71.44827586206897" type="curve" smooth="yes"/>
      <point x="50.48275862068965" y="6.896551724137931"/>
      <point x="105.20689655172413" y="11.0"/>
      <point x="105.20689655172413" y="-25.379310344827587" type="curve" smooth="yes"/>
      <point x="105.20689655172413" y="-61.0"/>
      <point x="81.96551724137932" y="-90.79310344827586"/>
      <point x="36.96551724137931" y="-110.41379310344827" type="curve"/>
    </contour>
  </outline>
</glyph>
<glyph name="hyphen" format="2">
  <advance width="250.3448275862069"/>
  <unicode hex="002D"/>
  <outline>
    <contour>
      <point x="20.620689655172413" y="229.17241379310343" type="line"/>
      <point x="230.3448275862069" y="229.17241379310343" type="line"/>
      <point x="230.3448275862069" y="315.82758620689657" type="line"/>
      <point x="20.620689655172413" y="315.82758620689657" type="line"/>
    </contour>
  </outline>
</glyph>
<glyph name="period" format="2">
  <advance width="229.96551724137933"/>
  <unicode hex="002E"/>
  <outline>
    <contour>
      <point x="115.17241379310346" y="-7.0" type="curve" smooth="yes"/>
      <point x="147.75862068965517" y="-7.0"/>
      <point x="176.72413793103448" y="9.241379310344827"/>
      <point x="176.72413793103448" y="61.827586206896555" type="curve" smooth="yes"/>
      <point x="176.72413793103448" y="113.79310344827586"/>
      <point x="147.75862068965517" y="130.6551724137931"/>
      <point x="115.17241379310346" y="130.6551724137931" type="curve" smooth="yes"/>
      <point x="80.58620689655173" y="130.6551724137931"/>
      <point x="53.241379310344826" y="113.79310344827586"/>
      <point x="53.241379310344826" y="61.827586206896555" type="curve" smooth="yes"/>
      <point x="53.241379310344826" y="9.241379310344827"/>
      <point x="80.58620689655173" y="-7.0"/>
    </contour>
  </outline>
</glyph>
<glyph name="slash" format="2">
  <advance width="232.3448275862069"/>
  <unicode hex="002F"/>
  <outline>
    <contour>
      <point x="0.0" y="-121.0" type="line"/>
      <point x="56.827586206896555" y="-121.0" type="line"/>
      <point x="232.3448275862069" y="760.0" type="line"/>
      <point x="178.13793103448276" y="760.0" type="line"/>
    </contour>
  </outline>
</glyph>
<glyph name="zero" format="2">
  <advance width="450.6896551724138"/>
  <unicode hex="0030"/>
  <outline>
    <contour>
      <point x="225.3448275862069" y="-10.0" type="curve" smooth="yes"/>
      <point x="365.0344827586207" y="-10.0"/>
      <point x="420.41379310344826" y="128.10344827586206"/>
      <point x="420.41379310344826" y="358.0" type="curve" smooth="yes"/>
      <point x="420.41379310344826" y="590.2758620689655"/>
      <point x="366.7931034482759" y="724.0"/>
      <point x="226.3448275862069" y="724.0" type="curve" smooth="yes"/>
      <point x="77.27586206896552" y="724.0"/>
      <point x="28.6551724137931" y="586.1379310344828"/>
      <point x="28.6551724137931" y="359.0" type="curve" smooth="yes"/>
      <point x="28.6551724137931" y="125.34482758620689"/>
      <point x="79.0344827586207" y="-10.0"/>
    </contour>
    <contour>
      <point x="225.3448275862069" y="46.20689655172414" type="curve" smooth="yes"/>
      <point x="160.0344827586207" y="46.20689655172414"/>
      <point x="144.48275862068965" y="160.72413793103448"/>
      <point x="144.48275862068965" y="358.0" type="curve" smooth="yes"/>
      <point x="144.48275862068965" y="555.2758620689656"/>
      <point x="160.0344827586207" y="667.7931034482759"/>
      <point x="226.3448275862069" y="667.7931034482759" type="curve" smooth="yes"/>
      <point x="290.0344827586207" y="667.7931034482759"/>
      <point x="306.5862068965517" y="555.2758620689656"/>
      <point x="306.5862068965517" y="358.0" type="curve" smooth="yes"/>
      <point x="306.5862068965517" y="160.72413793103448"/>
      <point x="290.0344827586207" y="46.20689655172414"/>
    </contour>
  </outline>
</glyph>
<glyph name="one" format="2">
  <advance width="450.6896551724138"/>
  <unicode hex="0031"/>
  <outline>
    <contour>
      <point x="74.03448275862068" y="0.0" type="line"/>
      <point x="397.1034482758621" y="0.0" type="line"/>
      <point x="397.1034482758621" y="45.96551724137932" type="line"/>
      <point x="356.89655172413796" y="45.96551724137932" type="line" smooth="yes"/>
      <point x="319.37931034482756" y="45.96551724137932"/>
      <point x="296.1034482758621" y="60.931034482758626"/>
      <point x="296.1034482758621" y="114.86206896551724" type="curve" smooth="yes"/>
      <point x="296.1034482758621" y="718.0" type="line"/>
      <point x="216.89655172413794" y="718.0" type="line"/>
      <point x="160.65517241379308" y="668.2413793103449" type="line" smooth="yes"/>
      <point x="106.79310344827584" y="619.8620689655172"/>
      <point x="69.6896551724138" y="602.8620689655172"/>
      <point x="37.68965517241379" y="592.8620689655172" type="curve"/>
      <point x="37.68965517241379" y="555.6551724137931"/>
      <point x="57.17241379310345" y="532.3103448275863"/>
      <point x="82.41379310344828" y="532.3103448275863" type="curve" smooth="yes"/>
      <point x="114.6551724137931" y="532.3103448275863"/>
      <point x="147.2758620689655" y="570.5862068965517"/>
      <point x="186.8965517241379" y="628.2068965517242" type="curve"/>
      <point x="186.8965517241379" y="114.86206896551724" type="line" smooth="yes"/>
      <point x="186.8965517241379" y="55.44827586206896"/>
      <point x="161.13793103448276" y="45.96551724137932"/>
      <point x="126.10344827586208" y="45.96551724137932" type="curve" smooth="yes"/>
      <point x="74.03448275862068" y="45.96551724137932" type="line"/>
    </contour>
  </outline>
</glyph>
<glyph name="two" format="2">
  <advance width="450.6896551724138"/>
  <unicode hex="0032"/>
  <outline>
    <contour>
      <point x="32.03448275862069" y="0.0" type="line"/>
      <point x="410.51724137931035" y="0.0" type="line"/>
      <point x="414.13793103448273" y="187.3793103448276" type="line"/>
      <point x="367.6896551724138" y="187.3793103448276" type="line"/>
      <point x="361.82758620689657" y="162.79310344827587" type="line" smooth="yes"/>
      <point x="350.58620689655174" y="115.79310344827586"/>
      <point x="330.7586206896552" y="91.27586206896552"/>
      <point x="294.82758620689657" y="91.27586206896552" type="curve" smooth="yes"/>
      <point x="113.06896551724138" y="91.27586206896552" type="line"/>
      <point x="241.0" y="248.44827586206898" type="line" smooth="yes"/>
      <point x="330.3103448275862" y="356.6896551724138"/>
      <point x="395.51724137931035" y="436.2758620689655"/>
      <point x="395.51724137931035" y="552.7586206896552" type="curve" smooth="yes"/>
      <point x="395.51724137931035" y="655.0"/>
      <point x="329.6551724137931" y="724.0"/>
      <point x="211.48275862068968" y="724.0" type="curve" smooth="yes"/>
      <point x="94.41379310344828" y="724.0"/>
      <point x="36.93103448275862" y="660.4137931034483"/>
      <point x="36.93103448275862" y="590.655172413793" type="curve" smooth="yes"/>
      <point x="36.93103448275862" y="531.9655172413793"/>
      <point x="82.0" y="515.1034482758621"/>
      <point x="129.93103448275863" y="515.1034482758621" type="curve"/>
      <point x="129.93103448275863" y="607.8620689655172"/>
      <point x="150.0344827586207" y="670.0344827586207"/>
      <point x="211.48275862068968" y="670.0344827586207" type="curve" smooth="yes"/>
      <point x="256.17241379310343" y="670.0344827586207"/>
      <point x="281.55172413793105" y="626.4827586206897"/>
      <point x="281.55172413793105" y="546.2413793103449" type="curve" smooth="yes"/>
      <point x="281.55172413793105" y="446.7586206896552"/>
      <point x="251.0689655172414" y="377.2758620689655"/>
      <point x="158.86206896551724" y="251.93103448275863" type="curve" smooth="yes"/>
      <point x="32.03448275862069" y="79.41379310344827" type="line"/>
    </contour>
  </outline>
</glyph>
<glyph name="three" format="2">
  <advance width="450.6896551724138"/>
  <unicode hex="0033"/>
  <outline>
    <contour>
      <point x="199.24137931034483" y="-10.0" type="curve" smooth="yes"/>
      <point x="311.55172413793105" y="-10.0"/>
      <point x="415.8965517241379" y="43.0"/>
      <point x="415.8965517241379" y="199.10344827586206" type="curve" smooth="yes"/>
      <point x="415.8965517241379" y="319.2758620689655"/>
      <point x="342.8965517241379" y="366.13793103448273"/>
      <point x="274.65517241379314" y="378.62068965517244" type="curve"/>
      <point x="343.0344827586207" y="403.3448275862069"/>
      <point x="395.2758620689655" y="469.0"/>
      <point x="395.2758620689655" y="559.0" type="curve" smooth="yes"/>
      <point x="395.2758620689655" y="665.0"/>
      <point x="325.1724137931035" y="724.0"/>
      <point x="216.99999999999997" y="724.0" type="curve" smooth="yes"/>
      <point x="99.93103448275862" y="724.0"/>
      <point x="42.06896551724138" y="661.5172413793103"/>
      <point x="42.06896551724138" y="590.3793103448276" type="curve" smooth="yes"/>
      <point x="42.06896551724138" y="540.1724137931035"/>
      <point x="80.03448275862068" y="522.0689655172414"/>
      <point x="129.82758620689654" y="522.0689655172414" type="curve"/>
      <point x="129.82758620689654" y="601.0689655172414"/>
      <point x="151.58620689655172" y="670.0344827586207"/>
      <point x="209.3793103448276" y="670.0344827586207" type="curve" smooth="yes"/>
      <point x="255.93103448275863" y="670.0344827586207"/>
      <point x="281.6896551724138" y="624.6551724137931"/>
      <point x="281.6896551724138" y="548.7586206896552" type="curve" smooth="yes"/>
      <point x="281.6896551724138" y="455.8620689655172"/>
      <point x="250.13793103448276" y="397.48275862068965"/>
      <point x="180.13793103448276" y="397.48275862068965" type="curve"/>
      <point x="131.20689655172413" y="397.48275862068965" type="line"/>
      <point x="131.20689655172413" y="344.2758620689655" type="line"/>
      <point x="177.27586206896552" y="344.2758620689655" type="line" smooth="yes"/>
      <point x="260.93103448275866" y="344.2758620689655"/>
      <point x="301.6896551724138" y="287.89655172413796"/>
      <point x="301.6896551724138" y="200.10344827586206" type="curve" smooth="yes"/>
      <point x="301.6896551724138" y="88.10344827586206"/>
      <point x="252.4137931034483" y="49.44827586206896"/>
      <point x="197.0" y="49.44827586206896" type="curve" smooth="yes"/>
      <point x="137.48275862068965" y="49.44827586206896"/>
      <point x="97.62068965517241" y="102.20689655172414"/>
      <point x="97.62068965517241" y="178.0344827586207" type="curve"/>
      <point x="61.275862068965516" y="178.0344827586207"/>
      <point x="32.06896551724138" y="152.79310344827587"/>
      <point x="32.06896551724138" y="108.82758620689656" type="curve" smooth="yes"/>
      <point x="32.06896551724138" y="42.862068965517246"/>
      <point x="80.6896551724138" y="-10.0"/>
    </contour>
  </outline>
</glyph>
<glyph name="four" format="2">
  <advance width="450.6896551724138"/>
  <unicode hex="0034"/>
  <outline>
    <contour>
      <point x="151.9655172413793" y="0.0" type="line"/>
      <point x="426.27586206896547" y="0.0" type="line"/>
      <point x="426.27586206896547" y="45.96551724137932" type="line"/>
      <point x="415.6551724137931" y="45.96551724137932" type="line" smooth="yes"/>
      <point x="378.65517241379314" y="45.96551724137932"/>
      <point x="349.0344827586207" y="54.96551724137932"/>
      <point x="349.0344827586207" y="117.96551724137932" type="curve" smooth="yes"/>
      <point x="349.0344827586207" y="192.6551724137931" type="line"/>
      <point x="435.2068965517241" y="192.6551724137931" type="line"/>
      <point x="435.2068965517241" y="252.0" type="line"/>
      <point x="349.0344827586207" y="252.0" type="line"/>
      <point x="349.0344827586207" y="714.0" type="line"/>
      <point x="240.68965517241378" y="714.0" type="line"/>
      <point x="11.758620689655173" y="240.3448275862069" type="line"/>
      <point x="11.758620689655173" y="192.6551724137931" type="line"/>
      <point x="240.82758620689657" y="192.6551724137931" type="line"/>
      <point x="240.82758620689657" y="117.96551724137932" type="line" smooth="yes"/>
      <point x="240.82758620689657" y="54.96551724137932"/>
      <point x="211.58620689655174" y="45.96551724137932"/>
      <point x="174.20689655172416" y="45.96551724137932" type="curve" smooth="yes"/>
      <point x="151.9655172413793" y="45.96551724137932" type="line"/>
    </contour>
    <contour>
      <point x="73.48275862068967" y="252.0" type="line"/>
      <point x="178.79310344827587" y="473.5862068965517" type="line" smooth="yes"/>
      <point x="199.79310344827587" y="518.448275862069"/>
      <point x="232.58620689655174" y="592.2758620689655"/>
      <point x="245.82758620689657" y="631.1034482758621" type="curve"/>
      <point x="241.82758620689657" y="569.1034482758621"/>
      <point x="240.82758620689657" y="497.1379310344828"/>
      <point x="240.82758620689657" y="439.1379310344828" type="curve" smooth="yes"/>
      <point x="240.82758620689657" y="252.0" type="line"/>
    </contour>
  </outline>
</glyph>
<glyph name="five" format="2">
  <advance width="450.6896551724138"/>
  <unicode hex="0035"/>
  <outline>
    <contour>
      <point x="197.3448275862069" y="-10.0" type="curve" smooth="yes"/>
      <point x="299.55172413793105" y="-10.0"/>
      <point x="404.13793103448273" y="68.24137931034483"/>
      <point x="404.13793103448273" y="218.6206896551724" type="curve" smooth="yes"/>
      <point x="404.13793103448273" y="359.8620689655172"/>
      <point x="323.0344827586207" y="431.48275862068965"/>
      <point x="200.24137931034483" y="431.48275862068965" type="curve" smooth="yes"/>
      <point x="170.58620689655172" y="431.48275862068965"/>
      <point x="131.24137931034483" y="423.1034482758621"/>
      <point x="111.86206896551724" y="414.10344827586204" type="curve"/>
      <point x="128.24137931034483" y="622.3448275862069" type="line"/>
      <point x="290.9310344827586" y="622.3448275862069" type="line" smooth="yes"/>
      <point x="319.2068965517241" y="622.3448275862069"/>
      <point x="321.0689655172414" y="610.1034482758621"/>
      <point x="329.44827586206895" y="576.0689655172414" type="curve" smooth="yes"/>
      <point x="335.6896551724138" y="550.7241379310344" type="line"/>
      <point x="380.89655172413796" y="550.7241379310344" type="line"/>
      <point x="377.89655172413796" y="713.0" type="line"/>
      <point x="86.6551724137931" y="713.0" type="line"/>
      <point x="58.41379310344827" y="364.7241379310345" type="line"/>
      <point x="84.24137931034483" y="351.0" type="line"/>
      <point x="108.34482758620689" y="361.1379310344828"/>
      <point x="139.24137931034483" y="374.2758620689655"/>
      <point x="179.27586206896552" y="374.2758620689655" type="curve" smooth="yes"/>
      <point x="247.65517241379308" y="374.2758620689655"/>
      <point x="289.55172413793105" y="321.7586206896552"/>
      <point x="289.55172413793105" y="218.6206896551724" type="curve" smooth="yes"/>
      <point x="289.55172413793105" y="89.34482758620689"/>
      <point x="243.17241379310343" y="47.827586206896555"/>
      <point x="186.3793103448276" y="47.827586206896555" type="curve" smooth="yes"/>
      <point x="121.13793103448276" y="47.827586206896555"/>
      <point x="96.10344827586206" y="108.03448275862068"/>
      <point x="96.10344827586206" y="167.41379310344828" type="curve"/>
      <point x="59.758620689655174" y="167.41379310344828"/>
      <point x="34.41379310344828" y="142.41379310344828"/>
      <point x="34.41379310344828" y="102.6896551724138" type="curve" smooth="yes"/>
      <point x="34.41379310344828" y="51.0"/>
      <point x="76.24137931034483" y="-10.0"/>
    </contour>
  </outline>
</glyph>
<glyph name="six" format="2">
  <advance width="450.6896551724138"/>
  <unicode hex="0036"/>
  <outline>
    <contour>
      <point x="236.3448275862069" y="-10.0" type="curve" smooth="yes"/>
      <point x="355.6551724137931" y="-10.0"/>
      <point x="419.8965517241379" y="88.0"/>
      <point x="419.8965517241379" y="229.6206896551724" type="curve" smooth="yes"/>
      <point x="419.8965517241379" y="357.8620689655172"/>
      <point x="355.6551724137931" y="434.8620689655172"/>
      <point x="260.1724137931035" y="434.8620689655172" type="curve" smooth="yes"/>
      <point x="203.9310344827586" y="434.8620689655172"/>
      <point x="171.0344827586207" y="410.5862068965517"/>
      <point x="148.27586206896552" y="387.6896551724138" type="curve"/>
      <point x="152.51724137931035" y="571.8965517241379"/>
      <point x="186.79310344827587" y="672.0344827586207"/>
      <point x="252.34482758620686" y="672.0344827586207" type="curve" smooth="yes"/>
      <point x="298.7586206896552" y="672.0344827586207"/>
      <point x="320.13793103448273" y="621.0689655172414"/>
      <point x="320.13793103448273" y="550.8275862068966" type="curve"/>
      <point x="377.4137931034483" y="550.8275862068966"/>
      <point x="402.8965517241379" y="575.4137931034483"/>
      <point x="402.8965517241379" y="616.5172413793103" type="curve" smooth="yes"/>
      <point x="402.8965517241379" y="672.3793103448276"/>
      <point x="356.8965517241379" y="724.0"/>
      <point x="255.9655172413793" y="724.0" type="curve" smooth="yes"/>
      <point x="108.37931034482759" y="724.0"/>
      <point x="38.793103448275865" y="582.6206896551724"/>
      <point x="38.793103448275865" y="336.8965517241379" type="curve" smooth="yes"/>
      <point x="38.793103448275865" y="97.0"/>
      <point x="119.6551724137931" y="-10.0"/>
    </contour>
    <contour>
      <point x="238.3448275862069" y="46.20689655172414" type="curve" smooth="yes"/>
      <point x="185.41379310344828" y="46.20689655172414"/>
      <point x="149.27586206896552" y="139.82758620689654"/>
      <point x="147.89655172413794" y="331.3448275862069" type="curve"/>
      <point x="165.03448275862067" y="352.0"/>
      <point x="192.31034482758622" y="380.6551724137931"/>
      <point x="234.10344827586206" y="380.6551724137931" type="curve" smooth="yes"/>
      <point x="283.0344827586207" y="380.6551724137931"/>
      <point x="311.17241379310343" y="332.1379310344828"/>
      <point x="311.17241379310343" y="219.6206896551724" type="curve" smooth="yes"/>
      <point x="311.17241379310343" y="99.3448275862069"/>
      <point x="284.2758620689655" y="46.20689655172414"/>
    </contour>
  </outline>
</glyph>
<glyph name="seven" format="2">
  <advance width="450.6896551724138"/>
  <unicode hex="0037"/>
  <outline>
    <contour>
      <point x="128.79310344827587" y="0.0" type="line"/>
      <point x="201.9655172413793" y="0.0" type="line"/>
      <point x="414.17241379310343" y="676.6896551724138" type="line"/>
      <point x="414.17241379310343" y="713.0" type="line"/>
      <point x="43.51724137931035" y="713.0" type="line"/>
      <point x="38.51724137931035" y="521.344827586207" type="line"/>
      <point x="87.34482758620689" y="521.344827586207" type="line"/>
      <point x="91.9655172413793" y="568.9655172413793" type="line" smooth="yes"/>
      <point x="95.58620689655172" y="605.7241379310345"/>
      <point x="108.20689655172413" y="622.344827586207"/>
      <point x="137.82758620689654" y="622.344827586207" type="curve" smooth="yes"/>
      <point x="343.1034482758621" y="622.344827586207" type="line"/>
    </contour>
  </outline>
</glyph>
<glyph name="eight" format="2">
  <advance width="450.6896551724138"/>
  <unicode hex="0038"/>
  <outline>
    <contour>
      <point x="221.72413793103448" y="-10.0" type="curve" smooth="yes"/>
      <point x="348.4137931034483" y="-10.0"/>
      <point x="423.8965517241379" y="63.10344827586207"/>
      <point x="423.8965517241379" y="180.48275862068965" type="curve" smooth="yes"/>
      <point x="423.8965517241379" y="283.62068965517244"/>
      <point x="378.48275862068965" y="335.0"/>
      <point x="294.6551724137931" y="382.7241379310345" type="curve"/>
      <point x="360.51724137931035" y="418.7241379310345"/>
      <point x="401.51724137931035" y="467.86206896551727"/>
      <point x="401.51724137931035" y="558.6206896551724" type="curve" smooth="yes"/>
      <point x="401.51724137931035" y="653.7586206896551"/>
      <point x="341.6551724137931" y="724.0"/>
      <point x="228.9655172413793" y="724.0" type="curve" smooth="yes"/>
      <point x="101.0344827586207" y="724.0"/>
      <point x="45.793103448275865" y="644.7586206896551"/>
      <point x="45.793103448275865" y="546.1379310344828" type="curve" smooth="yes"/>
      <point x="45.793103448275865" y="456.51724137931035"/>
      <point x="88.17241379310344" y="406.13793103448273"/>
      <point x="150.65517241379308" y="365.13793103448273" type="curve"/>
      <point x="82.17241379310344" y="331.0"/>
      <point x="28.17241379310345" y="276.2413793103448"/>
      <point x="28.17241379310345" y="173.0" type="curve" smooth="yes"/>
      <point x="28.17241379310345" y="71.86206896551724"/>
      <point x="88.79310344827587" y="-10.0"/>
    </contour>
    <contour>
      <point x="224.3448275862069" y="43.3448275862069" type="curve" smooth="yes"/>
      <point x="165.79310344827587" y="43.3448275862069"/>
      <point x="128.79310344827587" y="90.86206896551725"/>
      <point x="128.79310344827587" y="178.48275862068965" type="curve" smooth="yes"/>
      <point x="128.79310344827587" y="249.75862068965517"/>
      <point x="152.6896551724138" y="302.0344827586207"/>
      <point x="193.24137931034483" y="335.7931034482759" type="curve"/>
      <point x="276.68965517241384" y="283.1379310344828"/>
      <point x="315.31034482758616" y="235.13793103448276"/>
      <point x="315.31034482758616" y="166.3793103448276" type="curve" smooth="yes"/>
      <point x="315.31034482758616" y="88.10344827586206"/>
      <point x="278.2758620689655" y="43.3448275862069"/>
    </contour>
    <contour>
      <point x="247.58620689655172" y="408.44827586206895" type="curve"/>
      <point x="188.0344827586207" y="445.7241379310345"/>
      <point x="151.51724137931035" y="484.7241379310345"/>
      <point x="151.51724137931035" y="560.0" type="curve" smooth="yes"/>
      <point x="151.51724137931035" y="627.1379310344828"/>
      <point x="177.79310344827587" y="670.6551724137931"/>
      <point x="226.9655172413793" y="670.6551724137931" type="curve" smooth="yes"/>
      <point x="279.8965517241379" y="670.6551724137931"/>
      <point x="304.6551724137931" y="617.3793103448277"/>
      <point x="304.6551724137931" y="556.0" type="curve" smooth="yes"/>
      <point x="304.6551724137931" y="485.0"/>
      <point x="286.65517241379314" y="441.10344827586204"/>
    </contour>
  </outline>
</glyph>
<glyph name="nine" format="2">
  <advance width="450.6896551724138"/>
  <unicode hex="0039"/>
  <outline>
    <contour>
      <point x="183.10344827586206" y="-11.0" type="curve"/>
      <point x="346.1724137931035" y="-11.0"/>
      <point x="412.2758620689655" y="154.86206896551724"/>
      <point x="412.2758620689655" y="388.0" type="curve"/>
      <point x="412.2758620689655" y="628.4827586206897"/>
      <point x="326.1724137931035" y="724.0"/>
      <point x="211.34482758620686" y="724.0" type="curve" smooth="yes"/>
      <point x="96.75862068965517" y="724.0"/>
      <point x="30.793103448275865" y="625.2413793103448"/>
      <point x="30.793103448275865" y="484.6206896551724" type="curve" smooth="yes"/>
      <point x="30.793103448275865" y="352.0"/>
      <point x="96.41379310344828" y="279.7586206896552"/>
      <point x="188.65517241379308" y="279.7586206896552" type="curve" smooth="yes"/>
      <point x="244.89655172413794" y="279.7586206896552"/>
      <point x="283.55172413793105" y="310.7931034482759"/>
      <point x="305.65517241379314" y="342.6551724137931" type="curve"/>
      <point x="300.0344827586207" y="145.3448275862069"/>
      <point x="264.2758620689655" y="47.3448275862069"/>
      <point x="190.10344827586206" y="47.3448275862069" type="curve" smooth="yes"/>
      <point x="132.48275862068965" y="47.3448275862069"/>
      <point x="109.34482758620689" y="90.55172413793103"/>
      <point x="94.10344827586206" y="140.24137931034483" type="curve"/>
      <point x="66.0344827586207" y="132.6206896551724"/>
      <point x="54.17241379310345" y="108.6551724137931"/>
      <point x="54.17241379310345" y="81.79310344827586" type="curve" smooth="yes"/>
      <point x="54.17241379310345" y="34.3448275862069"/>
      <point x="89.27586206896551" y="-11.0"/>
    </contour>
    <contour>
      <point x="221.20689655172413" y="336.82758620689657" type="curve" smooth="yes"/>
      <point x="166.0344827586207" y="337.9655172413793"/>
      <point x="139.27586206896552" y="390.8275862068965"/>
      <point x="139.27586206896552" y="488.0" type="curve" smooth="yes"/>
      <point x="139.27586206896552" y="603.8965517241379"/>
      <point x="166.41379310344828" y="667.1724137931035"/>
      <point x="217.20689655172416" y="667.1724137931035" type="curve" smooth="yes"/>
      <point x="272.37931034482756" y="667.1724137931035"/>
      <point x="304.65517241379314" y="591.7586206896551"/>
      <point x="306.41379310344826" y="399.0" type="curve"/>
      <point x="291.6551724137931" y="370.7586206896552"/>
      <point x="260.9310344827586" y="337.9655172413793"/>
    </contour>
  </outline>
</glyph>
<glyph name="colon" format="2">
  <advance width="236.13793103448273"/>
  <unicode hex="003A"/>
  <outline>
    <contour>
      <point x="117.44827586206895" y="398.448275862069" type="curve" smooth="yes"/>
      <point x="150.0344827586207" y="398.448275862069"/>
      <point x="179.0" y="414.9310344827586"/>
      <point x="179.0" y="466.89655172413796" type="curve" smooth="yes"/>
      <point x="179.0" y="519.4827586206897"/>
      <point x="150.0344827586207" y="535.3448275862069"/>
      <point x="117.44827586206895" y="535.3448275862069" type="curve" smooth="yes"/>
      <point x="82.86206896551724" y="535.3448275862069"/>
      <point x="56.51724137931034" y="519.4827586206897"/>
      <point x="56.51724137931034" y="466.89655172413796" type="curve" smooth="yes"/>
      <point x="56.51724137931034" y="414.9310344827586"/>
      <point x="82.86206896551724" y="398.448275862069"/>
    </contour>
    <contour>
      <point x="117.44827586206895" y="-7.0" type="curve" smooth="yes"/>
      <point x="150.0344827586207" y="-7.0"/>
      <point x="179.0" y="9.241379310344827"/>
      <point x="179.0" y="61.827586206896555" type="curve" smooth="yes"/>
      <point x="179.0" y="113.79310344827586"/>
      <point x="150.0344827586207" y="130.6551724137931"/>
      <point x="117.44827586206895" y="130.6551724137931" type="curve" smooth="yes"/>
      <point x="82.86206896551724" y="130.6551724137931"/>
      <point x="56.51724137931034" y="113.79310344827586"/>
      <point x="56.51724137931034" y="61.827586206896555" type="curve" smooth="yes"/>
      <point x="56.51724137931034" y="9.241379310344827"/>
      <point x="82.86206896551724" y="-7.0"/>
    </contour>
  </outline>
</glyph>
<glyph name="semicolon" format="2">
  <advance width="236.13793103448273"/>
  <unicode hex="003B"/>
  <outline>
    <contour>
      <point x="42.10344827586207" y="-154.0" type="line"/>
      <point x="141.79310344827587" y="-121.37931034482759"/>
      <point x="178.89655172413794" y="-49.51724137931034"/>
      <point x="178.89655172413794" y="30.344827586206897" type="curve" smooth="yes"/>
      <point x="178.89655172413794" y="93.3103448275862"/>
      <point x="154.89655172413794" y="130.6551724137931"/>
      <point x="111.06896551724137" y="130.6551724137931" type="curve" smooth="yes"/>
      <point x="81.34482758620689" y="130.6551724137931"/>
      <point x="56.62068965517241" y="108.79310344827586"/>
      <point x="56.62068965517241" y="71.44827586206897" type="curve" smooth="yes"/>
      <point x="56.62068965517241" y="6.896551724137931"/>
      <point x="111.72413793103448" y="11.0"/>
      <point x="111.72413793103448" y="-25.379310344827587" type="curve" smooth="yes"/>
      <point x="111.72413793103448" y="-62.0"/>
      <point x="88.48275862068965" y="-90.79310344827586"/>
      <point x="42.10344827586207" y="-110.41379310344827" type="curve"/>
    </contour>
    <contour>
      <point x="117.44827586206895" y="398.448275862069" type="curve" smooth="yes"/>
      <point x="151.0344827586207" y="398.448275862069"/>
      <point x="179.0" y="414.9310344827586"/>
      <point x="179.0" y="466.89655172413796" type="curve" smooth="yes"/>
      <point x="179.0" y="519.4827586206897"/>
      <point x="151.0344827586207" y="535.3448275862069"/>
      <point x="117.44827586206895" y="535.3448275862069" type="curve" smooth="yes"/>
      <point x="82.86206896551724" y="535.3448275862069"/>
      <point x="56.51724137931034" y="519.4827586206897"/>
      <point x="56.51724137931034" y="466.89655172413796" type="curve" smooth="yes"/>
      <point x="56.51724137931034" y="414.9310344827586"/>
      <point x="82.86206896551724" y="398.448275862069"/>
    </contour>
  </outline>
</glyph>
<glyph name="less" format="2">
  <advance width="425.0"/>
  <unicode hex="003C"/>
  <outline>
    <contour>
      <point x="385.1034482758621" y="107.89655172413794" type="line"/>
      <point x="385.1034482758621" y="180.10344827586206" type="line"/>
      <point x="123.34482758620689" y="357.0" type="line"/>
      <point x="385.1034482758621" y="536.2758620689655" type="line"/>
      <point x="385.1034482758621" y="608.1034482758621" type="line"/>
      <point x="39.89655172413793" y="376.2413793103448" type="line"/>
      <point x="39.89655172413793" y="338.7586206896552" type="line"/>
    </contour>
  </outline>
</glyph>
<glyph name="equal" format="2">
  <advance width="425.0"/>
  <unicode hex="003D"/>
  <outline>
    <contour>
      <point x="38.6551724137931" y="417.41379310344826" type="line"/>
      <point x="386.3448275862069" y="417.41379310344826" type="line"/>
      <point x="386.3448275862069" y="481.0" type="line"/>
      <point x="38.6551724137931" y="481.0" type="line"/>
    </contour>
    <contour>
      <point x="38.6551724137931" y="233.0" type="line"/>
      <point x="386.3448275862069" y="233.0" type="line"/>
      <point x="386.3448275862069" y="296.58620689655174" type="line"/>
      <point x="38.6551724137931" y="296.58620689655174" type="line"/>
    </contour>
  </outline>
</glyph>
<glyph name="question" format="2">
  <advance width="439.3103448275862"/>
  <unicode hex="003F"/>
  <outline>
    <contour>
      <point x="176.6896551724138" y="216.44827586206895" type="line"/>
      <point x="217.27586206896552" y="216.44827586206895" type="line"/>
      <point x="236.86206896551724" y="323.0" type="line"/>
      <point x="342.44827586206895" y="374.86206896551727"/>
      <point x="392.3103448275862" y="435.37931034482756"/>
      <point x="392.3103448275862" y="544.5172413793103" type="curve" smooth="yes"/>
      <point x="392.3103448275862" y="658.7586206896551"/>
      <point x="318.48275862068965" y="724.0"/>
      <point x="201.93103448275863" y="724.0" type="curve" smooth="yes"/>
      <point x="88.75862068965517" y="724.0"/>
      <point x="32.137931034482754" y="670.2758620689656"/>
      <point x="32.137931034482754" y="608.8965517241379" type="curve" smooth="yes"/>
      <point x="32.137931034482754" y="559.6896551724138"/>
      <point x="68.9655172413793" y="543.0689655172414"/>
      <point x="129.48275862068965" y="543.0689655172414" type="curve"/>
      <point x="129.48275862068965" y="621.4137931034483"/>
      <point x="149.86206896551724" y="671.0344827586207"/>
      <point x="202.17241379310346" y="671.0344827586207" type="curve" smooth="yes"/>
      <point x="249.48275862068965" y="671.0344827586207"/>
      <point x="274.37931034482756" y="618.1379310344828"/>
      <point x="274.37931034482756" y="549.2413793103449" type="curve" smooth="yes"/>
      <point x="274.37931034482756" y="464.7241379310345"/>
      <point x="250.34482758620686" y="394.0"/>
      <point x="158.10344827586206" y="347.2413793103448" type="curve"/>
    </contour>
    <contour>
      <point x="196.17241379310346" y="-7.0" type="curve" smooth="yes"/>
      <point x="229.51724137931035" y="-7.0"/>
      <point x="258.48275862068965" y="9.241379310344827"/>
      <point x="258.48275862068965" y="61.827586206896555" type="curve" smooth="yes"/>
      <point x="258.48275862068965" y="113.79310344827586"/>
      <point x="229.51724137931035" y="130.6551724137931"/>
      <point x="196.17241379310346" y="130.6551724137931" type="curve" smooth="yes"/>
      <point x="161.9655172413793" y="130.6551724137931"/>
      <point x="135.0" y="113.79310344827586"/>
      <point x="135.0" y="61.827586206896555" type="curve" smooth="yes"/>
      <point x="135.0" y="9.241379310344827"/>
      <point x="161.9655172413793" y="-7.0"/>
    </contour>
  </outline>
</glyph>
<glyph name="bracketleft" format="2">
  <advance width="325.17241379310343"/>
  <unicode hex="005B"/>
  <outline>
    <contour>
      <point x="80.24137931034483" y="-128.0" type="line"/>
      <point x="295.55172413793105" y="-128.0" type="line"/>
      <point x="295.55172413793105" y="-82.03448275862068" type="line"/>
      <point x="260.9310344827586" y="-82.03448275862068" type="line" smooth="yes"/>
      <point x="224.6896551724138" y="-82.03448275862068"/>
      <point x="194.6896551724138" y="-73.03448275862068"/>
      <point x="194.6896551724138" y="-10.03448275862069" type="curve" smooth="yes"/>
      <point x="194.6896551724138" y="642.0344827586207" type="line" smooth="yes"/>
      <point x="194.6896551724138" y="705.0344827586207"/>
      <point x="224.6896551724138" y="714.0344827586207"/>
      <point x="260.9310344827586" y="714.0344827586207" type="curve" smooth="yes"/>
      <point x="295.55172413793105" y="714.0344827586207" type="line"/>
      <point x="295.55172413793105" y="760.0" type="line"/>
      <point x="80.24137931034483" y="760.0" type="line"/>
    </contour>
  </outline>
</glyph>
<glyph name="backslash" format="2">
  <advance width="232.3448275862069"/>
  <unicode hex="005C"/>
  <outline>
    <contour>
      <point x="176.51724137931035" y="-121.0" type="line"/>
      <point x="232.3448275862069" y="-121.0" type="line"/>
      <point x="55.827586206896555" y="760.0" type="line"/>
      <point x="0.0" y="760.0" type="line"/>
    </contour>
  </outline>
</glyph>
<glyph name="bracketright" format="2">
  <advance width="325.17241379310343"/>
  <unicode hex="005D"/>
  <outline>
    <contour>
      <point x="30.0" y="-128.0" type="line"/>
      <point x="244.93103448275863" y="-128.0" type="line"/>
      <point x="244.93103448275863" y="760.0" type="line"/>
      <point x="30.0" y="760.0" type="line"/>
      <point x="30.0" y="714.0344827586207" type="line"/>
      <point x="64.24137931034483" y="714.0344827586207" type="line" smooth="yes"/>
      <point x="100.86206896551724" y="714.0344827586207"/>
      <point x="130.48275862068965" y="705.0344827586207"/>
      <point x="130.48275862068965" y="642.0344827586207" type="curve" smooth="yes"/>
      <point x="130.48275862068965" y="-10.03448275862069" type="line" smooth="yes"/>
      <point x="130.48275862068965" y="-73.03448275862068"/>
      <point x="100.86206896551724" y="-82.03448275862068"/>
      <point x="64.24137931034483" y="-82.03448275862068" type="curve" smooth="yes"/>
      <point x="30.0" y="-82.03448275862068" type="line"/>
    </contour>
  </outline>
</glyph>
<glyph name="asciicircum" format="2">
  <advance width="425.0"/>
  <unicode hex="005E"/>
  <outline>
    <contour>
      <point x="25.034482758620687" y="265.1379310344828" type="line"/>
      <point x="85.62068965517241" y="265.1379310344828" type="line"/>
      <point x="211.0" y="615.3103448275862" type="line"/>
      <point x="338.0" y="265.1379310344828" type="line"/>
      <point x="398.96551724137936" y="265.1379310344828" type="line"/>
      <point x="227.86206896551724" y="714.0" type="line"/>
      <point x="195.13793103448276" y="714.0" type="line"/>
    </contour>
  </outline>
</glyph>
<glyph name="underscore" format="2">
  <advance width="368.82758620689657"/>
  <unicode hex="005F"/>
  <outline>
    <contour>
      <point x="-4.620689655172414" y="-142.0" type="line"/>
      <point x="372.82758620689657" y="-142.0" type="line"/>
      <point x="372.82758620689657" y="-83.0" type="line"/>
      <point x="-4.620689655172414" y="-83.0" type="line"/>
    </contour>
  </outline>
</glyph>
<glyph name="braceleft" format="2">
  <advance width="353.41379310344826"/>
  <unicode hex="007B"/>
  <outline>
    <contour>
      <point x="254.82758620689657" y="-126.75862068965517" type="curve" smooth="yes"/>
      <point x="326.48275862068965" y="-126.75862068965517" type="line"/>
      <point x="326.48275862068965" y="-79.79310344827586" type="line"/>
      <point x="296.51724137931035" y="-79.79310344827586" type="line" smooth="yes"/>
      <point x="250.51724137931035" y="-79.79310344827586"/>
      <point x="237.24137931034485" y="-44.03448275862068"/>
      <point x="237.24137931034485" y="22.10344827586207" type="curve" smooth="yes"/>
      <point x="237.24137931034485" y="193.86206896551724" type="line" smooth="yes"/>
      <point x="237.24137931034485" y="258.3793103448276"/>
      <point x="209.86206896551724" y="301.2758620689655"/>
      <point x="149.0" y="316.3793103448276" type="curve"/>
      <point x="149.0" y="320.48275862068965" type="line"/>
      <point x="210.48275862068965" y="333.9655172413793"/>
      <point x="237.24137931034485" y="376.8620689655172"/>
      <point x="237.24137931034485" y="441.0" type="curve" smooth="yes"/>
      <point x="237.24137931034485" y="611.3793103448276" type="line" smooth="yes"/>
      <point x="237.24137931034485" y="678.2758620689656"/>
      <point x="250.51724137931035" y="713.655172413793"/>
      <point x="296.51724137931035" y="713.655172413793" type="curve" smooth="yes"/>
      <point x="326.48275862068965" y="713.655172413793" type="line"/>
      <point x="326.48275862068965" y="760.0" type="line"/>
      <point x="254.82758620689657" y="760.0" type="line" smooth="yes"/>
      <point x="166.89655172413794" y="760.0"/>
      <point x="121.17241379310344" y="708.0"/>
      <point x="121.17241379310344" y="615.7586206896552" type="curve" smooth="yes"/>
      <point x="121.17241379310344" y="443.0" type="line" smooth="yes"/>
      <point x="121.17241379310344" y="364.48275862068965"/>
      <point x="80.55172413793103" y="343.9655172413793"/>
      <point x="26.93103448275862" y="341.9655172413793" type="curve"/>
      <point x="26.93103448275862" y="293.2758620689655" type="line"/>
      <point x="80.55172413793103" y="290.2758620689655"/>
      <point x="121.17241379310344" y="271.3793103448276"/>
      <point x="121.17241379310344" y="190.86206896551724" type="curve" smooth="yes"/>
      <point x="121.17241379310344" y="19.103448275862068" type="line" smooth="yes"/>
      <point x="121.17241379310344" y="-71.13793103448276"/>
      <point x="166.89655172413794" y="-126.75862068965517"/>
    </contour>
  </outline>
</glyph>
<glyph name="bar" format="2">
  <advance width="450.6896551724138"/>
  <unicode hex="007C"/>
  <outline>
    <contour>
      <point x="196.24137931034483" y="-240.0" type="line"/>
      <point x="253.44827586206895" y="-240.0" type="line"/>
      <point x="253.44827586206895" y="760.0" type="line"/>
      <point x="196.24137931034483" y="760.0" type="line"/>
    </contour>
  </outline>
</glyph>
<glyph name="braceright" format="2">
  <advance width="353.41379310344826"/>
  <unicode hex="007D"/>
  <outline>
    <contour>
      <point x="26.93103448275862" y="-126.75862068965517" type="line"/>
      <point x="98.96551724137932" y="-126.75862068965517" type="line" smooth="yes"/>
      <point x="186.89655172413794" y="-126.75862068965517"/>
      <point x="232.24137931034485" y="-71.13793103448276"/>
      <point x="232.24137931034485" y="19.103448275862068" type="curve" smooth="yes"/>
      <point x="232.24137931034485" y="190.86206896551724" type="line" smooth="yes"/>
      <point x="232.24137931034485" y="271.3793103448276"/>
      <point x="274.8620689655172" y="290.2758620689655"/>
      <point x="326.48275862068965" y="293.2758620689655" type="curve"/>
      <point x="326.48275862068965" y="341.9655172413793" type="line"/>
      <point x="274.8620689655172" y="343.9655172413793"/>
      <point x="232.24137931034485" y="364.48275862068965"/>
      <point x="232.24137931034485" y="443.0" type="curve" smooth="yes"/>
      <point x="232.24137931034485" y="615.7586206896552" type="line" smooth="yes"/>
      <point x="232.24137931034485" y="708.0"/>
      <point x="186.89655172413794" y="760.0"/>
      <point x="98.96551724137932" y="760.0" type="curve" smooth="yes"/>
      <point x="26.93103448275862" y="760.0" type="line"/>
      <point x="26.93103448275862" y="713.655172413793" type="line"/>
      <point x="57.275862068965516" y="713.655172413793" type="line" smooth="yes"/>
      <point x="103.65517241379311" y="713.655172413793"/>
      <point x="116.17241379310344" y="678.2758620689656"/>
      <point x="116.17241379310344" y="611.3793103448276" type="curve" smooth="yes"/>
      <point x="116.17241379310344" y="441.0" type="line" smooth="yes"/>
      <point x="116.17241379310344" y="376.8620689655172"/>
      <point x="143.3103448275862" y="333.9655172413793"/>
      <point x="205.79310344827584" y="320.48275862068965" type="curve"/>
      <point x="205.79310344827584" y="316.3793103448276" type="line"/>
      <point x="143.17241379310343" y="301.2758620689655"/>
      <point x="116.17241379310344" y="258.3793103448276"/>
      <point x="116.17241379310344" y="193.86206896551724" type="curve" smooth="yes"/>
      <point x="116.17241379310344" y="22.10344827586207" type="line" smooth="yes"/>
      <point x="116.17241379310344" y="-44.03448275862068"/>
      <point x="103.65517241379311" y="-79.79310344827586"/>
      <point x="57.275862068965516" y="-79.79310344827586" type="curve" smooth="yes"/>
      <point x="26.93103448275862" y="-79.79310344827586" type="line"/>
    </contour>
  </outline>
</glyph>
<glyph name="asciitilde" format="2">
  <advance width="425.0"/>
  <unicode hex="007E"/>
  <outline>
    <contour>
      <point x="23.17241379310345" y="266.2758620689655" type="curve"/>
      <point x="83.0" y="266.2758620689655" type="line"/>
      <point x="87.51724137931035" y="348.51724137931035"/>
      <point x="101.75862068965517" y="384.6551724137931"/>
      <point x="132.13793103448276" y="384.6551724137931" type="curve" smooth="yes"/>
      <point x="151.89655172413794" y="384.6551724137931"/>
      <point x="165.65517241379308" y="368.1379310344828"/>
      <point x="197.13793103448276" y="331.27586206896547" type="curve" smooth="yes"/>
      <point x="244.7586206896552" y="274.8965517241379"/>
      <point x="269.0" y="266.2758620689655"/>
      <point x="299.0" y="266.2758620689655" type="curve" smooth="yes"/>
      <point x="376.82758620689657" y="266.2758620689655"/>
      <point x="400.6896551724138" y="356.41379310344826"/>
      <point x="404.2068965517241" y="447.1034482758621" type="curve"/>
      <point x="343.3793103448276" y="447.1034482758621" type="line"/>
      <point x="339.86206896551727" y="364.2413793103448"/>
      <point x="326.62068965517244" y="329.3448275862069"/>
      <point x="296.62068965517244" y="329.3448275862069" type="curve" smooth="yes"/>
      <point x="275.2413793103448" y="329.3448275862069"/>
      <point x="263.10344827586204" y="347.48275862068965"/>
      <point x="233.48275862068968" y="380.48275862068965" type="curve" smooth="yes"/>
      <point x="192.51724137931035" y="425.2068965517241"/>
      <point x="166.51724137931035" y="447.1034482758621"/>
      <point x="129.13793103448276" y="447.1034482758621" type="curve" smooth="yes"/>
      <point x="49.793103448275865" y="447.1034482758621"/>
      <point x="26.689655172413794" y="358.3448275862069"/>
    </contour>
  </outline>
</glyph>
<glyph name="twosuperior" format="2">
  <advance width="322.2068965517241"/>
  <unicode hex="00B2"/>
  <outline>
    <contour>
      <point x="25.275862068965516" y="387.0" type="line"/>
      <point x="286.7931034482759" y="387.0" type="line"/>
      <point x="289.41379310344826" y="518.1724137931035" type="line"/>
      <point x="264.3103448275862" y="518.1724137931035" type="line"/>
      <point x="259.6896551724138" y="493.448275862069" type="line"/>
      <point x="255.68965517241378" y="472.3103448275862"/>
      <point x="248.44827586206898" y="456.7931034482759"/>
      <point x="225.68965517241378" y="456.7931034482759" type="curve"/>
      <point x="86.48275862068967" y="456.7931034482759" type="line"/>
      <point x="149.79310344827587" y="523.6551724137931" type="line"/>
      <point x="245.0344827586207" y="603.2413793103448"/>
      <point x="281.2758620689655" y="639.7586206896552"/>
      <point x="281.2758620689655" y="708.7586206896552" type="curve" smooth="yes"/>
      <point x="281.2758620689655" y="778.8965517241379"/>
      <point x="241.8965517241379" y="824.6206896551724"/>
      <point x="155.9655172413793" y="824.6206896551724" type="curve" smooth="yes"/>
      <point x="70.51724137931035" y="824.6206896551724"/>
      <point x="30.413793103448274" y="785.0"/>
      <point x="30.413793103448274" y="737.7586206896551" type="curve" smooth="yes"/>
      <point x="30.413793103448274" y="707.6551724137931"/>
      <point x="49.275862068965516" y="693.4137931034483"/>
      <point x="95.82758620689654" y="693.4137931034483" type="curve"/>
      <point x="95.82758620689654" y="749.6896551724138"/>
      <point x="108.48275862068965" y="783.7931034482758"/>
      <point x="147.48275862068965" y="783.7931034482758" type="curve" smooth="yes"/>
      <point x="179.75862068965517" y="783.7931034482758"/>
      <point x="195.89655172413794" y="755.2758620689656"/>
      <point x="195.89655172413794" y="710.0" type="curve" smooth="yes"/>
      <point x="195.89655172413794" y="647.1034482758621"/>
      <point x="167.27586206896552" y="607.9655172413793"/>
      <point x="116.68965517241378" y="550.4827586206897" type="curve" smooth="yes"/>
      <point x="25.275862068965516" y="445.2758620689655" type="line"/>
    </contour>
  </outline>
</glyph>
<glyph name="threesuperior" format="2">
  <advance width="322.2068965517241"/>
  <unicode hex="00B3"/>
  <outline>
    <contour>
      <point x="143.86206896551724" y="380.0" type="curve" smooth="yes"/>
      <point x="238.41379310344828" y="380.0"/>
      <point x="293.4137931034483" y="426.48275862068965"/>
      <point x="293.4137931034483" y="508.62068965517244" type="curve" smooth="yes"/>
      <point x="293.4137931034483" y="579.7586206896552"/>
      <point x="244.79310344827587" y="603.3793103448276"/>
      <point x="198.93103448275863" y="612.0" type="curve"/>
      <point x="198.93103448275863" y="615.0" type="line"/>
      <point x="241.55172413793105" y="630.0"/>
      <point x="279.7931034482759" y="664.0"/>
      <point x="279.7931034482759" y="723.0" type="curve" smooth="yes"/>
      <point x="279.7931034482759" y="785.0"/>
      <point x="240.41379310344826" y="823.6206896551724"/>
      <point x="154.3448275862069" y="823.6206896551724" type="curve" smooth="yes"/>
      <point x="69.13793103448276" y="823.6206896551724"/>
      <point x="30.896551724137932" y="782.2413793103449"/>
      <point x="30.896551724137932" y="738.0" type="curve" smooth="yes"/>
      <point x="30.896551724137932" y="706.1379310344828"/>
      <point x="52.99999999999999" y="694.5172413793103"/>
      <point x="92.06896551724137" y="694.5172413793103" type="curve"/>
      <point x="92.06896551724137" y="745.2758620689655"/>
      <point x="100.58620689655172" y="784.0344827586207"/>
      <point x="144.24137931034483" y="784.0344827586207" type="curve" smooth="yes"/>
      <point x="176.27586206896552" y="784.0344827586207"/>
      <point x="194.0344827586207" y="761.6551724137931"/>
      <point x="194.0344827586207" y="716.7586206896551" type="curve" smooth="yes"/>
      <point x="194.0344827586207" y="664.6206896551724"/>
      <point x="170.13793103448276" y="630.4827586206897"/>
      <point x="124.37931034482759" y="630.4827586206897" type="curve" smooth="yes"/>
      <point x="94.75862068965517" y="630.4827586206897" type="line"/>
      <point x="94.75862068965517" y="588.2758620689656" type="line"/>
      <point x="123.0" y="588.2758620689656" type="line" smooth="yes"/>
      <point x="181.13793103448276" y="588.2758620689656"/>
      <point x="204.41379310344828" y="558.5172413793103"/>
      <point x="204.41379310344828" y="510.2413793103449" type="curve" smooth="yes"/>
      <point x="204.41379310344828" y="447.3448275862069"/>
      <point x="175.27586206896552" y="424.2068965517241"/>
      <point x="137.3793103448276" y="424.2068965517241" type="curve" smooth="yes"/>
      <point x="89.58620689655172" y="424.2068965517241"/>
      <point x="73.34482758620689" y="464.48275862068965"/>
      <point x="73.34482758620689" y="512.3448275862069" type="curve"/>
      <point x="39.51724137931034" y="512.3448275862069"/>
      <point x="20.655172413793107" y="497.10344827586204"/>
      <point x="20.655172413793107" y="464.48275862068965" type="curve" smooth="yes"/>
      <point x="20.655172413793107" y="415.48275862068965"/>
      <point x="58.27586206896551" y="380.0"/>
    </contour>
  </outline>
</glyph>
<glyph name="multiply" format="2">
  <advance width="425.0"/>
  <unicode hex="00D7"/>
  <outline>
    <contour>
      <point x="88.24137931034483" y="155.3448275862069" type="line"/>
      <point x="213.75862068965517" y="310.2758620689655" type="line"/>
      <point x="338.0344827586207" y="156.58620689655172" type="line"/>
      <point x="384.7586206896552" y="195.31034482758622" type="line"/>
      <point x="253.48275862068965" y="358.62068965517244" type="line"/>
      <point x="384.7586206896552" y="520.9310344827586" type="line"/>
      <point x="337.41379310344826" y="559.655172413793" type="line"/>
      <point x="213.75862068965517" y="407.3448275862069" type="line"/>
      <point x="89.24137931034483" y="561.2758620689655" type="line"/>
      <point x="41.51724137931035" y="522.551724137931" type="line"/>
      <point x="174.41379310344828" y="358.62068965517244" type="line"/>
      <point x="41.51724137931035" y="193.6896551724138" type="line"/>
    </contour>
  </outline>
</glyph>
<glyph name="divide" format="2">
  <advance width="425.0"/>
  <unicode hex="00F7"/>
  <outline>
    <contour>
      <point x="39.89655172413793" y="325.89655172413796" type="line"/>
      <point x="385.1034482758621" y="325.89655172413796" type="line"/>
      <point x="385.1034482758621" y="389.10344827586204" type="line"/>
      <point x="39.89655172413793" y="389.10344827586204" type="line"/>
    </contour>
    <contour>
      <point x="213.0" y="110.89655172413794" type="curve" smooth="yes"/>
      <point x="238.24137931034485" y="110.89655172413794"/>
      <point x="259.1034482758621" y="126.13793103448276"/>
      <point x="259.1034482758621" y="168.0" type="curve" smooth="yes"/>
      <point x="259.1034482758621" y="210.86206896551724"/>
      <point x="238.24137931034485" y="225.10344827586206"/>
      <point x="213.0" y="225.10344827586206" type="curve" smooth="yes"/>
      <point x="186.13793103448276" y="225.10344827586206"/>
      <point x="165.89655172413794" y="210.86206896551724"/>
      <point x="165.89655172413794" y="168.0" type="curve" smooth="yes"/>
      <point x="165.89655172413794" y="126.13793103448276"/>
      <point x="186.13793103448276" y="110.89655172413794"/>
    </contour>
    <contour>
      <point x="213.0" y="489.89655172413796" type="curve" smooth="yes"/>
      <point x="238.24137931034485" y="489.89655172413796"/>
      <point x="259.1034482758621" y="505.1379310344828"/>
      <point x="259.1034482758621" y="547.0" type="curve" smooth="yes"/>
      <point x="259.1034482758621" y="589.8620689655172"/>
      <point x="238.24137931034485" y="604.1034482758621"/>
      <point x="213.0" y="604.1034482758621" type="curve" smooth="yes"/>
      <point x="186.13793103448276" y="604.1034482758621"/>
      <point x="165.89655172413794" y="589.8620689655172"/>
      <point x="165.89655172413794" y="547.0" type="curve" smooth="yes"/>
      <point x="165.89655172413794" y="505.1379310344828"/>
      <point x="186.13793103448276" y="489.89655172413796"/>
    </contour>
  </outline>
</glyph>
<glyph name="udatta-deva" format="2">
  <unicode hex="0951"/>
  <anchor x="0.0" y="560.8275862068966" name="_vedic"/>
  <outline>
    <contour>
      <point x="-28.10344827586207" y="929.4137931034484" type="line"/>
      <point x="28.10344827586207" y="929.4137931034484" type="line"/>
      <point x="28.10344827586207" y="1128.1379310344828" type="line"/>
      <point x="-28.10344827586207" y="1128.1379310344828" type="line"/>
    </contour>
  </outline>
</glyph>
<glyph name="anudatta-deva" format="2">
  <unicode hex="0952"/>
  <anchor x="0.0" y="0.0" name="_bottom"/>
  <outline>
    <contour>
      <point x="-201.6206896551724" y="-535.4137931034483" type="line"/>
      <point x="201.6206896551724" y="-535.4137931034483" type="line"/>
      <point x="201.6206896551724" y="-458.48275862068965" type="line"/>
      <point x="-201.6206896551724" y="-458.48275862068965" type="line"/>
    </contour>
  </outline>
</glyph>
<glyph name="danda-deva" format="2">
  <advance width="264.62068965517244"/>
  <unicode hex="0964"/>
  <outline>
    <contour>
      <point x="70.55172413793103" y="0.0" type="line"/>
      <point x="193.44827586206895" y="0.0" type="line"/>
      <point x="193.44827586206895" y="560.8275862068966" type="line"/>
      <point x="70.55172413793103" y="560.8275862068966" type="line"/>
    </contour>
  </outline>
</glyph>
<glyph name="dbldanda-deva" format="2">
  <advance width="483.1034482758621"/>
  <unicode hex="0965"/>
  <outline>
    <contour>
      <point x="289.6551724137931" y="0.0" type="line"/>
      <point x="412.55172413793105" y="0.0" type="line"/>
      <point x="412.55172413793105" y="560.8275862068966" type="line"/>
      <point x="289.6551724137931" y="560.8275862068966" type="line"/>
    </contour>
    <contour>
      <point x="70.55172413793103" y="0.0" type="line"/>
      <point x="193.44827586206895" y="0.0" type="line"/>
      <point x="193.44827586206895" y="560.8275862068966" type="line"/>
      <point x="70.55172413793103" y="560.8275862068966" type="line"/>
    </contour>
  </outline>
</glyph>
<glyph name="anusvara-tamil" format="2">
  <unicode hex="0B82"/>
  <note>
uni0B82
</note>
  <anchor x="0.0" y="560.8275862068966" name="_top"/>
  <outline>
    <contour>
      <point x="0.0" y="629.8965517241379" type="curve" smooth="yes"/>
      <point x="66.82758620689656" y="629.8965517241379"/>
      <point x="118.27586206896552" y="677.3448275862069"/>
      <point x="118.27586206896552" y="744.551724137931" type="curve" smooth="yes"/>
      <point x="118.27586206896552" y="811.3793103448276"/>
      <point x="66.82758620689656" y="858.5862068965517"/>
      <point x="0.0" y="858.5862068965517" type="curve" smooth="yes"/>
      <point x="-66.82758620689656" y="858.5862068965517"/>
      <point x="-118.27586206896552" y="811.3793103448276"/>
      <point x="-118.27586206896552" y="744.551724137931" type="curve" smooth="yes"/>
      <point x="-118.27586206896552" y="677.3448275862069"/>
      <point x="-66.82758620689656" y="629.8965517241379"/>
    </contour>
    <contour>
      <point x="0.0" y="693.8275862068966" type="curve" smooth="yes"/>
      <point x="-28.24137931034483" y="693.8275862068966"/>
      <point x="-49.96551724137931" y="715.3103448275863"/>
      <point x="-49.96551724137931" y="744.551724137931" type="curve" smooth="yes"/>
      <point x="-49.96551724137931" y="773.7931034482759"/>
      <point x="-28.24137931034483" y="795.2758620689655"/>
      <point x="0.0" y="795.2758620689655" type="curve" smooth="yes"/>
      <point x="28.24137931034483" y="795.2758620689655"/>
      <point x="49.96551724137931" y="773.7931034482759"/>
      <point x="49.96551724137931" y="744.551724137931" type="curve" smooth="yes"/>
      <point x="49.96551724137931" y="715.3103448275863"/>
      <point x="28.24137931034483" y="693.8275862068966"/>
    </contour>
  </outline>
</glyph>
<glyph name="visarga-tamil" format="2">
  <advance width="704.6206896551724"/>
  <unicode hex="0B83"/>
  <note>
uni0B83
</note>
  <outline>
    <contour>
      <point x="517.7586206896552" y="-1.2413793103448274" type="curve" smooth="yes"/>
      <point x="601.1034482758621" y="-1.2413793103448274"/>
      <point x="656.8275862068965" y="70.0344827586207"/>
      <point x="656.8275862068965" y="185.6206896551724" type="curve" smooth="yes"/>
      <point x="656.8275862068965" y="300.2068965517241"/>
      <point x="601.4827586206897" y="371.4827586206897"/>
      <point x="519.3793103448276" y="371.4827586206897" type="curve" smooth="yes"/>
      <point x="435.17241379310343" y="371.4827586206897"/>
      <point x="386.3103448275862" y="296.48275862068965"/>
      <point x="386.3103448275862" y="183.75862068965517" type="curve" smooth="yes"/>
      <point x="386.3103448275862" y="72.51724137931033"/>
      <point x="432.9310344827586" y="-1.2413793103448274"/>
    </contour>
    <contour>
      <point x="180.10344827586206" y="-1.2413793103448274" type="curve" smooth="yes"/>
      <point x="263.44827586206895" y="-1.2413793103448274"/>
      <point x="318.551724137931" y="70.0344827586207"/>
      <point x="318.551724137931" y="185.6206896551724" type="curve" smooth="yes"/>
      <point x="318.551724137931" y="300.2068965517241"/>
      <point x="263.2068965517241" y="371.4827586206897"/>
      <point x="181.10344827586206" y="371.4827586206897" type="curve" smooth="yes"/>
      <point x="97.27586206896552" y="371.4827586206897"/>
      <point x="48.41379310344828" y="296.48275862068965"/>
      <point x="48.41379310344828" y="183.75862068965517" type="curve" smooth="yes"/>
      <point x="48.41379310344828" y="72.51724137931033"/>
      <point x="95.0344827586207" y="-1.2413793103448274"/>
    </contour>
    <contour>
      <point x="350.93103448275866" y="420.6896551724138" type="curve" smooth="yes"/>
      <point x="434.27586206896547" y="420.6896551724138"/>
      <point x="490.0" y="491.58620689655174"/>
      <point x="490.0" y="607.1724137931035" type="curve" smooth="yes"/>
      <point x="490.0" y="722.1379310344828"/>
      <point x="434.6551724137931" y="793.0344827586207"/>
      <point x="352.55172413793105" y="793.0344827586207" type="curve" smooth="yes"/>
      <point x="268.7241379310345" y="793.0344827586207"/>
      <point x="219.86206896551727" y="718.4137931034483"/>
      <point x="219.86206896551727" y="605.9310344827586" type="curve" smooth="yes"/>
      <point x="219.86206896551727" y="494.68965517241384"/>
      <point x="266.48275862068965" y="420.6896551724138"/>
    </contour>
    <contour>
      <point x="164.6551724137931" y="59.206896551724135" type="curve" smooth="yes"/>
      <point x="123.51724137931035" y="59.206896551724135"/>
      <point x="102.86206896551724" y="107.48275862068965"/>
      <point x="102.86206896551724" y="185.6206896551724" type="curve" smooth="yes"/>
      <point x="102.86206896551724" y="261.7586206896552"/>
      <point x="124.13793103448276" y="310.6551724137931"/>
      <point x="165.89655172413794" y="310.6551724137931" type="curve" smooth="yes"/>
      <point x="206.9310344827586" y="310.6551724137931"/>
      <point x="228.82758620689654" y="269.13793103448273"/>
      <point x="228.82758620689654" y="185.6206896551724" type="curve" smooth="yes"/>
      <point x="228.82758620689654" y="100.48275862068967"/>
      <point x="206.9310344827586" y="59.206896551724135"/>
    </contour>
    <contour>
      <point x="336.1034482758621" y="481.1379310344828" type="curve" smooth="yes"/>
      <point x="294.9655172413793" y="481.1379310344828"/>
      <point x="274.31034482758616" y="530.0344827586207"/>
      <point x="274.31034482758616" y="607.1724137931035" type="curve" smooth="yes"/>
      <point x="274.31034482758616" y="683.6896551724137"/>
      <point x="294.9655172413793" y="732.5862068965516"/>
      <point x="336.7241379310345" y="732.5862068965516" type="curve" smooth="yes"/>
      <point x="378.37931034482756" y="732.5862068965516"/>
      <point x="400.27586206896547" y="690.6896551724137"/>
      <point x="400.27586206896547" y="607.1724137931035" type="curve" smooth="yes"/>
      <point x="400.27586206896547" y="522.4137931034483"/>
      <point x="377.7586206896552" y="481.1379310344828"/>
    </contour>
    <contour>
      <point x="502.9310344827586" y="59.206896551724135" type="curve" smooth="yes"/>
      <point x="461.7931034482759" y="59.206896551724135"/>
      <point x="440.13793103448273" y="107.48275862068965"/>
      <point x="440.13793103448273" y="185.6206896551724" type="curve" smooth="yes"/>
      <point x="440.13793103448273" y="261.7586206896552"/>
      <point x="461.7931034482759" y="310.6551724137931"/>
      <point x="503.55172413793105" y="310.6551724137931" type="curve" smooth="yes"/>
      <point x="545.2068965517242" y="310.6551724137931"/>
      <point x="567.103448275862" y="269.13793103448273"/>
      <point x="567.103448275862" y="185.6206896551724" type="curve" smooth="yes"/>
      <point x="567.103448275862" y="100.48275862068967"/>
      <point x="544.5862068965517" y="59.206896551724135"/>
    </contour>
  </outline>
</glyph>
<glyph name="a-tamil" format="2">
  <advance width="1047.896551724138"/>
  <unicode hex="0B85"/>
  <note>
uni0B85
</note>
  <anchor x="514.0" y="0.0" name="bottom"/>
  <anchor x="351.0344827586207" y="-133.17241379310346" name="nukta"/>
  <anchor x="519.6551724137931" y="560.8275862068966" name="top"/>
  <anchor x="521.0344827586207" y="560.8275862068966" name="vedic"/>
  <outline>
    <contour>
      <point x="857.0689655172414" y="-195.79310344827587" type="line"/>
      <point x="979.9655172413794" y="-195.79310344827587" type="line"/>
      <point x="979.9655172413794" y="560.8275862068966" type="line"/>
      <point x="857.0689655172414" y="560.8275862068966" type="line"/>
      <point x="857.0689655172414" y="166.6551724137931" type="line"/>
      <point x="102.48275862068965" y="166.6551724137931" type="line" smooth="yes"/>
      <point x="56.620689655172406" y="166.6551724137931"/>
      <point x="29.655172413793107" y="136.79310344827587"/>
      <point x="29.655172413793107" y="90.93103448275862" type="curve" smooth="yes"/>
      <point x="29.655172413793107" y="-15.241379310344827"/>
      <point x="159.55172413793105" y="-133.17241379310346"/>
      <point x="351.0344827586207" y="-133.17241379310346" type="curve" smooth="yes"/>
      <point x="593.8275862068965" y="-133.17241379310346"/>
      <point x="762.2758620689656" y="4.586206896551724"/>
      <point x="762.2758620689656" y="244.41379310344828" type="curve" smooth="yes"/>
      <point x="762.2758620689656" y="446.3448275862069"/>
      <point x="645.3793103448277" y="565.8275862068966"/>
      <point x="489.2413793103449" y="565.8275862068966" type="curve" smooth="yes"/>
      <point x="367.3793103448276" y="565.8275862068966"/>
      <point x="297.1379310344828" y="490.41379310344826"/>
      <point x="297.1379310344828" y="381.2758620689655" type="curve" smooth="yes"/>
      <point x="297.1379310344828" y="297.0689655172414"/>
      <point x="351.96551724137936" y="235.82758620689654"/>
      <point x="427.551724137931" y="235.82758620689654" type="curve" smooth="yes"/>
      <point x="501.6551724137931" y="235.82758620689654"/>
      <point x="555.5862068965517" y="284.2068965517241"/>
      <point x="555.5862068965517" y="372.6551724137931" type="curve" smooth="yes"/>
      <point x="555.5862068965517" y="450.13793103448273"/>
      <point x="506.5862068965517" y="511.13793103448273"/>
      <point x="448.8275862068965" y="525.8275862068965" type="curve"/>
      <point x="398.8965517241379" y="519.1034482758621" type="line"/>
      <point x="444.24137931034477" y="498.13793103448273"/>
      <point x="474.13793103448273" y="439.6206896551724"/>
      <point x="474.13793103448273" y="384.7586206896552" type="curve" smooth="yes"/>
      <point x="474.13793103448273" y="337.0"/>
      <point x="453.5172413793104" y="299.13793103448273"/>
      <point x="413.7931034482759" y="299.13793103448273" type="curve" smooth="yes"/>
      <point x="381.9310344827586" y="299.13793103448273"/>
      <point x="354.0689655172414" y="326.13793103448273"/>
      <point x="354.0689655172414" y="382.6206896551724" type="curve" smooth="yes"/>
      <point x="354.0689655172414" y="455.4137931034483"/>
      <point x="396.2068965517242" y="506.86206896551727"/>
      <point x="473.89655172413796" y="506.86206896551727" type="curve" smooth="yes"/>
      <point x="570.551724137931" y="506.86206896551727"/>
      <point x="644.7241379310345" y="412.3448275862069"/>
      <point x="644.7241379310345" y="250.6206896551724" type="curve" smooth="yes"/>
      <point x="644.7241379310345" y="41.48275862068965"/>
      <point x="510.7931034482759" y="-74.20689655172414"/>
      <point x="336.34482758620686" y="-74.20689655172414" type="curve" smooth="yes"/>
      <point x="191.55172413793105" y="-74.20689655172414"/>
      <point x="93.96551724137932" y="16.586206896551722"/>
      <point x="93.96551724137932" y="81.06896551724138" type="curve" smooth="yes"/>
      <point x="93.96551724137932" y="97.6896551724138"/>
      <point x="101.82758620689656" y="108.3103448275862"/>
      <point x="120.82758620689656" y="108.3103448275862" type="curve" smooth="yes"/>
      <point x="857.0689655172414" y="108.3103448275862" type="line"/>
    </contour>
  </outline>
</glyph>
<glyph name="aa-tamil" format="2">
  <advance width="1217.0"/>
  <unicode hex="0B86"/>
  <note>
uni0B86
</note>
  <anchor x="595.3103448275862" y="0.0" name="bottom"/>
  <anchor x="351.0344827586207" y="-133.17241379310346" name="nukta"/>
  <anchor x="600.9655172413793" y="560.8275862068966" name="top"/>
  <anchor x="601.9655172413793" y="560.8275862068966" name="vedic"/>
  <outline>
    <contour>
      <point x="815.1724137931034" y="-408.3793103448276" type="curve" smooth="yes"/>
      <point x="1006.5862068965517" y="-408.3793103448276"/>
      <point x="1201.2413793103449" y="-293.3793103448276"/>
      <point x="1201.2413793103449" y="-82.58620689655173" type="curve" smooth="yes"/>
      <point x="1201.2413793103449" y="17.0"/>
      <point x="1155.0344827586207" y="68.58620689655173"/>
      <point x="1084.7241379310344" y="68.58620689655173" type="curve" smooth="yes"/>
      <point x="1006.7931034482759" y="68.58620689655173"/>
      <point x="962.7241379310344" y="2.96551724137931"/>
      <point x="955.2413793103448" y="-97.55172413793103" type="curve"/>
      <point x="976.9655172413792" y="-105.55172413793103" type="line"/>
      <point x="975.9655172413792" y="-52.689655172413794"/>
      <point x="1001.344827586207" y="-23.551724137931036"/>
      <point x="1031.2068965517242" y="-23.551724137931036" type="curve" smooth="yes"/>
      <point x="1063.2068965517242" y="-23.551724137931036"/>
      <point x="1082.9655172413793" y="-48.55172413793104"/>
      <point x="1082.9655172413793" y="-96.3103448275862" type="curve" smooth="yes"/>
      <point x="1081.9655172413793" y="-264.41379310344826"/>
      <point x="945.3793103448277" y="-350.6551724137931"/>
      <point x="808.9310344827586" y="-350.6551724137931" type="curve" smooth="yes"/>
      <point x="733.7241379310345" y="-350.6551724137931"/>
      <point x="672.1724137931035" y="-325.2758620689655"/>
      <point x="672.1724137931035" y="-267.8965517241379" type="curve" smooth="yes"/>
      <point x="672.1724137931035" y="-224.13793103448276"/>
      <point x="701.3103448275862" y="-199.86206896551724"/>
      <point x="753.551724137931" y="-186.86206896551724" type="curve"/>
      <point x="740.1724137931035" y="-130.75862068965517" type="line"/>
      <point x="659.7241379310345" y="-151.75862068965517"/>
      <point x="610.2068965517242" y="-195.8965517241379"/>
      <point x="610.2068965517242" y="-264.13793103448273" type="curve" smooth="yes"/>
      <point x="610.2068965517242" y="-356.7586206896552"/>
      <point x="694.8965517241379" y="-408.3793103448276"/>
    </contour>
    <component base="a-tamil"/>
  </outline>
</glyph>
<glyph name="i-tamil" format="2">
  <advance width="816.0344827586207"/>
  <unicode hex="0B87"/>
  <note>
uni0B87
</note>
  <anchor x="388.48275862068965" y="0.0" name="bottom"/>
  <anchor x="386.48275862068965" y="-275.10344827586204" name="nukta"/>
  <anchor x="402.7241379310345" y="824.9310344827586" name="top"/>
  <anchor x="394.4827586206896" y="560.8275862068966" name="vedic"/>
  <outline>
    <contour>
      <point x="189.9655172413793" y="-307.551724137931" type="curve" smooth="yes"/>
      <point x="441.1379310344828" y="-307.551724137931"/>
      <point x="634.8965517241379" y="-45.689655172413794"/>
      <point x="634.8965517241379" y="233.41379310344828" type="curve" smooth="yes"/>
      <point x="634.8965517241379" y="435.62068965517244"/>
      <point x="539.9310344827586" y="565.8275862068966"/>
      <point x="384.17241379310343" y="565.8275862068966" type="curve" smooth="yes"/>
      <point x="272.3448275862069" y="565.8275862068966"/>
      <point x="200.7241379310345" y="492.7931034482759"/>
      <point x="200.7241379310345" y="378.89655172413796" type="curve" smooth="yes"/>
      <point x="200.7241379310345" y="292.55172413793105"/>
      <point x="253.55172413793102" y="236.20689655172413"/>
      <point x="325.3793103448276" y="236.20689655172413" type="curve" smooth="yes"/>
      <point x="398.72413793103453" y="236.20689655172413"/>
      <point x="451.2758620689655" y="285.5862068965517"/>
      <point x="451.2758620689655" y="369.6551724137931" type="curve" smooth="yes"/>
      <point x="451.2758620689655" y="438.48275862068965"/>
      <point x="408.6896551724138" y="501.48275862068965"/>
      <point x="348.41379310344826" y="524.4482758620691" type="curve"/>
      <point x="296.34482758620686" y="516.9655172413793" type="line"/>
      <point x="343.448275862069" y="496.37931034482756"/>
      <point x="369.58620689655174" y="440.0"/>
      <point x="369.58620689655174" y="382.7586206896552" type="curve" smooth="yes"/>
      <point x="369.58620689655174" y="336.0"/>
      <point x="350.58620689655174" y="298.7586206896552"/>
      <point x="312.6206896551724" y="298.7586206896552" type="curve" smooth="yes"/>
      <point x="279.37931034482756" y="298.7586206896552"/>
      <point x="257.6551724137931" y="330.2758620689655"/>
      <point x="257.6551724137931" y="381.2413793103448" type="curve" smooth="yes"/>
      <point x="257.6551724137931" y="455.0344827586207"/>
      <point x="294.2758620689655" y="506.86206896551727"/>
      <point x="370.9655172413793" y="506.86206896551727" type="curve" smooth="yes"/>
      <point x="476.27586206896547" y="506.86206896551727"/>
      <point x="519.2068965517242" y="402.3793103448276"/>
      <point x="519.2068965517242" y="255.79310344827587" type="curve" smooth="yes"/>
      <point x="519.2068965517242" y="3.724137931034484"/>
      <point x="421.37931034482756" y="-247.96551724137933"/>
      <point x="194.10344827586206" y="-247.96551724137933" type="curve" smooth="yes"/>
      <point x="133.6206896551724" y="-247.96551724137933"/>
      <point x="101.0" y="-216.58620689655172"/>
      <point x="101.0" y="-156.20689655172413" type="curve" smooth="yes"/>
      <point x="101.0" y="-28.793103448275865"/>
      <point x="246.9655172413793" y="52.03448275862068"/>
      <point x="385.8620689655172" y="52.03448275862068" type="curve" smooth="yes"/>
      <point x="530.2068965517241" y="52.03448275862068"/>
      <point x="684.5172413793103" y="-20.17241379310345"/>
      <point x="684.5172413793103" y="-151.9310344827586" type="curve" smooth="yes"/>
      <point x="684.5172413793103" y="-218.9655172413793"/>
      <point x="645.0" y="-247.96551724137933"/>
      <point x="584.0" y="-247.96551724137933" type="curve" smooth="yes"/>
      <point x="372.48275862068965" y="-247.96551724137933"/>
      <point x="115.13793103448276" y="72.9655172413793"/>
      <point x="115.13793103448276" y="376.2068965517241" type="curve" smooth="yes"/>
      <point x="115.13793103448276" y="626.3793103448276"/>
      <point x="236.48275862068965" y="719.1724137931035"/>
      <point x="402.34482758620686" y="719.1724137931035" type="curve" smooth="yes"/>
      <point x="589.9310344827587" y="719.1724137931035"/>
      <point x="709.0344827586207" y="585.7241379310345"/>
      <point x="709.0344827586207" y="360.3448275862069" type="curve" smooth="yes"/>
      <point x="709.0344827586207" y="91.58620689655172" type="line"/>
      <point x="770.2413793103449" y="91.58620689655172" type="line"/>
      <point x="770.2413793103449" y="362.82758620689657" type="line" smooth="yes"/>
      <point x="770.2413793103449" y="678.6896551724137"/>
      <point x="625.6206896551723" y="824.9310344827586"/>
      <point x="402.7241379310345" y="824.9310344827586" type="curve" smooth="yes"/>
      <point x="183.3448275862069" y="824.9310344827586"/>
      <point x="47.06896551724139" y="665.0"/>
      <point x="47.06896551724139" y="414.55172413793105" type="curve" smooth="yes"/>
      <point x="47.06896551724139" y="52.275862068965516"/>
      <point x="336.3793103448276" y="-307.55172413793105"/>
      <point x="598.7931034482759" y="-307.55172413793105" type="curve" smooth="yes"/>
      <point x="691.0689655172413" y="-307.55172413793105"/>
      <point x="753.2068965517242" y="-255.44827586206898"/>
      <point x="753.2068965517242" y="-165.31034482758622" type="curve" smooth="yes"/>
      <point x="753.2068965517242" y="20.413793103448274"/>
      <point x="567.0344827586206" y="108.13793103448276"/>
      <point x="385.2413793103448" y="108.13793103448276" type="curve" smooth="yes"/>
      <point x="210.86206896551727" y="108.13793103448276"/>
      <point x="35.17241379310345" y="10.448275862068964"/>
      <point x="35.17241379310345" y="-157.82758620689654" type="curve" smooth="yes"/>
      <point x="35.17241379310345" y="-254.17241379310343"/>
      <point x="98.03448275862068" y="-307.551724137931"/>
    </contour>
  </outline>
</glyph>
<glyph name="ii-tamil" format="2">
  <advance width="653.551724137931"/>
  <unicode hex="0B88"/>
  <note>
uni0B88
</note>
  <anchor x="333.41379310344826" y="0.0" name="bottom"/>
  <anchor x="333.7931034482759" y="0.0" name="nukta"/>
  <anchor x="336.0344827586207" y="560.8275862068966" name="top"/>
  <anchor x="336.4137931034483" y="560.8275862068966" name="vedic"/>
  <outline>
    <contour>
      <point x="68.17241379310344" y="0.0" type="line"/>
      <point x="129.3793103448276" y="0.0" type="line"/>
      <point x="129.3793103448276" y="503.1034482758621" type="line"/>
      <point x="325.37931034482756" y="503.1034482758621" type="line"/>
      <point x="325.37931034482756" y="0.0" type="line"/>
      <point x="449.51724137931035" y="0.0" type="line"/>
      <point x="449.51724137931035" y="503.1034482758621" type="line"/>
      <point x="610.6896551724138" y="503.1034482758621" type="line"/>
      <point x="610.6896551724138" y="560.8275862068966" type="line"/>
      <point x="68.17241379310344" y="560.8275862068966" type="line"/>
    </contour>
    <contour>
      <point x="226.37931034482756" y="210.89655172413794" type="curve" smooth="yes"/>
      <point x="259.1034482758621" y="210.89655172413794"/>
      <point x="285.44827586206895" y="237.3793103448276"/>
      <point x="285.44827586206895" y="267.48275862068965" type="curve" smooth="yes"/>
      <point x="285.44827586206895" y="297.58620689655174"/>
      <point x="259.72413793103453" y="323.68965517241384"/>
      <point x="226.99999999999997" y="323.68965517241384" type="curve" smooth="yes"/>
      <point x="193.27586206896552" y="323.68965517241384"/>
      <point x="167.55172413793105" y="297.58620689655174"/>
      <point x="167.55172413793105" y="267.48275862068965" type="curve" smooth="yes"/>
      <point x="167.55172413793105" y="237.3793103448276"/>
      <point x="193.27586206896552" y="210.89655172413794"/>
    </contour>
    <contour>
      <point x="546.5172413793103" y="210.89655172413794" type="curve" smooth="yes"/>
      <point x="579.2413793103449" y="210.89655172413794"/>
      <point x="605.5862068965517" y="237.3793103448276"/>
      <point x="605.5862068965517" y="267.48275862068965" type="curve" smooth="yes"/>
      <point x="605.5862068965517" y="297.58620689655174"/>
      <point x="579.8620689655172" y="323.68965517241384"/>
      <point x="547.1379310344828" y="323.68965517241384" type="curve" smooth="yes"/>
      <point x="513.4137931034484" y="323.68965517241384"/>
      <point x="487.6896551724138" y="297.58620689655174"/>
      <point x="487.6896551724138" y="267.48275862068965" type="curve" smooth="yes"/>
      <point x="487.6896551724138" y="237.3793103448276"/>
      <point x="513.4137931034484" y="210.89655172413794"/>
    </contour>
  </outline>
</glyph>
<glyph name="u-tamil" format="2">
  <advance width="765.8620689655172"/>
  <unicode hex="0B89"/>
  <note>
uni0B89
</note>
  <anchor x="395.31034482758616" y="0.0" name="bottom"/>
  <anchor x="395.6896551724138" y="0.0" name="nukta"/>
  <anchor x="399.3103448275862" y="560.8275862068966" name="top"/>
  <anchor x="398.31034482758616" y="560.8275862068966" name="vedic"/>
  <outline>
    <contour>
      <point x="128.51724137931035" y="0.0" type="curve" smooth="yes"/>
      <point x="751.3448275862069" y="0.0" type="line"/>
      <point x="751.3448275862069" y="58.3448275862069" type="line"/>
      <point x="129.41379310344828" y="58.3448275862069" type="line" smooth="yes"/>
      <point x="112.41379310344827" y="58.3448275862069"/>
      <point x="94.13793103448276" y="72.72413793103448"/>
      <point x="94.13793103448276" y="95.86206896551724" type="curve" smooth="yes"/>
      <point x="94.13793103448276" y="119.37931034482759"/>
      <point x="111.79310344827586" y="133.75862068965517"/>
      <point x="129.41379310344828" y="133.75862068965517" type="curve" smooth="yes"/>
      <point x="307.7931034482759" y="133.75862068965517" type="line" smooth="yes"/>
      <point x="440.4482758620689" y="133.75862068965517"/>
      <point x="536.6206896551724" y="197.51724137931035"/>
      <point x="536.6206896551724" y="337.2413793103448" type="curve" smooth="yes"/>
      <point x="536.6206896551724" y="483.48275862068965"/>
      <point x="434.2758620689656" y="565.8275862068966"/>
      <point x="291.6896551724138" y="565.8275862068966" type="curve" smooth="yes"/>
      <point x="176.6551724137931" y="565.8275862068966"/>
      <point x="98.68965517241378" y="492.0"/>
      <point x="98.68965517241378" y="383.86206896551727" type="curve" smooth="yes"/>
      <point x="98.68965517241378" y="299.2758620689655"/>
      <point x="147.13793103448273" y="245.13793103448276"/>
      <point x="218.62068965517244" y="245.13793103448276" type="curve" smooth="yes"/>
      <point x="290.34482758620686" y="245.13793103448276"/>
      <point x="342.55172413793105" y="291.37931034482756"/>
      <point x="342.55172413793105" y="373.37931034482756" type="curve" smooth="yes"/>
      <point x="342.55172413793105" y="449.2413793103448"/>
      <point x="295.44827586206895" y="510.37931034482756"/>
      <point x="239.0689655172414" y="524.5862068965516" type="curve"/>
      <point x="186.89655172413794" y="520.9655172413793" type="line"/>
      <point x="233.9655172413793" y="498.1379310344828"/>
      <point x="261.1034482758621" y="440.9655172413793"/>
      <point x="261.1034482758621" y="386.1034482758621" type="curve" smooth="yes"/>
      <point x="261.1034482758621" y="337.3448275862069"/>
      <point x="242.24137931034483" y="305.9655172413793"/>
      <point x="206.99999999999997" y="305.9655172413793" type="curve" smooth="yes"/>
      <point x="177.75862068965517" y="305.9655172413793"/>
      <point x="155.6206896551724" y="331.8275862068965"/>
      <point x="155.6206896551724" y="383.3448275862069" type="curve" smooth="yes"/>
      <point x="155.6206896551724" y="458.0"/>
      <point x="205.58620689655174" y="508.1034482758621"/>
      <point x="273.34482758620686" y="508.1034482758621" type="curve" smooth="yes"/>
      <point x="359.0344827586207" y="508.1034482758621"/>
      <point x="419.3103448275862" y="450.1034482758621"/>
      <point x="419.3103448275862" y="348.37931034482756" type="curve" smooth="yes"/>
      <point x="419.3103448275862" y="245.24137931034483"/>
      <point x="370.44827586206895" y="189.86206896551724"/>
      <point x="290.44827586206895" y="189.86206896551724" type="curve" smooth="yes"/>
      <point x="128.51724137931035" y="189.86206896551724" type="line" smooth="yes"/>
      <point x="76.17241379310344" y="189.86206896551724"/>
      <point x="37.793103448275865" y="155.86206896551724"/>
      <point x="37.793103448275865" y="95.86206896551724" type="curve" smooth="yes"/>
      <point x="37.793103448275865" y="35.62068965517241"/>
      <point x="76.79310344827586" y="0.0"/>
    </contour>
  </outline>
</glyph>
<glyph name="uu-tamil" format="2">
  <advance width="1383.4137931034481"/>
  <unicode hex="0B8A"/>
  <note>
uni0B8A
</note>
  <anchor x="698.6896551724137" y="0.0" name="bottom"/>
  <anchor x="698.6896551724137" y="0.0" name="nukta"/>
  <anchor x="699.8275862068965" y="560.8275862068966" name="top"/>
  <anchor x="701.6896551724137" y="560.8275862068966" name="vedic"/>
  <outline>
    <contour>
      <point x="125.00000000000001" y="0.0" type="curve" smooth="yes"/>
      <point x="1347.1379310344826" y="0.0" type="line"/>
      <point x="1347.1379310344826" y="58.3448275862069" type="line"/>
      <point x="125.89655172413794" y="58.3448275862069" type="line" smooth="yes"/>
      <point x="107.89655172413792" y="58.3448275862069"/>
      <point x="94.13793103448276" y="72.72413793103448"/>
      <point x="94.13793103448276" y="95.86206896551724" type="curve" smooth="yes"/>
      <point x="94.13793103448276" y="119.37931034482759"/>
      <point x="107.89655172413792" y="133.75862068965517"/>
      <point x="125.89655172413794" y="133.75862068965517" type="curve" smooth="yes"/>
      <point x="307.7931034482759" y="133.75862068965517" type="line" smooth="yes"/>
      <point x="440.4482758620689" y="133.75862068965517"/>
      <point x="536.6206896551724" y="197.51724137931035"/>
      <point x="536.6206896551724" y="337.2413793103448" type="curve" smooth="yes"/>
      <point x="536.6206896551724" y="483.48275862068965"/>
      <point x="434.2758620689656" y="565.8275862068966"/>
      <point x="291.6896551724138" y="565.8275862068966" type="curve" smooth="yes"/>
      <point x="176.6551724137931" y="565.8275862068966"/>
      <point x="98.68965517241378" y="492.0"/>
      <point x="98.68965517241378" y="383.86206896551727" type="curve" smooth="yes"/>
      <point x="98.68965517241378" y="299.2758620689655"/>
      <point x="147.13793103448273" y="245.13793103448276"/>
      <point x="218.62068965517244" y="245.13793103448276" type="curve" smooth="yes"/>
      <point x="290.34482758620686" y="245.13793103448276"/>
      <point x="342.55172413793105" y="291.37931034482756"/>
      <point x="342.55172413793105" y="373.37931034482756" type="curve" smooth="yes"/>
      <point x="342.55172413793105" y="449.2413793103448"/>
      <point x="295.44827586206895" y="510.37931034482756"/>
      <point x="239.0689655172414" y="524.5862068965516" type="curve"/>
      <point x="186.89655172413794" y="520.9655172413793" type="line"/>
      <point x="233.9655172413793" y="498.1379310344828"/>
      <point x="261.1034482758621" y="440.9655172413793"/>
      <point x="261.1034482758621" y="386.1034482758621" type="curve" smooth="yes"/>
      <point x="261.1034482758621" y="337.3448275862069"/>
      <point x="242.24137931034483" y="305.9655172413793"/>
      <point x="206.99999999999997" y="305.9655172413793" type="curve" smooth="yes"/>
      <point x="177.75862068965517" y="305.9655172413793"/>
      <point x="155.6206896551724" y="331.8275862068965"/>
      <point x="155.6206896551724" y="383.3448275862069" type="curve" smooth="yes"/>
      <point x="155.6206896551724" y="458.0"/>
      <point x="205.58620689655174" y="508.1034482758621"/>
      <point x="273.34482758620686" y="508.1034482758621" type="curve" smooth="yes"/>
      <point x="359.0344827586207" y="508.1034482758621"/>
      <point x="419.3103448275862" y="450.1034482758621"/>
      <point x="419.3103448275862" y="348.37931034482756" type="curve" smooth="yes"/>
      <point x="419.3103448275862" y="245.24137931034483"/>
      <point x="370.44827586206895" y="189.86206896551724"/>
      <point x="290.44827586206895" y="189.86206896551724" type="curve" smooth="yes"/>
      <point x="125.00000000000001" y="189.86206896551724" type="line" smooth="yes"/>
      <point x="72.03448275862068" y="189.86206896551724"/>
      <point x="37.793103448275865" y="155.86206896551724"/>
      <point x="37.793103448275865" y="95.86206896551724" type="curve" smooth="yes"/>
      <point x="37.793103448275865" y="35.62068965517241"/>
      <point x="72.6551724137931" y="0.0"/>
    </contour>
    <contour>
      <point x="745.4137931034483" y="109.20689655172414" type="curve" smooth="yes"/>
      <point x="824.6551724137931" y="109.20689655172414"/>
      <point x="878.9655172413793" y="163.48275862068965"/>
      <point x="878.9655172413793" y="250.0689655172414" type="curve" smooth="yes"/>
      <point x="878.9655172413793" y="346.2068965517242"/>
      <point x="826.2413793103449" y="394.96551724137936"/>
      <point x="759.3793103448277" y="394.96551724137936" type="curve" smooth="yes"/>
      <point x="686.9655172413793" y="394.96551724137936"/>
      <point x="643.0689655172414" y="328.4137931034483"/>
      <point x="638.1724137931034" y="243.31034482758622" type="curve"/>
      <point x="660.8620689655172" y="207.13793103448276" type="line"/>
      <point x="664.7586206896551" y="273.2413793103448"/>
      <point x="696.4137931034483" y="329.4827586206897"/>
      <point x="735.6551724137931" y="329.4827586206897" type="curve" smooth="yes"/>
      <point x="766.2758620689656" y="329.4827586206897"/>
      <point x="790.4137931034484" y="305.62068965517244"/>
      <point x="790.4137931034484" y="251.82758620689657" type="curve" smooth="yes"/>
      <point x="790.4137931034484" y="199.9310344827586"/>
      <point x="770.1724137931035" y="167.79310344827587"/>
      <point x="733.1724137931034" y="167.79310344827587" type="curve" smooth="yes"/>
      <point x="687.9310344827586" y="167.79310344827587"/>
      <point x="645.2413793103448" y="215.17241379310343"/>
      <point x="645.2413793103448" y="326.44827586206895" type="curve" smooth="yes"/>
      <point x="645.2413793103448" y="432.0689655172414"/>
      <point x="698.5862068965517" y="508.1034482758621"/>
      <point x="789.1724137931034" y="508.1034482758621" type="curve" smooth="yes"/>
      <point x="884.6206896551724" y="508.1034482758621"/>
      <point x="941.3448275862069" y="425.44827586206895"/>
      <point x="941.7241379310345" y="312.7931034482759" type="curve"/>
      <point x="993.551724137931" y="312.7931034482759" type="line"/>
      <point x="990.6896551724137" y="471.6551724137931"/>
      <point x="908.3103448275863" y="565.8275862068966"/>
      <point x="788.4137931034484" y="565.8275862068966" type="curve" smooth="yes"/>
      <point x="664.448275862069" y="565.8275862068966"/>
      <point x="588.2758620689655" y="461.9310344827586"/>
      <point x="588.2758620689655" y="324.44827586206895" type="curve" smooth="yes"/>
      <point x="588.2758620689655" y="188.44827586206895"/>
      <point x="654.6896551724137" y="109.20689655172414"/>
    </contour>
    <contour>
      <point x="941.7241379310345" y="112.58620689655172" type="line"/>
      <point x="1051.0689655172414" y="112.58620689655172" type="line"/>
      <point x="1051.0689655172414" y="506.3448275862069" type="line"/>
      <point x="1162.0689655172414" y="506.3448275862069" type="line"/>
      <point x="1162.0689655172414" y="112.58620689655172" type="line"/>
      <point x="1270.4137931034484" y="112.58620689655172" type="line"/>
      <point x="1270.4137931034484" y="506.3448275862069" type="line"/>
      <point x="1347.1379310344826" y="506.3448275862069" type="line"/>
      <point x="1347.1379310344826" y="560.8275862068966" type="line"/>
      <point x="962.1724137931036" y="560.8275862068966" type="line"/>
      <point x="964.0344827586208" y="386.44827586206895" type="line"/>
      <point x="941.7241379310345" y="383.06896551724134" type="line"/>
    </contour>
  </outline>
</glyph>
<glyph name="ee-tamil" format="2">
  <advance width="748.448275862069"/>
  <unicode hex="0B8F"/>
  <note>
uni0B8F
</note>
  <anchor x="389.9310344827586" y="0.0" name="bottom"/>
  <anchor x="390.31034482758616" y="-164.79310344827587" name="nukta"/>
  <anchor x="393.31034482758616" y="560.8275862068966" name="top"/>
  <anchor x="392.9310344827586" y="560.8275862068966" name="vedic"/>
  <outline>
    <contour>
      <point x="405.448275862069" y="-213.93103448275863" type="line"/>
      <point x="618.8620689655172" y="36.172413793103445" type="line"/>
      <point x="618.8620689655172" y="503.1034482758621" type="line"/>
      <point x="728.551724137931" y="503.1034482758621" type="line"/>
      <point x="728.551724137931" y="560.8275862068966" type="line"/>
      <point x="327.58620689655174" y="560.8275862068966" type="line" smooth="yes"/>
      <point x="148.48275862068965" y="560.8275862068966"/>
      <point x="43.37931034482759" y="451.2413793103448"/>
      <point x="43.37931034482759" y="254.72413793103448" type="curve" smooth="yes"/>
      <point x="43.37931034482759" y="91.06896551724137"/>
      <point x="115.48275862068965" y="-5.0"/>
      <point x="223.41379310344828" y="-5.0" type="curve" smooth="yes"/>
      <point x="319.2413793103448" y="-5.0"/>
      <point x="379.3103448275862" y="58.862068965517246"/>
      <point x="379.3103448275862" y="159.44827586206895" type="curve" smooth="yes"/>
      <point x="379.3103448275862" y="251.82758620689654"/>
      <point x="328.6896551724138" y="315.4137931034483"/>
      <point x="247.6206896551724" y="315.4137931034483" type="curve" smooth="yes"/>
      <point x="153.17241379310346" y="315.4137931034483"/>
      <point x="103.06896551724137" y="222.31034482758622"/>
      <point x="100.44827586206895" y="117.37931034482759" type="curve"/>
      <point x="134.0344827586207" y="91.37931034482759" type="line"/>
      <point x="135.27586206896552" y="172.48275862068965"/>
      <point x="164.55172413793105" y="235.3793103448276"/>
      <point x="209.82758620689654" y="235.3793103448276" type="curve" smooth="yes"/>
      <point x="249.00000000000003" y="235.3793103448276"/>
      <point x="267.0" y="194.9655172413793"/>
      <point x="267.0" y="150.3448275862069" type="curve" smooth="yes"/>
      <point x="267.0" y="95.9655172413793"/>
      <point x="248.62068965517244" y="57.689655172413794"/>
      <point x="202.20689655172416" y="57.689655172413794" type="curve" smooth="yes"/>
      <point x="146.55172413793102" y="57.689655172413794"/>
      <point x="103.82758620689656" y="126.55172413793103"/>
      <point x="103.82758620689656" y="253.1034482758621" type="curve" smooth="yes"/>
      <point x="103.82758620689656" y="416.2413793103448"/>
      <point x="180.79310344827584" y="503.1034482758621"/>
      <point x="335.55172413793105" y="503.1034482758621" type="curve" smooth="yes"/>
      <point x="495.3448275862069" y="503.1034482758621" type="line"/>
      <point x="495.3448275862069" y="-8.310344827586206" type="line"/>
      <point x="358.7241379310345" y="-175.20689655172413" type="line"/>
    </contour>
  </outline>
</glyph>
<glyph name="ai-tamil" format="2">
  <advance width="790.4827586206898"/>
  <unicode hex="0B90"/>
  <note>
uni0B90
</note>
  <anchor x="395.7586206896552" y="0.0" name="bottom"/>
  <anchor x="393.0" y="-307.17241379310343" name="nukta"/>
  <anchor x="411.1034482758621" y="560.8275862068966" name="top"/>
  <anchor x="407.5862068965518" y="560.8275862068966" name="vedic"/>
  <outline>
    <contour>
      <point x="234.2068965517241" y="-307.17241379310343" type="curve" smooth="yes"/>
      <point x="324.1379310344828" y="-307.17241379310343"/>
      <point x="388.51724137931035" y="-261.06896551724134"/>
      <point x="408.2413793103449" y="-187.20689655172413" type="curve"/>
      <point x="424.34482758620686" y="-256.6896551724138"/>
      <point x="478.4482758620689" y="-307.17241379310343"/>
      <point x="569.0689655172414" y="-307.17241379310343" type="curve" smooth="yes"/>
      <point x="672.2758620689655" y="-307.17241379310343"/>
      <point x="747.1034482758621" y="-243.93103448275863"/>
      <point x="747.1034482758621" y="-105.82758620689654" type="curve" smooth="yes"/>
      <point x="747.1034482758621" y="-39.96551724137931"/>
      <point x="727.3793103448276" y="13.137931034482758"/>
      <point x="695.7586206896552" y="71.89655172413794" type="curve"/>
      <point x="643.1724137931035" y="42.41379310344828" type="line"/>
      <point x="669.4137931034483" y="-6.206896551724137"/>
      <point x="687.6551724137931" y="-52.44827586206897"/>
      <point x="687.6551724137931" y="-100.44827586206897" type="curve" smooth="yes"/>
      <point x="687.6551724137931" y="-197.6896551724138"/>
      <point x="641.9310344827586" y="-242.44827586206895"/>
      <point x="569.9310344827586" y="-242.44827586206895" type="curve" smooth="yes"/>
      <point x="499.7931034482758" y="-242.44827586206895"/>
      <point x="461.2068965517242" y="-182.79310344827587"/>
      <point x="461.2068965517242" y="-87.03448275862068" type="curve" smooth="yes"/>
      <point x="461.2068965517242" y="-35.41379310344827" type="line"/>
      <point x="355.9310344827586" y="-35.41379310344827" type="line"/>
      <point x="355.9310344827586" y="-100.41379310344828" type="line" smooth="yes"/>
      <point x="355.9310344827586" y="-195.44827586206895"/>
      <point x="318.8965517241379" y="-245.9655172413793"/>
      <point x="256.1379310344828" y="-245.9655172413793" type="curve" smooth="yes"/>
      <point x="195.75862068965515" y="-245.9655172413793"/>
      <point x="160.20689655172413" y="-200.72413793103448"/>
      <point x="160.20689655172413" y="-119.48275862068965" type="curve" smooth="yes"/>
      <point x="160.20689655172413" y="23.310344827586206"/>
      <point x="240.41379310344828" y="59.793103448275865"/>
      <point x="423.37931034482756" y="77.37931034482759" type="curve" smooth="yes"/>
      <point x="608.551724137931" y="95.58620689655173"/>
      <point x="746.1034482758621" y="144.44827586206898"/>
      <point x="746.1034482758621" y="344.9655172413793" type="curve" smooth="yes"/>
      <point x="746.1034482758621" y="503.1379310344828"/>
      <point x="668.4827586206897" y="565.8275862068966"/>
      <point x="565.6896551724137" y="565.8275862068966" type="curve" smooth="yes"/>
      <point x="493.0689655172414" y="565.8275862068966"/>
      <point x="433.3793103448276" y="531.3103448275863"/>
      <point x="410.5172413793104" y="452.6896551724138" type="curve"/>
      <point x="384.8965517241379" y="530.4482758620691"/>
      <point x="320.0" y="565.8275862068966"/>
      <point x="239.79310344827584" y="565.8275862068966" type="curve" smooth="yes"/>
      <point x="125.72413793103449" y="565.8275862068966"/>
      <point x="47.62068965517241" y="479.1034482758621"/>
      <point x="47.62068965517241" y="348.3793103448276" type="curve" smooth="yes"/>
      <point x="47.62068965517241" y="236.13793103448276"/>
      <point x="103.72413793103448" y="154.75862068965517"/>
      <point x="186.0689655172414" y="154.75862068965517" type="curve" smooth="yes"/>
      <point x="253.3103448275862" y="154.75862068965517"/>
      <point x="303.0344827586207" y="202.51724137931035"/>
      <point x="303.0344827586207" y="279.1034482758621" type="curve" smooth="yes"/>
      <point x="303.0344827586207" y="361.6206896551724"/>
      <point x="262.7931034482759" y="411.3793103448276"/>
      <point x="202.55172413793102" y="411.3793103448276" type="curve" smooth="yes"/>
      <point x="146.10344827586206" y="411.3793103448276"/>
      <point x="98.3448275862069" y="372.41379310344826"/>
      <point x="91.34482758620689" y="251.44827586206895" type="curve"/>
      <point x="115.3103448275862" y="220.89655172413794" type="line"/>
      <point x="118.93103448275863" y="318.2758620689655"/>
      <point x="148.20689655172416" y="344.27586206896547"/>
      <point x="176.3448275862069" y="344.27586206896547" type="curve" smooth="yes"/>
      <point x="203.86206896551724" y="344.27586206896547"/>
      <point x="217.6206896551724" y="319.51724137931035"/>
      <point x="217.6206896551724" y="280.2413793103448" type="curve" smooth="yes"/>
      <point x="217.6206896551724" y="241.10344827586206"/>
      <point x="201.48275862068968" y="214.9655172413793"/>
      <point x="172.3448275862069" y="214.9655172413793" type="curve" smooth="yes"/>
      <point x="135.72413793103448" y="214.9655172413793"/>
      <point x="107.20689655172414" y="251.68965517241378"/>
      <point x="107.20689655172414" y="344.6206896551724" type="curve" smooth="yes"/>
      <point x="107.20689655172414" y="448.6206896551724"/>
      <point x="162.3103448275862" y="506.2413793103448"/>
      <point x="233.6551724137931" y="506.2413793103448" type="curve" smooth="yes"/>
      <point x="309.03448275862064" y="506.2413793103448"/>
      <point x="355.9310344827586" y="462.9655172413793"/>
      <point x="355.9310344827586" y="359.2758620689655" type="curve" smooth="yes"/>
      <point x="355.9310344827586" y="212.51724137931035" type="line"/>
      <point x="461.2068965517242" y="212.51724137931035" type="line"/>
      <point x="461.2068965517242" y="380.9310344827586" type="line" smooth="yes"/>
      <point x="461.2068965517242" y="459.2068965517241"/>
      <point x="491.3448275862069" y="505.6206896551724"/>
      <point x="544.2413793103448" y="505.6206896551724" type="curve" smooth="yes"/>
      <point x="601.655172413793" y="505.6206896551724"/>
      <point x="629.2758620689655" y="449.9655172413793"/>
      <point x="629.2758620689655" y="356.2068965517241" type="curve" smooth="yes"/>
      <point x="629.2758620689655" y="193.0689655172414"/>
      <point x="554.4827586206897" y="138.3103448275862"/>
      <point x="349.0689655172414" y="117.86206896551724" type="curve" smooth="yes"/>
      <point x="188.3793103448276" y="102.37931034482759"/>
      <point x="43.37931034482759" y="60.758620689655174"/>
      <point x="43.37931034482759" y="-110.58620689655172" type="curve" smooth="yes"/>
      <point x="43.37931034482759" y="-235.55172413793105"/>
      <point x="120.51724137931035" y="-307.17241379310343"/>
    </contour>
  </outline>
</glyph>
<glyph name="o-tamil" format="2">
  <advance width="822.9310344827586"/>
  <unicode hex="0B92"/>
  <note>
uni0B92
</note>
  <anchor x="416.31034482758616" y="0.0" name="bottom"/>
  <anchor x="414.31034482758616" y="-335.0" name="nukta"/>
  <anchor x="409.31034482758616" y="560.8275862068966" name="top"/>
  <anchor x="409.31034482758616" y="560.8275862068966" name="vedic"/>
  <outline>
    <contour>
      <point x="303.89655172413796" y="-303.93103448275866" type="curve" smooth="yes"/>
      <point x="468.7586206896552" y="-303.93103448275866"/>
      <point x="501.0689655172414" y="-133.13793103448276"/>
      <point x="630.3103448275862" y="-133.13793103448276" type="curve" smooth="yes"/>
      <point x="672.0" y="-133.13793103448276" type="line"/>
      <point x="672.0" y="-75.41379310344827" type="line"/>
      <point x="616.3448275862069" y="-75.41379310344827" type="line" smooth="yes"/>
      <point x="486.89655172413796" y="-75.41379310344827"/>
      <point x="417.8965517241379" y="29.96551724137931"/>
      <point x="494.5172413793103" y="197.55172413793105" type="curve"/>
      <point x="500.51724137931035" y="194.55172413793105" type="line"/>
      <point x="479.51724137931035" y="81.82758620689654"/>
      <point x="507.34482758620686" y="-4.379310344827586"/>
      <point x="621.5172413793103" y="-4.379310344827586" type="curve" smooth="yes"/>
      <point x="710.3448275862069" y="-4.379310344827586"/>
      <point x="779.551724137931" y="67.13793103448276"/>
      <point x="779.551724137931" y="194.86206896551724" type="curve" smooth="yes"/>
      <point x="779.551724137931" y="430.6896551724138"/>
      <point x="610.6896551724138" y="565.8275862068966"/>
      <point x="389.3103448275862" y="565.8275862068966" type="curve" smooth="yes"/>
      <point x="187.24137931034483" y="565.8275862068966"/>
      <point x="43.37931034482759" y="417.6206896551724"/>
      <point x="43.37931034482759" y="243.48275862068965" type="curve" smooth="yes"/>
      <point x="43.37931034482759" y="83.3103448275862"/>
      <point x="115.48275862068965" y="-5.0"/>
      <point x="223.41379310344826" y="-5.0" type="curve" smooth="yes"/>
      <point x="319.2413793103448" y="-5.0"/>
      <point x="379.3103448275862" y="58.862068965517246"/>
      <point x="379.3103448275862" y="159.44827586206895" type="curve" smooth="yes"/>
      <point x="379.3103448275862" y="251.82758620689654"/>
      <point x="328.6896551724138" y="315.4137931034483"/>
      <point x="247.6206896551724" y="315.4137931034483" type="curve" smooth="yes"/>
      <point x="153.17241379310346" y="315.4137931034483"/>
      <point x="103.06896551724138" y="222.31034482758622"/>
      <point x="100.44827586206897" y="117.37931034482759" type="curve"/>
      <point x="134.03448275862067" y="91.37931034482759" type="line"/>
      <point x="134.89655172413794" y="172.48275862068965"/>
      <point x="163.3103448275862" y="235.3793103448276"/>
      <point x="209.20689655172416" y="235.3793103448276" type="curve" smooth="yes"/>
      <point x="248.3793103448276" y="235.3793103448276"/>
      <point x="267.0" y="194.9655172413793"/>
      <point x="267.0" y="150.3448275862069" type="curve" smooth="yes"/>
      <point x="267.0" y="95.9655172413793"/>
      <point x="248.62068965517238" y="57.689655172413794"/>
      <point x="201.58620689655172" y="57.689655172413794" type="curve" smooth="yes"/>
      <point x="145.3103448275862" y="57.689655172413794"/>
      <point x="103.20689655172414" y="118.41379310344828"/>
      <point x="103.20689655172414" y="242.48275862068965" type="curve" smooth="yes"/>
      <point x="103.20689655172414" y="395.37931034482756"/>
      <point x="233.79310344827584" y="506.86206896551727"/>
      <point x="380.86206896551727" y="506.86206896551727" type="curve" smooth="yes"/>
      <point x="548.551724137931" y="506.86206896551727"/>
      <point x="663.0" y="398.9655172413793"/>
      <point x="663.0" y="207.96551724137933" type="curve" smooth="yes"/>
      <point x="663.0" y="113.72413793103449"/>
      <point x="634.0" y="60.793103448275865"/>
      <point x="590.103448275862" y="60.793103448275865" type="curve" smooth="yes"/>
      <point x="532.9310344827587" y="60.793103448275865"/>
      <point x="526.7586206896552" y="148.48275862068965"/>
      <point x="561.0" y="256.5862068965517" type="curve"/>
      <point x="489.551724137931" y="287.9310344827586" type="line"/>
      <point x="356.51724137931035" y="63.034482758620676"/>
      <point x="412.10344827586204" y="-54.68965517241379"/>
      <point x="517.5172413793103" y="-98.65517241379311" type="curve"/>
      <point x="517.5172413793103" y="-103.65517241379311" type="line"/>
      <point x="406.2068965517242" y="-127.13793103448275"/>
      <point x="379.6551724137931" y="-235.20689655172416"/>
      <point x="281.7931034482759" y="-235.20689655172416" type="curve" smooth="yes"/>
      <point x="239.68965517241384" y="-235.20689655172416"/>
      <point x="208.06896551724137" y="-211.9655172413793"/>
      <point x="208.06896551724137" y="-165.9655172413793" type="curve" smooth="yes"/>
      <point x="208.06896551724137" y="-133.9655172413793"/>
      <point x="222.55172413793105" y="-113.10344827586206"/>
      <point x="248.93103448275863" y="-85.10344827586206" type="curve"/>
      <point x="208.3103448275862" y="-47.62068965517241" type="line"/>
      <point x="171.06896551724137" y="-86.62068965517241"/>
      <point x="150.72413793103448" y="-117.34482758620689"/>
      <point x="150.72413793103448" y="-164.9655172413793" type="curve" smooth="yes"/>
      <point x="150.72413793103448" y="-251.9655172413793"/>
      <point x="212.7241379310345" y="-303.93103448275866"/>
    </contour>
  </outline>
</glyph>
<glyph name="oo-tamil" format="2">
  <advance width="822.9310344827586"/>
  <unicode hex="0B93"/>
  <note>
uni0B93
</note>
  <anchor x="408.5517241379311" y="0.0" name="bottom"/>
  <anchor x="406.5517241379311" y="-282.7931034482759" name="nukta"/>
  <anchor x="401.5517241379311" y="560.8275862068966" name="top"/>
  <anchor x="401.5517241379311" y="560.8275862068966" name="vedic"/>
  <outline>
    <contour>
      <point x="282.8965517241379" y="-314.9310344827586" type="curve" smooth="yes"/>
      <point x="455.89655172413785" y="-314.9310344827586"/>
      <point x="501.0689655172414" y="-133.13793103448276"/>
      <point x="630.3103448275862" y="-133.13793103448276" type="curve" smooth="yes"/>
      <point x="667.1034482758621" y="-133.13793103448276" type="line"/>
      <point x="667.1034482758621" y="-75.41379310344827" type="line"/>
      <point x="616.3448275862069" y="-75.41379310344827" type="line" smooth="yes"/>
      <point x="486.8965517241379" y="-75.41379310344827"/>
      <point x="417.13793103448273" y="29.965517241379313"/>
      <point x="494.5172413793104" y="197.55172413793105" type="curve"/>
      <point x="500.51724137931035" y="194.55172413793105" type="line"/>
      <point x="479.51724137931035" y="81.82758620689656"/>
      <point x="507.34482758620686" y="-4.379310344827586"/>
      <point x="621.5172413793103" y="-4.379310344827586" type="curve" smooth="yes"/>
      <point x="710.3448275862069" y="-4.379310344827586"/>
      <point x="779.551724137931" y="67.13793103448276"/>
      <point x="779.551724137931" y="194.86206896551724" type="curve" smooth="yes"/>
      <point x="779.551724137931" y="430.6896551724138"/>
      <point x="610.6896551724138" y="565.8275862068966"/>
      <point x="389.3103448275862" y="565.8275862068966" type="curve" smooth="yes"/>
      <point x="187.24137931034483" y="565.8275862068966"/>
      <point x="43.37931034482759" y="417.6206896551724"/>
      <point x="43.37931034482759" y="243.48275862068965" type="curve" smooth="yes"/>
      <point x="43.37931034482759" y="83.3103448275862"/>
      <point x="115.48275862068965" y="-5.0"/>
      <point x="223.41379310344826" y="-5.0" type="curve" smooth="yes"/>
      <point x="319.2413793103448" y="-5.0"/>
      <point x="379.3103448275862" y="58.862068965517246"/>
      <point x="379.3103448275862" y="159.44827586206895" type="curve" smooth="yes"/>
      <point x="379.3103448275862" y="251.82758620689654"/>
      <point x="328.6896551724138" y="315.4137931034483"/>
      <point x="247.6206896551724" y="315.4137931034483" type="curve" smooth="yes"/>
      <point x="153.17241379310346" y="315.4137931034483"/>
      <point x="103.06896551724138" y="222.31034482758622"/>
      <point x="100.44827586206897" y="117.37931034482759" type="curve"/>
      <point x="134.03448275862067" y="91.37931034482759" type="line"/>
      <point x="134.89655172413794" y="172.48275862068965"/>
      <point x="163.3103448275862" y="235.3793103448276"/>
      <point x="209.20689655172416" y="235.3793103448276" type="curve" smooth="yes"/>
      <point x="248.3793103448276" y="235.3793103448276"/>
      <point x="267.0" y="194.9655172413793"/>
      <point x="267.0" y="150.3448275862069" type="curve" smooth="yes"/>
      <point x="267.0" y="95.9655172413793"/>
      <point x="248.62068965517238" y="57.689655172413794"/>
      <point x="201.58620689655172" y="57.689655172413794" type="curve" smooth="yes"/>
      <point x="145.3103448275862" y="57.689655172413794"/>
      <point x="103.20689655172414" y="118.41379310344828"/>
      <point x="103.20689655172414" y="242.48275862068965" type="curve" smooth="yes"/>
      <point x="103.20689655172414" y="395.37931034482756"/>
      <point x="233.79310344827584" y="506.86206896551727"/>
      <point x="380.86206896551727" y="506.86206896551727" type="curve" smooth="yes"/>
      <point x="548.551724137931" y="506.86206896551727"/>
      <point x="663.0" y="398.9655172413793"/>
      <point x="663.0" y="207.96551724137933" type="curve" smooth="yes"/>
      <point x="663.0" y="113.72413793103449"/>
      <point x="634.0" y="60.793103448275865"/>
      <point x="590.103448275862" y="60.793103448275865" type="curve" smooth="yes"/>
      <point x="532.9310344827587" y="60.793103448275865"/>
      <point x="526.7586206896551" y="148.48275862068965"/>
      <point x="561.0" y="256.5862068965517" type="curve"/>
      <point x="489.55172413793105" y="287.9310344827586" type="line"/>
      <point x="355.1379310344828" y="63.03448275862068"/>
      <point x="412.1034482758621" y="-54.689655172413794"/>
      <point x="517.5172413793103" y="-98.6551724137931" type="curve"/>
      <point x="517.5172413793103" y="-103.6551724137931" type="line"/>
      <point x="406.2068965517242" y="-127.13793103448276"/>
      <point x="368.9310344827586" y="-249.58620689655174"/>
      <point x="258.41379310344826" y="-249.58620689655174" type="curve" smooth="yes"/>
      <point x="207.82758620689654" y="-249.58620689655174"/>
      <point x="178.0689655172414" y="-224.44827586206895"/>
      <point x="178.0689655172414" y="-182.72413793103448" type="curve" smooth="yes"/>
      <point x="178.0689655172414" y="-150.24137931034483"/>
      <point x="202.44827586206895" y="-125.00000000000001"/>
      <point x="231.68965517241378" y="-125.00000000000001" type="curve" smooth="yes"/>
      <point x="263.55172413793105" y="-125.00000000000001"/>
      <point x="285.55172413793105" y="-142.24137931034483"/>
      <point x="297.17241379310343" y="-179.9655172413793" type="curve"/>
      <point x="326.4137931034483" y="-167.34482758620692"/>
      <point x="346.0344827586207" y="-143.9655172413793"/>
      <point x="346.0344827586207" y="-116.86206896551724" type="curve" smooth="yes"/>
      <point x="346.0344827586207" y="-76.0"/>
      <point x="304.7931034482759" y="-50.13793103448276"/>
      <point x="254.20689655172413" y="-50.13793103448276" type="curve" smooth="yes"/>
      <point x="181.13793103448276" y="-50.13793103448276"/>
      <point x="125.0" y="-105.3448275862069"/>
      <point x="125.0" y="-178.72413793103448" type="curve" smooth="yes"/>
      <point x="125.0" y="-262.10344827586204"/>
      <point x="192.48275862068965" y="-314.9310344827586"/>
    </contour>
  </outline>
</glyph>
<glyph name="au-tamil" format="2">
  <advance width="1819.8275862068967"/>
  <unicode hex="0B94"/>
  <note>
uni0B94
</note>
  <anchor x="939.8965517241378" y="0.0" name="bottom"/>
  <anchor x="1028.9655172413793" y="0.0" name="nukta"/>
  <anchor x="933.5172413793102" y="560.8275862068966" name="top"/>
  <anchor x="933.5172413793102" y="560.8275862068966" name="vedic"/>
  <outline>
    <contour>
      <point x="1030.0" y="-5.0" type="curve" smooth="yes"/>
      <point x="1124.8275862068965" y="-5.0"/>
      <point x="1185.8965517241381" y="58.862068965517246"/>
      <point x="1185.8965517241381" y="159.44827586206895" type="curve" smooth="yes"/>
      <point x="1185.8965517241381" y="251.82758620689654"/>
      <point x="1135.2758620689654" y="315.4137931034483"/>
      <point x="1053.8275862068965" y="315.4137931034483" type="curve" smooth="yes"/>
      <point x="959.7586206896551" y="315.4137931034483"/>
      <point x="909.6551724137931" y="222.31034482758622"/>
      <point x="906.6551724137931" y="117.37931034482759" type="curve"/>
      <point x="939.6206896551726" y="91.37931034482759" type="line"/>
      <point x="940.8620689655173" y="172.48275862068965"/>
      <point x="969.8965517241378" y="235.3793103448276"/>
      <point x="1015.4137931034483" y="235.3793103448276" type="curve" smooth="yes"/>
      <point x="1053.9655172413793" y="235.3793103448276"/>
      <point x="1072.5862068965519" y="194.9655172413793"/>
      <point x="1072.5862068965519" y="150.3448275862069" type="curve" smooth="yes"/>
      <point x="1072.5862068965519" y="95.9655172413793"/>
      <point x="1054.5862068965519" y="57.689655172413794"/>
      <point x="1008.1724137931036" y="57.689655172413794" type="curve" smooth="yes"/>
      <point x="951.5172413793103" y="57.689655172413794"/>
      <point x="909.7931034482758" y="126.55172413793102"/>
      <point x="909.7931034482758" y="253.1034482758621" type="curve" smooth="yes"/>
      <point x="909.7931034482758" y="415.0"/>
      <point x="985.344827586207" y="503.7586206896552"/>
      <point x="1106.6206896551723" y="503.7586206896552" type="curve" smooth="yes"/>
      <point x="1219.4137931034481" y="503.7586206896552"/>
      <point x="1299.1724137931035" y="428.7931034482759"/>
      <point x="1299.1724137931035" y="281.10344827586204" type="curve"/>
      <point x="1358.1379310344828" y="289.2068965517241" type="line"/>
      <point x="1346.7586206896553" y="486.2068965517242"/>
      <point x="1234.4827586206898" y="565.8275862068966"/>
      <point x="1102.8620689655172" y="565.8275862068966" type="curve" smooth="yes"/>
      <point x="949.1724137931035" y="565.8275862068966"/>
      <point x="849.9655172413793" y="452.1379310344828"/>
      <point x="849.9655172413793" y="254.72413793103448" type="curve" smooth="yes"/>
      <point x="849.9655172413793" y="91.06896551724137"/>
      <point x="921.448275862069" y="-5.0"/>
    </contour>
    <contour>
      <point x="1299.5517241379312" y="0.0" type="line"/>
      <point x="1422.6896551724137" y="0.0" type="line"/>
      <point x="1422.6896551724137" y="503.1034482758621" type="line"/>
      <point x="1567.7241379310344" y="503.1034482758621" type="line"/>
      <point x="1567.7241379310344" y="0.0" type="line"/>
      <point x="1689.8620689655172" y="0.0" type="line"/>
      <point x="1689.8620689655172" y="503.1034482758621" type="line"/>
      <point x="1799.9310344827586" y="503.1034482758621" type="line"/>
      <point x="1799.9310344827586" y="560.8275862068966" type="line"/>
      <point x="1327.103448275862" y="560.8275862068966" type="line"/>
      <point x="1327.103448275862" y="369.62068965517244" type="line"/>
      <point x="1299.5517241379312" y="372.6896551724138" type="line"/>
    </contour>
    <component base="o-tamil"/>
  </outline>
</glyph>
<glyph name="nga-tamil" format="2">
  <advance width="813.5862068965517"/>
  <unicode hex="0B99"/>
  <note>
uni0B99
</note>
  <anchor x="404.86206896551727" y="0.0" name="bottom"/>
  <anchor x="446.3448275862069" y="560.8275862068966" name="imatra"/>
  <anchor x="402.99999999999994" y="0.0" name="nukta"/>
  <anchor x="416.27586206896547" y="560.8275862068966" name="top"/>
  <anchor x="405.4827586206896" y="560.8275862068966" name="vedic"/>
  <outline>
    <contour>
      <point x="68.17241379310344" y="0.0" type="line"/>
      <point x="132.13793103448276" y="0.0" type="line"/>
      <point x="132.13793103448276" y="503.1034482758621" type="line"/>
      <point x="228.55172413793102" y="503.1034482758621" type="line"/>
      <point x="228.55172413793102" y="189.17241379310343" type="line"/>
      <point x="342.48275862068965" y="189.17241379310343" type="line"/>
      <point x="342.48275862068965" y="243.10344827586206" type="line" smooth="yes"/>
      <point x="342.48275862068965" y="280.65517241379314"/>
      <point x="359.8965517241379" y="304.9310344827586"/>
      <point x="386.17241379310343" y="304.9310344827586" type="curve" smooth="yes"/>
      <point x="415.58620689655174" y="304.9310344827586"/>
      <point x="434.62068965517244" y="277.65517241379314"/>
      <point x="434.62068965517244" y="213.7241379310345" type="curve" smooth="yes"/>
      <point x="434.62068965517244" y="109.79310344827586"/>
      <point x="381.5862068965517" y="58.3448275862069"/>
      <point x="318.1379310344828" y="58.3448275862069" type="curve" smooth="yes"/>
      <point x="228.55172413793102" y="58.3448275862069" type="line"/>
      <point x="228.55172413793102" y="0.0" type="line"/>
      <point x="745.6551724137931" y="0.0" type="line"/>
      <point x="745.6551724137931" y="560.8275862068966" type="line"/>
      <point x="621.7586206896552" y="560.8275862068966" type="line"/>
      <point x="621.7586206896552" y="58.3448275862069" type="line"/>
      <point x="434.51724137931035" y="58.3448275862069" type="line"/>
      <point x="493.6551724137931" y="80.20689655172413"/>
      <point x="549.7931034482758" y="138.55172413793105"/>
      <point x="549.7931034482758" y="234.06896551724137" type="curve" smooth="yes"/>
      <point x="549.7931034482758" y="327.6896551724138"/>
      <point x="508.17241379310343" y="385.2068965517241"/>
      <point x="438.31034482758616" y="385.2068965517241" type="curve" smooth="yes"/>
      <point x="387.6896551724138" y="385.2068965517241"/>
      <point x="360.0689655172414" y="354.2068965517241"/>
      <point x="346.3448275862069" y="327.7241379310345" type="curve"/>
      <point x="346.3448275862069" y="503.1034482758621" type="line"/>
      <point x="467.8275862068965" y="503.1034482758621" type="line"/>
      <point x="467.8275862068965" y="560.8275862068966" type="line"/>
      <point x="68.17241379310344" y="560.8275862068966" type="line"/>
    </contour>
  </outline>
</glyph>
<glyph name="tta-tamil" format="2">
  <advance width="718.7241379310344"/>
  <unicode hex="0B9F"/>
  <note>
uni0B9F
</note>
  <anchor x="371.1379310344828" y="0.0" name="bottom"/>
  <anchor x="371.1379310344828" y="0.0" name="nukta"/>
  <anchor x="379.00000000000006" y="560.8275862068966" name="top"/>
  <anchor x="385.37931034482756" y="560.8275862068966" name="vedic"/>
  <outline>
    <contour>
      <point x="68.17241379310344" y="0.0" type="line"/>
      <point x="703.8275862068965" y="0.0" type="line"/>
      <point x="703.8275862068965" y="58.3448275862069" type="line"/>
      <point x="191.68965517241378" y="58.3448275862069" type="line"/>
      <point x="191.68965517241378" y="560.8275862068966" type="line"/>
      <point x="68.17241379310344" y="560.8275862068966" type="line"/>
    </contour>
  </outline>
</glyph>
<glyph name="nna-tamil" format="2">
  <advance width="1419.3448275862067"/>
  <unicode hex="0BA3"/>
  <note>
uni0BA3
</note>
  <anchor x="746.2413793103449" y="0.0" name="bottom"/>
  <anchor x="1304.1379310344828" y="560.8275862068966" name="imatra"/>
  <anchor x="744.8620689655173" y="0.0" name="nukta"/>
  <anchor x="735.4827586206897" y="560.8275862068966" name="top"/>
  <anchor x="730.8275862068966" y="560.8275862068966" name="vedic"/>
  <outline>
    <contour>
      <point x="570.2413793103449" y="-4.379310344827586" type="curve" smooth="yes"/>
      <point x="664.551724137931" y="-4.379310344827586"/>
      <point x="726.0344827586207" y="64.72413793103449"/>
      <point x="726.0344827586207" y="187.72413793103448" type="curve" smooth="yes"/>
      <point x="726.0344827586207" y="406.58620689655174"/>
      <point x="581.8620689655172" y="565.8275862068966"/>
      <point x="352.8620689655172" y="565.8275862068966" type="curve" smooth="yes"/>
      <point x="173.3793103448276" y="565.8275862068966"/>
      <point x="43.37931034482759" y="450.0344827586207"/>
      <point x="43.37931034482759" y="254.72413793103448" type="curve" smooth="yes"/>
      <point x="43.37931034482759" y="91.06896551724138"/>
      <point x="114.48275862068964" y="-5.0"/>
      <point x="222.6551724137931" y="-5.0" type="curve" smooth="yes"/>
      <point x="317.8620689655172" y="-5.0"/>
      <point x="378.9310344827586" y="58.862068965517246"/>
      <point x="378.9310344827586" y="159.44827586206895" type="curve" smooth="yes"/>
      <point x="378.9310344827586" y="251.82758620689654"/>
      <point x="328.3103448275862" y="315.4137931034483"/>
      <point x="246.2413793103448" y="315.4137931034483" type="curve" smooth="yes"/>
      <point x="152.79310344827587" y="315.4137931034483"/>
      <point x="103.06896551724138" y="222.3103448275862"/>
      <point x="100.44827586206895" y="117.37931034482759" type="curve"/>
      <point x="134.0344827586207" y="91.37931034482759" type="line"/>
      <point x="135.27586206896552" y="172.48275862068965"/>
      <point x="162.93103448275863" y="235.3793103448276"/>
      <point x="207.82758620689657" y="235.3793103448276" type="curve" smooth="yes"/>
      <point x="247.62068965517244" y="235.3793103448276"/>
      <point x="265.6206896551724" y="194.9655172413793"/>
      <point x="265.6206896551724" y="150.3448275862069" type="curve" smooth="yes"/>
      <point x="265.6206896551724" y="95.9655172413793"/>
      <point x="247.62068965517244" y="57.689655172413794"/>
      <point x="201.20689655172416" y="57.689655172413794" type="curve" smooth="yes"/>
      <point x="143.9310344827586" y="57.689655172413794"/>
      <point x="103.20689655172414" y="126.55172413793103"/>
      <point x="103.20689655172414" y="253.10344827586206" type="curve" smooth="yes"/>
      <point x="103.20689655172414" y="417.3793103448276"/>
      <point x="212.51724137931032" y="506.2413793103448"/>
      <point x="341.6551724137931" y="506.2413793103448" type="curve" smooth="yes"/>
      <point x="507.1724137931035" y="506.2413793103448"/>
      <point x="611.8275862068965" y="380.9310344827586"/>
      <point x="611.8275862068965" y="182.75862068965517" type="curve" smooth="yes"/>
      <point x="611.8275862068965" y="99.20689655172413"/>
      <point x="590.3103448275862" y="58.310344827586206"/>
      <point x="550.1724137931035" y="58.310344827586206" type="curve" smooth="yes"/>
      <point x="513.6551724137931" y="58.310344827586206"/>
      <point x="489.8965517241379" y="98.44827586206897"/>
      <point x="489.8965517241379" y="183.24137931034483" type="curve" smooth="yes"/>
      <point x="489.8965517241379" y="349.2068965517242"/>
      <point x="563.3793103448276" y="506.2413793103448"/>
      <point x="730.4827586206897" y="506.2413793103448" type="curve" smooth="yes"/>
      <point x="888.551724137931" y="506.2413793103448"/>
      <point x="966.4482758620691" y="367.13793103448273"/>
      <point x="966.4482758620691" y="182.75862068965517" type="curve" smooth="yes"/>
      <point x="966.4482758620691" y="99.20689655172414"/>
      <point x="943.551724137931" y="58.310344827586206"/>
      <point x="904.0344827586207" y="58.310344827586206" type="curve" smooth="yes"/>
      <point x="866.896551724138" y="58.310344827586206"/>
      <point x="843.5172413793102" y="98.44827586206897"/>
      <point x="843.5172413793102" y="183.24137931034483" type="curve" smooth="yes"/>
      <point x="843.5172413793102" y="367.13793103448273"/>
      <point x="940.344827586207" y="503.1034482758621"/>
      <point x="1113.8620689655174" y="503.1034482758621" type="curve" smooth="yes"/>
      <point x="1399.4482758620688" y="503.1034482758621" type="line"/>
      <point x="1399.4482758620688" y="560.8275862068966" type="line"/>
      <point x="1109.7586206896551" y="560.8275862068966" type="line" smooth="yes"/>
      <point x="895.0344827586206" y="560.8275862068966"/>
      <point x="784.3103448275862" y="399.4137931034483"/>
      <point x="784.3103448275862" y="187.86206896551724" type="curve" smooth="yes"/>
      <point x="784.3103448275862" y="64.96551724137932"/>
      <point x="828.5517241379312" y="-4.379310344827586"/>
      <point x="923.4827586206898" y="-4.379310344827586" type="curve" smooth="yes"/>
      <point x="1017.7931034482758" y="-4.379310344827586"/>
      <point x="1080.655172413793" y="64.72413793103448"/>
      <point x="1080.655172413793" y="187.72413793103448" type="curve" smooth="yes"/>
      <point x="1080.655172413793" y="396.55172413793105"/>
      <point x="961.7586206896552" y="565.8275862068966"/>
      <point x="742.3103448275862" y="565.8275862068966" type="curve" smooth="yes"/>
      <point x="536.8965517241379" y="565.8275862068966"/>
      <point x="429.6896551724138" y="381.86206896551727"/>
      <point x="429.6896551724138" y="187.86206896551724" type="curve" smooth="yes"/>
      <point x="429.6896551724138" y="64.96551724137932"/>
      <point x="475.3103448275862" y="-4.379310344827586"/>
    </contour>
    <contour>
      <point x="1166.8620689655172" y="0.0" type="line"/>
      <point x="1289.7586206896551" y="0.0" type="line"/>
      <point x="1289.7586206896551" y="533.344827586207" type="line"/>
      <point x="1166.8620689655172" y="533.344827586207" type="line"/>
    </contour>
  </outline>
</glyph>
<glyph name="na-tamil" format="2">
  <advance width="652.7931034482758"/>
  <unicode hex="0BA8"/>
  <note>
uni0BA8
</note>
  <anchor x="310.8620689655172" y="0.0" name="bottom"/>
  <anchor x="435.1379310344828" y="560.8275862068966" name="imatra"/>
  <anchor x="351.3448275862069" y="-193.41379310344828" name="nukta"/>
  <anchor x="313.0" y="560.8275862068966" name="top"/>
  <anchor x="328.5862068965517" y="560.8275862068966" name="vedic"/>
  <outline>
    <contour>
      <point x="154.51724137931035" y="-263.27586206896547" type="curve"/>
      <point x="154.51724137931035" y="-183.72413793103448"/>
      <point x="172.0" y="-135.89655172413794"/>
      <point x="258.7931034482759" y="-135.89655172413794" type="curve" smooth="yes"/>
      <point x="349.0" y="-135.89655172413794" type="line" smooth="yes"/>
      <point x="498.31034482758616" y="-135.89655172413794"/>
      <point x="607.2758620689655" y="-58.896551724137936"/>
      <point x="607.2758620689655" y="143.0" type="curve" smooth="yes"/>
      <point x="607.2758620689655" y="277.4827586206897"/>
      <point x="549.8275862068966" y="348.1034482758621"/>
      <point x="467.48275862068965" y="348.1034482758621" type="curve" smooth="yes"/>
      <point x="410.37931034482756" y="348.1034482758621"/>
      <point x="380.41379310344826" y="314.86206896551727"/>
      <point x="362.2068965517241" y="284.6551724137931" type="curve"/>
      <point x="362.2068965517241" y="503.1034482758621" type="line"/>
      <point x="503.48275862068965" y="503.1034482758621" type="line"/>
      <point x="503.48275862068965" y="560.8275862068966" type="line"/>
      <point x="68.17241379310346" y="560.8275862068966" type="line"/>
      <point x="68.17241379310346" y="0.0" type="line"/>
      <point x="129.3793103448276" y="0.0" type="line"/>
      <point x="129.3793103448276" y="503.1034482758621" type="line"/>
      <point x="238.68965517241378" y="503.1034482758621" type="line"/>
      <point x="238.68965517241378" y="0.0" type="line"/>
      <point x="362.2068965517241" y="0.0" type="line"/>
      <point x="362.2068965517241" y="191.44827586206895" type="line" smooth="yes"/>
      <point x="362.2068965517241" y="235.55172413793105"/>
      <point x="383.06896551724134" y="267.44827586206895"/>
      <point x="419.8275862068965" y="267.44827586206895" type="curve" smooth="yes"/>
      <point x="462.3103448275862" y="267.44827586206895"/>
      <point x="489.2068965517241" y="227.20689655172413"/>
      <point x="489.2068965517241" y="131.3793103448276" type="curve" smooth="yes"/>
      <point x="489.2068965517241" y="-23.17241379310345"/>
      <point x="436.10344827586204" y="-85.79310344827586"/>
      <point x="314.1724137931035" y="-85.79310344827586" type="curve" smooth="yes"/>
      <point x="215.7241379310345" y="-85.79310344827586" type="line" smooth="yes"/>
      <point x="131.20689655172413" y="-85.79310344827586"/>
      <point x="56.03448275862068" y="-103.03448275862068"/>
      <point x="56.03448275862068" y="-182.72413793103448" type="curve" smooth="yes"/>
      <point x="56.03448275862068" y="-236.79310344827587"/>
      <point x="94.72413793103449" y="-263.27586206896547"/>
    </contour>
  </outline>
</glyph>
<glyph name="pa-tamil" format="2">
  <advance width="716.6206896551724"/>
  <unicode hex="0BAA"/>
  <note>
uni0BAA
</note>
  <anchor x="362.2413793103448" y="0.0" name="bottom"/>
  <anchor x="641.8275862068965" y="560.8275862068966" name="imatra"/>
  <anchor x="362.2413793103448" y="0.0" name="nukta"/>
  <anchor x="362.1034482758621" y="560.8275862068966" name="top"/>
  <anchor x="359.7586206896552" y="560.8275862068966" name="vedic"/>
  <outline>
    <contour>
      <point x="68.17241379310344" y="0.0" type="line"/>
      <point x="648.6896551724137" y="0.0" type="line"/>
      <point x="648.6896551724137" y="560.8275862068966" type="line"/>
      <point x="526.1724137931035" y="560.8275862068966" type="line"/>
      <point x="526.1724137931035" y="58.3448275862069" type="line"/>
      <point x="191.68965517241378" y="58.3448275862069" type="line"/>
      <point x="191.68965517241378" y="560.8275862068966" type="line"/>
      <point x="68.17241379310344" y="560.8275862068966" type="line"/>
    </contour>
  </outline>
</glyph>
<glyph name="ya-tamil" format="2">
  <advance width="796.1379310344827"/>
  <unicode hex="0BAF"/>
  <note>
uni0BAF
</note>
  <anchor x="391.8620689655173" y="0.0" name="bottom"/>
  <anchor x="722.448275862069" y="560.8275862068966" name="imatra"/>
  <anchor x="392.3793103448277" y="0.0" name="nukta"/>
  <anchor x="408.72413793103453" y="560.8275862068966" name="top"/>
  <anchor x="400.44827586206895" y="560.8275862068966" name="vedic"/>
  <outline>
    <contour>
      <point x="192.3448275862069" y="-6.862068965517242" type="curve" smooth="yes"/>
      <point x="252.86206896551724" y="-6.862068965517242"/>
      <point x="285.82758620689657" y="27.931034482758616"/>
      <point x="304.51724137931035" y="59.24137931034482" type="curve"/>
      <point x="304.51724137931035" y="0.0" type="line"/>
      <point x="728.2068965517242" y="0.0" type="line"/>
      <point x="728.2068965517242" y="560.8275862068966" type="line"/>
      <point x="604.6896551724137" y="560.8275862068966" type="line"/>
      <point x="604.6896551724137" y="58.3448275862069" type="line"/>
      <point x="413.96551724137936" y="58.3448275862069" type="line"/>
      <point x="413.96551724137936" y="560.8275862068966" type="line"/>
      <point x="293.55172413793105" y="560.8275862068966" type="line"/>
      <point x="293.55172413793105" y="144.8965517241379" type="line" smooth="yes"/>
      <point x="293.55172413793105" y="91.10344827586208"/>
      <point x="269.41379310344826" y="62.827586206896555"/>
      <point x="237.99999999999997" y="62.827586206896555" type="curve" smooth="yes"/>
      <point x="207.86206896551727" y="62.827586206896555"/>
      <point x="187.82758620689654" y="83.10344827586206"/>
      <point x="187.82758620689654" y="139.6206896551724" type="curve" smooth="yes"/>
      <point x="187.82758620689654" y="560.8275862068966" type="line"/>
      <point x="64.93103448275862" y="560.8275862068966" type="line"/>
      <point x="64.93103448275862" y="151.10344827586206" type="line" smooth="yes"/>
      <point x="64.93103448275862" y="42.62068965517241"/>
      <point x="116.75862068965517" y="-6.862068965517242"/>
    </contour>
  </outline>
</glyph>
<glyph name="ra-tamil" format="2">
  <advance width="519.1379310344828"/>
  <unicode hex="0BB0"/>
  <note>
uni0BB0
</note>
  <anchor x="253.58620689655172" y="0.0" name="bottom"/>
  <anchor x="437.96551724137925" y="560.8275862068966" name="imatra"/>
  <anchor x="253.58620689655172" y="-215.75862068965517" name="nukta"/>
  <anchor x="270.2068965517241" y="560.8275862068966" name="top"/>
  <anchor x="281.2068965517241" y="560.8275862068966" name="vedic"/>
  <outline>
    <contour>
      <point x="177.13793103448273" y="-213.93103448275863" type="line"/>
      <point x="389.55172413793105" y="35.55172413793103" type="line"/>
      <point x="389.55172413793105" y="503.1034482758621" type="line"/>
      <point x="499.2413793103449" y="503.1034482758621" type="line"/>
      <point x="499.2413793103449" y="560.8275862068966" type="line"/>
      <point x="68.17241379310344" y="560.8275862068966" type="line"/>
      <point x="68.17241379310344" y="0.0" type="line"/>
      <point x="130.75862068965517" y="0.0" type="line"/>
      <point x="130.75862068965517" y="503.1034482758621" type="line"/>
      <point x="266.0344827586207" y="503.1034482758621" type="line"/>
      <point x="266.0344827586207" y="-9.551724137931036" type="line"/>
      <point x="130.41379310344826" y="-175.20689655172413" type="line"/>
    </contour>
  </outline>
</glyph>
<glyph name="rra-tamil" format="2">
  <advance width="726.9655172413793"/>
  <unicode hex="0BB1"/>
  <note>
uni0BB1
</note>
  <anchor x="370.2758620689655" y="0.0" name="bottom"/>
  <anchor x="399.55172413793105" y="-169.82758620689654" name="nukta"/>
  <anchor x="366.44827586206895" y="560.8275862068966" name="top"/>
  <anchor x="380.2758620689655" y="560.8275862068966" name="vedic"/>
  <outline>
    <contour>
      <point x="171.48275862068965" y="-254.48275862068965" type="curve"/>
      <point x="171.48275862068965" y="-178.41379310344828"/>
      <point x="187.48275862068968" y="-127.72413793103448"/>
      <point x="275.7586206896552" y="-127.72413793103448" type="curve" smooth="yes"/>
      <point x="376.7586206896552" y="-127.72413793103448" type="line" smooth="yes"/>
      <point x="553.9655172413793" y="-127.72413793103448"/>
      <point x="685.7931034482758" y="-31.103448275862068"/>
      <point x="685.7931034482758" y="244.75862068965517" type="curve" smooth="yes"/>
      <point x="685.7931034482758" y="445.41379310344826"/>
      <point x="610.4137931034484" y="565.8275862068966"/>
      <point x="472.2068965517241" y="565.8275862068966" type="curve" smooth="yes"/>
      <point x="393.86206896551727" y="565.8275862068966"/>
      <point x="346.82758620689657" y="528.3103448275862"/>
      <point x="326.9655172413793" y="479.51724137931035" type="curve"/>
      <point x="309.48275862068965" y="527.3103448275863"/>
      <point x="271.41379310344826" y="565.448275862069"/>
      <point x="204.55172413793105" y="565.448275862069" type="curve" smooth="yes"/>
      <point x="132.10344827586206" y="565.448275862069"/>
      <point x="79.62068965517241" y="515.3448275862069"/>
      <point x="79.62068965517241" y="422.48275862068965" type="curve" smooth="yes"/>
      <point x="79.62068965517241" y="0.0" type="line"/>
      <point x="140.82758620689657" y="0.0" type="line"/>
      <point x="140.82758620689657" y="419.0" type="line" smooth="yes"/>
      <point x="140.82758620689657" y="477.62068965517244"/>
      <point x="161.20689655172413" y="504.6206896551724"/>
      <point x="200.5862068965517" y="504.6206896551724" type="curve" smooth="yes"/>
      <point x="242.82758620689657" y="504.6206896551724"/>
      <point x="262.34482758620686" y="472.2413793103448"/>
      <point x="262.34482758620686" y="413.86206896551727" type="curve" smooth="yes"/>
      <point x="262.34482758620686" y="0.0" type="line"/>
      <point x="388.34482758620686" y="0.0" type="line"/>
      <point x="388.34482758620686" y="409.13793103448273" type="line" smooth="yes"/>
      <point x="388.34482758620686" y="469.7241379310345"/>
      <point x="415.62068965517244" y="505.0"/>
      <point x="458.8620689655172" y="505.0" type="curve" smooth="yes"/>
      <point x="526.7586206896551" y="505.0"/>
      <point x="558.0344827586207" y="439.37931034482756"/>
      <point x="558.0344827586207" y="253.4827586206897" type="curve" smooth="yes"/>
      <point x="558.0344827586207" y="7.862068965517242"/>
      <point x="499.0344827586207" y="-75.75862068965517"/>
      <point x="354.8965517241379" y="-75.75862068965517" type="curve" smooth="yes"/>
      <point x="233.0689655172414" y="-75.75862068965517" type="line" smooth="yes"/>
      <point x="148.17241379310343" y="-75.75862068965517"/>
      <point x="73.0" y="-95.0"/>
      <point x="73.0" y="-174.55172413793102" type="curve" smooth="yes"/>
      <point x="73.0" y="-229.13793103448276"/>
      <point x="113.06896551724137" y="-254.48275862068965"/>
    </contour>
  </outline>
</glyph>
<glyph name="la-tamil" format="2">
  <advance width="853.4137931034483"/>
  <unicode hex="0BB2"/>
  <note>
uni0BB2
</note>
  <anchor x="423.10344827586204" y="0.0" name="bottom"/>
  <anchor x="422.48275862068965" y="0.0" name="nukta"/>
  <anchor x="440.65517241379314" y="560.8275862068966" name="top"/>
  <anchor x="423.9655172413793" y="560.8275862068966" name="vedic"/>
  <outline>
    <contour>
      <point x="223.41379310344826" y="-5.0" type="curve" smooth="yes"/>
      <point x="319.2413793103448" y="-5.0"/>
      <point x="379.3103448275862" y="58.862068965517246"/>
      <point x="379.3103448275862" y="159.44827586206895" type="curve" smooth="yes"/>
      <point x="379.3103448275862" y="251.82758620689654"/>
      <point x="328.6896551724138" y="315.4137931034483"/>
      <point x="247.6206896551724" y="315.4137931034483" type="curve" smooth="yes"/>
      <point x="153.17241379310346" y="315.4137931034483"/>
      <point x="103.06896551724137" y="222.31034482758622"/>
      <point x="100.44827586206895" y="117.37931034482759" type="curve"/>
      <point x="134.0344827586207" y="91.37931034482759" type="line"/>
      <point x="134.89655172413794" y="172.48275862068965"/>
      <point x="163.31034482758622" y="235.3793103448276"/>
      <point x="209.20689655172413" y="235.3793103448276" type="curve" smooth="yes"/>
      <point x="248.3793103448276" y="235.3793103448276"/>
      <point x="267.0" y="194.9655172413793"/>
      <point x="267.0" y="150.3448275862069" type="curve" smooth="yes"/>
      <point x="267.0" y="95.9655172413793"/>
      <point x="248.6206896551724" y="57.689655172413794"/>
      <point x="201.58620689655172" y="57.689655172413794" type="curve" smooth="yes"/>
      <point x="145.3103448275862" y="57.689655172413794"/>
      <point x="103.20689655172414" y="126.55172413793105"/>
      <point x="103.20689655172414" y="253.10344827586206" type="curve" smooth="yes"/>
      <point x="103.20689655172414" y="411.86206896551727"/>
      <point x="174.41379310344828" y="504.37931034482756"/>
      <point x="290.55172413793105" y="504.37931034482756" type="curve" smooth="yes"/>
      <point x="407.34482758620686" y="504.37931034482756"/>
      <point x="454.1034482758621" y="426.7931034482759"/>
      <point x="454.72413793103453" y="308.2068965517241" type="curve" smooth="yes"/>
      <point x="454.72413793103453" y="166.1034482758621" type="line" smooth="yes"/>
      <point x="454.72413793103453" y="53.724137931034484"/>
      <point x="504.99999999999994" y="-1.2413793103448274"/>
      <point x="602.7586206896551" y="-1.2413793103448274" type="curve" smooth="yes"/>
      <point x="723.9655172413793" y="-1.2413793103448274"/>
      <point x="807.0344827586207" y="106.27586206896552"/>
      <point x="807.0344827586207" y="287.0689655172414" type="curve" smooth="yes"/>
      <point x="807.0344827586207" y="394.58620689655174"/>
      <point x="781.3103448275862" y="470.6896551724138"/>
      <point x="725.3103448275863" y="565.8275862068965" type="curve"/>
      <point x="672.7241379310345" y="536.3448275862069" type="line"/>
      <point x="720.3448275862069" y="454.7241379310345"/>
      <point x="746.5862068965517" y="378.34482758620686"/>
      <point x="746.5862068965517" y="290.86206896551727" type="curve" smooth="yes"/>
      <point x="746.5862068965517" y="148.86206896551724"/>
      <point x="694.4827586206897" y="66.44827586206897"/>
      <point x="633.1724137931035" y="66.44827586206897" type="curve" smooth="yes"/>
      <point x="595.7586206896551" y="66.44827586206897"/>
      <point x="578.8620689655173" y="93.9655172413793"/>
      <point x="578.8620689655173" y="162.0" type="curve" smooth="yes"/>
      <point x="578.8620689655173" y="312.9310344827586" type="line" smooth="yes"/>
      <point x="578.8620689655173" y="473.48275862068965"/>
      <point x="485.4137931034483" y="565.8275862068966"/>
      <point x="317.44827586206895" y="565.8275862068966" type="curve" smooth="yes"/>
      <point x="140.1034482758621" y="565.8275862068966"/>
      <point x="43.37931034482759" y="444.2413793103448"/>
      <point x="43.37931034482759" y="254.7241379310345" type="curve" smooth="yes"/>
      <point x="43.37931034482759" y="91.06896551724138"/>
      <point x="115.48275862068965" y="-5.0"/>
    </contour>
  </outline>
</glyph>
<glyph name="llla-tamil" format="2">
  <advance width="722.7586206896552"/>
  <unicode hex="0BB4"/>
  <note>
uni0BB4
</note>
  <anchor x="359.3448275862069" y="0.0" name="bottom"/>
  <anchor x="361.44827586206895" y="-300.2758620689655" name="nukta"/>
  <anchor x="393.93103448275866" y="560.8275862068966" name="top"/>
  <anchor x="368.9310344827586" y="560.8275862068966" name="vedic"/>
  <anchor x="654.0689655172414" y="560.8275862068966" name="imatra"/>
  <outline>
    <contour>
      <point x="247.82758620689654" y="-321.17241379310343" type="curve" smooth="yes"/>
      <point x="417.48275862068965" y="-321.17241379310343"/>
      <point x="454.6551724137931" y="-153.86206896551724"/>
      <point x="583.2068965517242" y="-153.86206896551724" type="curve" smooth="yes"/>
      <point x="612.0344827586207" y="-153.86206896551724" type="line"/>
      <point x="612.0344827586207" y="-96.51724137931035" type="line"/>
      <point x="578.0344827586207" y="-96.51724137931035" type="line" smooth="yes"/>
      <point x="511.3103448275863" y="-96.51724137931035"/>
      <point x="463.8275862068965" y="-58.827586206896555"/>
      <point x="463.8275862068965" y="13.75862068965517" type="curve" smooth="yes"/>
      <point x="463.8275862068965" y="104.06896551724138" type="line"/>
      <point x="341.68965517241384" y="104.06896551724138" type="line"/>
      <point x="341.68965517241384" y="15.620689655172413" type="line" smooth="yes"/>
      <point x="341.68965517241384" y="-51.379310344827594"/>
      <point x="400.99999999999994" y="-111.03448275862068"/>
      <point x="470.17241379310343" y="-119.75862068965519" type="curve"/>
      <point x="470.17241379310343" y="-125.00000000000001" type="line"/>
      <point x="349.31034482758616" y="-141.34482758620692"/>
      <point x="320.44827586206895" y="-255.7241379310345"/>
      <point x="223.24137931034485" y="-255.7241379310345" type="curve" smooth="yes"/>
      <point x="179.3793103448276" y="-255.7241379310345"/>
      <point x="145.51724137931035" y="-229.72413793103448"/>
      <point x="145.51724137931035" y="-184.10344827586206" type="curve" smooth="yes"/>
      <point x="145.51724137931035" y="-142.72413793103448"/>
      <point x="169.65517241379308" y="-113.72413793103448"/>
      <point x="209.1379310344828" y="-113.72413793103448" type="curve" smooth="yes"/>
      <point x="235.6206896551724" y="-113.72413793103448"/>
      <point x="257.86206896551727" y="-125.9655172413793"/>
      <point x="279.3448275862069" y="-146.58620689655172" type="curve"/>
      <point x="314.58620689655174" y="-105.48275862068965" type="line"/>
      <point x="280.7241379310345" y="-73.48275862068965"/>
      <point x="249.6206896551724" y="-59.0"/>
      <point x="206.27586206896555" y="-59.0" type="curve" smooth="yes"/>
      <point x="133.79310344827587" y="-59.0"/>
      <point x="86.55172413793103" y="-113.86206896551724"/>
      <point x="86.55172413793103" y="-181.72413793103448" type="curve" smooth="yes"/>
      <point x="86.55172413793103" y="-266.58620689655174"/>
      <point x="150.89655172413794" y="-321.17241379310343"/>
    </contour>
    <component base="ma-tamil"/>
  </outline>
</glyph>
<glyph name="va-tamil" format="2">
  <advance width="909.1724137931035"/>
  <unicode hex="0BB5"/>
  <note>
uni0BB5
</note>
  <anchor x="480.9655172413793" y="0.0" name="bottom"/>
  <anchor x="726.7586206896551" y="560.8275862068966" name="imatra"/>
  <anchor x="477.2413793103448" y="0.0" name="nukta"/>
  <anchor x="458.4827586206897" y="560.8275862068966" name="top"/>
  <anchor x="449.2758620689655" y="560.8275862068966" name="vedic"/>
  <outline>
    <contour>
      <point x="223.41379310344826" y="-5.0" type="curve" smooth="yes"/>
      <point x="319.2413793103448" y="-5.0"/>
      <point x="379.3103448275862" y="58.862068965517246"/>
      <point x="379.3103448275862" y="159.44827586206895" type="curve" smooth="yes"/>
      <point x="379.3103448275862" y="251.82758620689654"/>
      <point x="328.6896551724138" y="315.4137931034483"/>
      <point x="247.6206896551724" y="315.4137931034483" type="curve" smooth="yes"/>
      <point x="153.17241379310346" y="315.4137931034483"/>
      <point x="103.06896551724137" y="222.31034482758622"/>
      <point x="100.44827586206895" y="117.37931034482759" type="curve"/>
      <point x="134.0344827586207" y="91.37931034482759" type="line"/>
      <point x="134.89655172413794" y="172.48275862068965"/>
      <point x="163.31034482758622" y="235.3793103448276"/>
      <point x="209.20689655172413" y="235.3793103448276" type="curve" smooth="yes"/>
      <point x="248.3793103448276" y="235.3793103448276"/>
      <point x="267.0" y="194.9655172413793"/>
      <point x="267.0" y="150.3448275862069" type="curve" smooth="yes"/>
      <point x="267.0" y="95.9655172413793"/>
      <point x="248.6206896551724" y="57.689655172413794"/>
      <point x="201.58620689655172" y="57.689655172413794" type="curve" smooth="yes"/>
      <point x="145.3103448275862" y="57.689655172413794"/>
      <point x="103.20689655172414" y="126.55172413793105"/>
      <point x="103.20689655172414" y="253.10344827586206" type="curve" smooth="yes"/>
      <point x="103.20689655172414" y="411.86206896551727"/>
      <point x="181.55172413793105" y="504.37931034482756"/>
      <point x="295.82758620689657" y="504.37931034482756" type="curve" smooth="yes"/>
      <point x="418.0344827586207" y="504.37931034482756"/>
      <point x="490.1724137931035" y="405.72413793103453"/>
      <point x="490.1724137931035" y="258.8620689655172" type="curve" smooth="yes"/>
      <point x="490.1724137931035" y="158.06896551724137"/>
      <point x="465.75862068965523" y="93.20689655172414"/>
      <point x="438.2413793103449" y="42.48275862068965" type="curve"/>
      <point x="455.9655172413793" y="0.0" type="line"/>
      <point x="841.2413793103448" y="0.0" type="line"/>
      <point x="841.2413793103448" y="560.8275862068966" type="line"/>
      <point x="717.7241379310344" y="560.8275862068966" type="line"/>
      <point x="717.7241379310344" y="58.3448275862069" type="line"/>
      <point x="526.3793103448276" y="58.3448275862069" type="line"/>
      <point x="571.5862068965517" y="111.44827586206897"/>
      <point x="609.0689655172414" y="176.9310344827586"/>
      <point x="609.0689655172414" y="273.44827586206895" type="curve" smooth="yes"/>
      <point x="609.0689655172414" y="458.51724137931035"/>
      <point x="488.5517241379311" y="565.8275862068966"/>
      <point x="324.7241379310345" y="565.8275862068966" type="curve" smooth="yes"/>
      <point x="150.24137931034483" y="565.8275862068966"/>
      <point x="43.37931034482759" y="442.8620689655172"/>
      <point x="43.37931034482759" y="254.7241379310345" type="curve" smooth="yes"/>
      <point x="43.37931034482759" y="91.06896551724138"/>
      <point x="115.48275862068965" y="-5.0"/>
    </contour>
  </outline>
</glyph>
<glyph name="sa-tamil" format="2">
  <advance width="1118.9310344827586"/>
  <unicode hex="0BB8"/>
  <note>
uni0BB8
</note>
  <anchor x="575.3103448275862" y="0.0" name="bottom"/>
  <anchor x="573.448275862069" y="0.0" name="nukta"/>
  <anchor x="565.3103448275862" y="560.8275862068966" name="top"/>
  <anchor x="572.4482758620691" y="560.8275862068966" name="vedic"/>
  <outline>
    <contour>
      <point x="477.51724137931035" y="0.0" type="line"/>
      <point x="599.7931034482758" y="0.0" type="line"/>
      <point x="599.7931034482758" y="424.2068965517242" type="line" smooth="yes"/>
      <point x="599.7931034482758" y="478.2068965517241"/>
      <point x="622.7931034482759" y="505.2413793103448"/>
      <point x="662.2068965517241" y="505.2413793103448" type="curve" smooth="yes"/>
      <point x="699.2413793103448" y="505.2413793103448"/>
      <point x="720.8620689655172" y="479.3448275862069"/>
      <point x="720.8620689655172" y="433.58620689655174" type="curve" smooth="yes"/>
      <point x="720.8620689655172" y="166.10344827586206" type="line" smooth="yes"/>
      <point x="720.8620689655172" y="53.72413793103449"/>
      <point x="770.1379310344827" y="-1.2413793103448274"/>
      <point x="868.2758620689655" y="-1.2413793103448274" type="curve" smooth="yes"/>
      <point x="988.8620689655173" y="-1.2413793103448274"/>
      <point x="1072.5517241379312" y="106.27586206896552"/>
      <point x="1072.5517241379312" y="287.0689655172414" type="curve" smooth="yes"/>
      <point x="1072.5517241379312" y="394.58620689655174"/>
      <point x="1046.8275862068965" y="470.6896551724138"/>
      <point x="990.8275862068965" y="565.8275862068965" type="curve"/>
      <point x="938.2413793103448" y="536.3448275862069" type="line"/>
      <point x="985.4827586206897" y="454.7241379310345"/>
      <point x="1012.1034482758621" y="378.3448275862069"/>
      <point x="1012.1034482758621" y="290.86206896551727" type="curve" smooth="yes"/>
      <point x="1012.1034482758621" y="148.86206896551724"/>
      <point x="959.9999999999999" y="66.44827586206897"/>
      <point x="898.3103448275862" y="66.44827586206897" type="curve" smooth="yes"/>
      <point x="860.896551724138" y="66.44827586206897"/>
      <point x="844.0000000000001" y="93.9655172413793"/>
      <point x="844.0000000000001" y="162.0" type="curve" smooth="yes"/>
      <point x="844.0000000000001" y="405.55172413793105" type="line" smooth="yes"/>
      <point x="844.0000000000001" y="513.2413793103448"/>
      <point x="772.2413793103448" y="565.2068965517242"/>
      <point x="676.4827586206897" y="565.2068965517242" type="curve" smooth="yes"/>
      <point x="580.4137931034483" y="565.2068965517242"/>
      <point x="513.655172413793" y="507.31034482758616"/>
      <point x="513.655172413793" y="425.0" type="curve" smooth="yes"/>
      <point x="513.655172413793" y="347.1034482758621" type="line"/>
      <point x="477.51724137931035" y="347.1034482758621" type="line"/>
    </contour>
    <contour>
      <point x="223.79310344827584" y="-5.0" type="curve" smooth="yes"/>
      <point x="319.0" y="-5.0"/>
      <point x="380.0689655172414" y="58.862068965517246"/>
      <point x="380.0689655172414" y="159.44827586206895" type="curve" smooth="yes"/>
      <point x="380.0689655172414" y="251.82758620689654"/>
      <point x="329.44827586206895" y="315.4137931034483"/>
      <point x="247.3793103448276" y="315.4137931034483" type="curve" smooth="yes"/>
      <point x="153.9310344827586" y="315.4137931034483"/>
      <point x="104.20689655172413" y="222.31034482758622"/>
      <point x="101.58620689655172" y="117.37931034482759" type="curve"/>
      <point x="135.17241379310346" y="91.37931034482759" type="line"/>
      <point x="136.41379310344828" y="172.48275862068965"/>
      <point x="164.06896551724137" y="235.3793103448276"/>
      <point x="209.58620689655172" y="235.3793103448276" type="curve" smooth="yes"/>
      <point x="248.75862068965517" y="235.3793103448276"/>
      <point x="267.37931034482756" y="194.9655172413793"/>
      <point x="267.37931034482756" y="150.3448275862069" type="curve" smooth="yes"/>
      <point x="267.37931034482756" y="95.9655172413793"/>
      <point x="248.7586206896552" y="57.689655172413794"/>
      <point x="202.34482758620692" y="57.689655172413794" type="curve" smooth="yes"/>
      <point x="145.68965517241378" y="57.689655172413794"/>
      <point x="104.34482758620689" y="126.55172413793105"/>
      <point x="104.34482758620689" y="253.10344827586206" type="curve" smooth="yes"/>
      <point x="104.34482758620689" y="405.34482758620686"/>
      <point x="177.55172413793105" y="503.7586206896552"/>
      <point x="300.6896551724138" y="503.7586206896552" type="curve" smooth="yes"/>
      <point x="404.4482758620689" y="503.7586206896552"/>
      <point x="478.1379310344828" y="439.448275862069"/>
      <point x="478.1379310344828" y="298.03448275862064" type="curve"/>
      <point x="537.3448275862069" y="306.1379310344828" type="line"/>
      <point x="531.6206896551724" y="489.34482758620686"/>
      <point x="422.6896551724137" y="565.8275862068966"/>
      <point x="302.9655172413793" y="565.8275862068966" type="curve" smooth="yes"/>
      <point x="142.13793103448276" y="565.8275862068966"/>
      <point x="44.51724137931034" y="441.1034482758621"/>
      <point x="44.51724137931034" y="254.72413793103448" type="curve" smooth="yes"/>
      <point x="44.51724137931034" y="91.06896551724137"/>
      <point x="116.24137931034481" y="-5.0"/>
    </contour>
  </outline>
</glyph>
<glyph name="aaMatra-tamil" format="2">
  <advance width="522.6551724137931"/>
  <unicode hex="0BBE"/>
  <note>
uni0BBE
</note>
  <anchor x="271.9655172413793" y="0.0" name="bottom"/>
  <anchor x="270.9655172413793" y="0.0" name="nukta"/>
  <anchor x="264.9655172413793" y="560.8275862068966" name="top"/>
  <anchor x="264.9655172413793" y="560.8275862068966" name="vedic"/>
  <outline>
    <contour>
      <point x="68.17241379310344" y="0.0" type="line"/>
      <point x="130.75862068965517" y="0.0" type="line"/>
      <point x="130.75862068965517" y="503.1034482758621" type="line"/>
      <point x="269.551724137931" y="503.1034482758621" type="line"/>
      <point x="269.551724137931" y="0.0" type="line"/>
      <point x="393.0689655172414" y="0.0" type="line"/>
      <point x="393.0689655172414" y="503.1034482758621" type="line"/>
      <point x="502.7586206896552" y="503.1034482758621" type="line"/>
      <point x="502.7586206896552" y="560.8275862068966" type="line"/>
      <point x="68.17241379310344" y="560.8275862068966" type="line"/>
    </contour>
  </outline>
</glyph>
<glyph name="iMatra-tamil" format="2">
  <advance width="174.3448275862069"/>
  <unicode hex="0BBF"/>
  <note>
uni0BBF
</note>
  <anchor x="-124.75862068965519" y="824.9310344827586" name="top"/>
  <outline>
    <contour>
      <point x="46.48275862068966" y="0.0" type="line"/>
      <point x="108.31034482758622" y="0.0" type="line"/>
      <point x="108.31034482758622" y="565.7586206896551" type="line" smooth="yes"/>
      <point x="108.31034482758622" y="743.5517241379309"/>
      <point x="6.93103448275862" y="824.9310344827586"/>
      <point x="-124.75862068965519" y="824.9310344827586" type="curve" smooth="yes"/>
      <point x="-238.82758620689657" y="824.9310344827586"/>
      <point x="-308.41379310344826" y="751.551724137931"/>
      <point x="-308.41379310344826" y="651.0689655172413" type="curve" smooth="yes"/>
      <point x="-308.41379310344826" y="558.9655172413793"/>
      <point x="-254.3448275862069" y="504.3448275862069"/>
      <point x="-157.44827586206895" y="504.3448275862069" type="curve" smooth="yes"/>
      <point x="-153.68965517241378" y="504.3448275862069" type="line"/>
      <point x="-153.68965517241378" y="560.8275862068966" type="line"/>
      <point x="-157.44827586206895" y="560.8275862068966" type="line" smooth="yes"/>
      <point x="-201.17241379310346" y="560.8275862068966"/>
      <point x="-234.51724137931035" y="583.1034482758621"/>
      <point x="-234.51724137931035" y="630.8620689655172" type="curve" smooth="yes"/>
      <point x="-234.51724137931035" y="685.4137931034483"/>
      <point x="-192.86206896551727" y="720.551724137931"/>
      <point x="-123.41379310344828" y="720.551724137931" type="curve" smooth="yes"/>
      <point x="-30.41379310344827" y="720.551724137931"/>
      <point x="46.48275862068966" y="669.4137931034484"/>
      <point x="46.48275862068966" y="532.0344827586207" type="curve" smooth="yes"/>
    </contour>
  </outline>
</glyph>
<glyph name="iiMatra-tamil" format="2">
  <unicode hex="0BC0"/>
  <note>
uni0BC0
</note>
  <anchor x="0.0" y="560.8275862068966" name="_imatra"/>
  <anchor x="-1.9999999999999982" y="896.896551724138" name="top"/>
  <outline>
    <contour>
      <point x="-25.482758620689655" y="506.2413793103448" type="curve" smooth="yes"/>
      <point x="0.0" y="506.2413793103448" type="line"/>
      <point x="0.0" y="560.8275862068966" type="line"/>
      <point x="-21.862068965517242" y="560.8275862068966" type="line" smooth="yes"/>
      <point x="-84.86206896551724" y="560.8275862068966"/>
      <point x="-126.6896551724138" y="608.9655172413794"/>
      <point x="-126.6896551724138" y="691.448275862069" type="curve" smooth="yes"/>
      <point x="-126.6896551724138" y="778.6896551724138"/>
      <point x="-90.48275862068965" y="837.3103448275862"/>
      <point x="-13.206896551724139" y="837.3103448275862" type="curve" smooth="yes"/>
      <point x="41.793103448275865" y="837.3103448275862"/>
      <point x="71.0689655172414" y="800.0689655172414"/>
      <point x="71.0689655172414" y="741.1724137931034" type="curve" smooth="yes"/>
      <point x="71.0689655172414" y="697.2758620689655"/>
      <point x="51.310344827586206" y="670.8965517241379"/>
      <point x="20.79310344827586" y="670.8965517241379" type="curve" smooth="yes"/>
      <point x="-35.86206896551724" y="670.8965517241379"/>
      <point x="-46.48275862068966" y="767.7931034482758"/>
      <point x="-11.10344827586207" y="860.3103448275862" type="curve"/>
      <point x="-54.96551724137931" y="864.3103448275862" type="line"/>
      <point x="-110.58620689655172" y="739.551724137931"/>
      <point x="-77.44827586206897" y="605.1034482758621"/>
      <point x="41.96551724137932" y="605.1034482758621" type="curve" smooth="yes"/>
      <point x="117.20689655172413" y="605.1034482758621"/>
      <point x="167.79310344827587" y="661.6206896551724"/>
      <point x="167.79310344827587" y="736.6896551724138" type="curve" smooth="yes"/>
      <point x="167.79310344827587" y="834.551724137931"/>
      <point x="103.44827586206895" y="896.896551724138"/>
      <point x="-1.9999999999999982" y="896.896551724138" type="curve" smooth="yes"/>
      <point x="-117.68965517241381" y="896.896551724138"/>
      <point x="-186.27586206896552" y="811.0689655172414"/>
      <point x="-186.27586206896552" y="693.6896551724137" type="curve" smooth="yes"/>
      <point x="-186.27586206896552" y="578.4827586206897"/>
      <point x="-125.55172413793105" y="506.2413793103448"/>
    </contour>
  </outline>
</glyph>
<glyph name="uMatra-tamil" format="2">
  <advance width="425.0344827586207"/>
  <unicode hex="0BC1"/>
  <note>
uni0BC1
</note>
  <anchor x="152.6206896551724" y="560.8275862068966" name="top"/>
  <outline>
    <contour>
      <point x="238.93103448275866" y="218.9655172413793" type="curve" smooth="yes"/>
      <point x="327.58620689655174" y="218.9655172413793"/>
      <point x="398.0689655172414" y="270.3103448275862"/>
      <point x="398.0689655172414" y="382.2758620689655" type="curve" smooth="yes"/>
      <point x="398.0689655172414" y="560.8275862068966" type="line"/>
      <point x="-220.55172413793105" y="560.8275862068966" type="line"/>
      <point x="-177.3448275862069" y="503.1034482758621" type="line"/>
      <point x="274.3103448275862" y="503.1034482758621" type="line"/>
      <point x="274.3103448275862" y="370.3103448275862" type="line" smooth="yes"/>
      <point x="274.3103448275862" y="315.4137931034483"/>
      <point x="251.79310344827587" y="285.89655172413796"/>
      <point x="211.89655172413794" y="285.89655172413796" type="curve" smooth="yes"/>
      <point x="170.86206896551724" y="285.89655172413796"/>
      <point x="153.72413793103448" y="314.2758620689655"/>
      <point x="153.72413793103448" y="381.55172413793105" type="curve" smooth="yes"/>
      <point x="153.72413793103448" y="526.7241379310344" type="line"/>
      <point x="93.13793103448275" y="526.7241379310344" type="line"/>
      <point x="93.13793103448275" y="387.6551724137931" type="line" smooth="yes"/>
      <point x="93.13793103448275" y="273.3103448275862"/>
      <point x="147.75862068965517" y="218.9655172413793"/>
    </contour>
  </outline>
</glyph>
<glyph name="uuMatra-tamil" format="2">
  <advance width="704.8620689655172"/>
  <unicode hex="0BC2"/>
  <note>
uni0BC2
</note>
  <anchor x="341.72413793103453" y="784.344827586207" name="top"/>
  <outline>
    <contour>
      <point x="292.9310344827586" y="2.482758620689655" type="curve" smooth="yes"/>
      <point x="507.06896551724134" y="2.482758620689655"/>
      <point x="651.4137931034484" y="157.20689655172413"/>
      <point x="651.4137931034484" y="408.51724137931035" type="curve" smooth="yes"/>
      <point x="651.4137931034484" y="632.4137931034483"/>
      <point x="531.6551724137931" y="784.344827586207"/>
      <point x="341.72413793103453" y="784.344827586207" type="curve" smooth="yes"/>
      <point x="162.44827586206895" y="784.344827586207"/>
      <point x="93.13793103448276" y="652.103448275862"/>
      <point x="93.13793103448276" y="526.6206896551723" type="curve" smooth="yes"/>
      <point x="93.13793103448276" y="387.6551724137931" type="line" smooth="yes"/>
      <point x="93.13793103448276" y="273.31034482758616"/>
      <point x="147.75862068965517" y="218.9655172413793"/>
      <point x="238.9310344827586" y="218.9655172413793" type="curve" smooth="yes"/>
      <point x="327.58620689655174" y="218.9655172413793"/>
      <point x="398.06896551724145" y="270.31034482758616"/>
      <point x="398.06896551724145" y="382.2758620689655" type="curve" smooth="yes"/>
      <point x="398.06896551724145" y="560.8275862068966" type="line"/>
      <point x="-219.31034482758622" y="560.8275862068966" type="line"/>
      <point x="-176.10344827586206" y="503.1034482758621" type="line"/>
      <point x="274.3103448275862" y="503.1034482758621" type="line"/>
      <point x="274.3103448275862" y="370.3103448275862" type="line" smooth="yes"/>
      <point x="274.3103448275862" y="315.4137931034483"/>
      <point x="250.79310344827584" y="285.89655172413796"/>
      <point x="211.8965517241379" y="285.89655172413796" type="curve" smooth="yes"/>
      <point x="170.86206896551727" y="285.89655172413796"/>
      <point x="153.72413793103448" y="314.2758620689655"/>
      <point x="153.72413793103448" y="381.551724137931" type="curve" smooth="yes"/>
      <point x="153.72413793103448" y="526.6206896551723" type="line" smooth="yes"/>
      <point x="153.72413793103448" y="626.655172413793"/>
      <point x="201.34482758620686" y="722.0344827586207"/>
      <point x="316.9310344827586" y="722.0344827586207" type="curve" smooth="yes"/>
      <point x="466.344827586207" y="722.0344827586207"/>
      <point x="521.9310344827586" y="579.3103448275863"/>
      <point x="521.9310344827586" y="420.65517241379314" type="curve" smooth="yes"/>
      <point x="521.9310344827586" y="203.6551724137931"/>
      <point x="434.3448275862069" y="65.17241379310346"/>
      <point x="278.8965517241379" y="65.17241379310346" type="curve" smooth="yes"/>
      <point x="185.0" y="65.17241379310346"/>
      <point x="129.34482758620692" y="99.93103448275862"/>
      <point x="70.96551724137932" y="182.6206896551724" type="curve"/>
      <point x="23.241379310344826" y="143.79310344827587" type="line"/>
      <point x="87.48275862068965" y="57.241379310344826"/>
      <point x="157.37931034482756" y="2.482758620689655"/>
    </contour>
  </outline>
</glyph>
<glyph name="eMatra-tamil" format="2">
  <advance width="668.8620689655172"/>
  <unicode hex="0BC6"/>
  <note>
uni0BC6
</note>
  <outline>
    <contour>
      <point x="266.17241379310343" y="-5.0" type="curve" smooth="yes"/>
      <point x="362.0" y="-5.0"/>
      <point x="422.0689655172414" y="58.862068965517246"/>
      <point x="422.0689655172414" y="161.20689655172413" type="curve" smooth="yes"/>
      <point x="422.0689655172414" y="254.9655172413793"/>
      <point x="371.44827586206895" y="319.17241379310343"/>
      <point x="290.0" y="319.17241379310343" type="curve" smooth="yes"/>
      <point x="196.55172413793102" y="319.17241379310343"/>
      <point x="143.68965517241378" y="222.6896551724138"/>
      <point x="141.0689655172414" y="116.62068965517241" type="curve"/>
      <point x="176.41379310344826" y="90.0" type="line"/>
      <point x="177.65517241379308" y="173.48275862068965"/>
      <point x="206.6896551724138" y="239.13793103448276"/>
      <point x="251.96551724137933" y="239.13793103448276" type="curve" smooth="yes"/>
      <point x="290.7586206896552" y="239.13793103448276"/>
      <point x="309.7586206896552" y="198.10344827586206"/>
      <point x="309.7586206896552" y="151.72413793103448" type="curve" smooth="yes"/>
      <point x="309.7586206896552" y="95.9655172413793"/>
      <point x="291.37931034482756" y="57.689655172413794"/>
      <point x="244.9655172413793" y="57.689655172413794" type="curve" smooth="yes"/>
      <point x="171.6206896551724" y="57.689655172413794"/>
      <point x="108.82758620689656" y="185.9310344827586"/>
      <point x="108.82758620689656" y="383.1379310344828" type="curve" smooth="yes"/>
      <point x="108.82758620689656" y="596.1379310344827"/>
      <point x="206.89655172413794" y="716.3103448275863"/>
      <point x="348.41379310344826" y="716.3103448275863" type="curve" smooth="yes"/>
      <point x="465.96551724137936" y="716.3103448275863"/>
      <point x="541.6206896551724" y="645.5172413793103"/>
      <point x="541.6206896551724" y="465.2068965517242" type="curve" smooth="yes"/>
      <point x="541.6206896551724" y="0.0" type="line"/>
      <point x="602.8275862068966" y="0.0" type="line"/>
      <point x="602.8275862068966" y="489.6551724137931" type="line" smooth="yes"/>
      <point x="602.8275862068966" y="718.2068965517242"/>
      <point x="510.37931034482756" y="824.9310344827586"/>
      <point x="352.0344827586207" y="824.9310344827586" type="curve" smooth="yes"/>
      <point x="155.6551724137931" y="824.9310344827586"/>
      <point x="49.0" y="642.1034482758621"/>
      <point x="49.0" y="385.51724137931035" type="curve" smooth="yes"/>
      <point x="49.0" y="157.72413793103448"/>
      <point x="136.8965517241379" y="-5.0"/>
    </contour>
  </outline>
</glyph>
<glyph name="eeMatra-tamil" format="2">
  <advance width="512.4827586206897"/>
  <unicode hex="0BC7"/>
  <note>
uni0BC7
</note>
  <outline>
    <contour>
      <point x="309.7586206896552" y="-5.0" type="curve" smooth="yes"/>
      <point x="404.96551724137936" y="-5.0"/>
      <point x="471.0689655172414" y="53.72413793103448"/>
      <point x="471.0689655172414" y="161.20689655172413" type="curve" smooth="yes"/>
      <point x="471.0689655172414" y="254.9655172413793"/>
      <point x="419.8275862068966" y="319.17241379310343"/>
      <point x="338.3793103448276" y="319.17241379310343" type="curve" smooth="yes"/>
      <point x="241.9310344827586" y="319.17241379310343"/>
      <point x="192.82758620689657" y="218.55172413793102"/>
      <point x="188.82758620689657" y="101.82758620689656" type="curve"/>
      <point x="228.55172413793102" y="75.82758620689654" type="line"/>
      <point x="230.7931034482759" y="168.34482758620692"/>
      <point x="255.68965517241378" y="239.13793103448276"/>
      <point x="300.58620689655174" y="239.13793103448276" type="curve" smooth="yes"/>
      <point x="339.7586206896552" y="239.13793103448276"/>
      <point x="358.3793103448276" y="198.10344827586206"/>
      <point x="358.3793103448276" y="151.72413793103448" type="curve" smooth="yes"/>
      <point x="358.3793103448276" y="91.44827586206895"/>
      <point x="332.7241379310345" y="57.689655172413794"/>
      <point x="286.3103448275862" y="57.689655172413794" type="curve" smooth="yes"/>
      <point x="208.27586206896555" y="57.689655172413794"/>
      <point x="109.44827586206897" y="211.3793103448276"/>
      <point x="109.44827586206897" y="409.58620689655174" type="curve" smooth="yes"/>
      <point x="109.44827586206897" y="606.7931034482758"/>
      <point x="208.27586206896555" y="762.6206896551724"/>
      <point x="286.3103448275862" y="762.6206896551724" type="curve" smooth="yes"/>
      <point x="332.7241379310345" y="762.6206896551724"/>
      <point x="358.3793103448276" y="728.4827586206897"/>
      <point x="358.3793103448276" y="667.5862068965517" type="curve" smooth="yes"/>
      <point x="358.3793103448276" y="621.8275862068965"/>
      <point x="339.7586206896552" y="581.1724137931035"/>
      <point x="300.58620689655174" y="581.1724137931035" type="curve" smooth="yes"/>
      <point x="255.68965517241378" y="581.1724137931035"/>
      <point x="230.7931034482759" y="650.9655172413793"/>
      <point x="228.55172413793102" y="745.103448275862" type="curve"/>
      <point x="188.82758620689657" y="718.4827586206897" type="line"/>
      <point x="192.82758620689657" y="601.7586206896552"/>
      <point x="241.9310344827586" y="500.7586206896552"/>
      <point x="338.3793103448276" y="500.7586206896552" type="curve" smooth="yes"/>
      <point x="419.8275862068966" y="500.7586206896552"/>
      <point x="471.0689655172414" y="564.7241379310344"/>
      <point x="471.0689655172414" y="659.103448275862" type="curve" smooth="yes"/>
      <point x="471.0689655172414" y="766.2068965517242"/>
      <point x="404.96551724137936" y="824.9310344827586"/>
      <point x="309.7586206896552" y="824.9310344827586" type="curve" smooth="yes"/>
      <point x="165.55172413793105" y="824.9310344827586"/>
      <point x="49.62068965517241" y="638.1379310344828"/>
      <point x="49.62068965517241" y="410.9655172413793" type="curve" smooth="yes"/>
      <point x="49.62068965517241" y="183.17241379310346"/>
      <point x="165.55172413793105" y="-5.0"/>
    </contour>
  </outline>
</glyph>
<glyph name="aiMatra-tamil" format="2">
  <advance width="1046.448275862069"/>
  <unicode hex="0BC8"/>
  <note>
uni0BC8
</note>
  <outline>
    <contour>
      <point x="838.6206896551726" y="-9.86206896551724" type="line"/>
      <point x="932.6896551724137" y="49.93103448275862"/>
      <point x="1003.0689655172414" y="130.6551724137931"/>
      <point x="1003.0689655172414" y="274.10344827586204" type="curve" smooth="yes"/>
      <point x="1003.0689655172414" y="451.55172413793105"/>
      <point x="891.9310344827586" y="565.8275862068966"/>
      <point x="719.5862068965517" y="565.8275862068966" type="curve" smooth="yes"/>
      <point x="526.5172413793102" y="565.8275862068966"/>
      <point x="429.6896551724138" y="381.8620689655172"/>
      <point x="429.6896551724138" y="187.86206896551724" type="curve" smooth="yes"/>
      <point x="429.6896551724138" y="64.9655172413793"/>
      <point x="475.3103448275862" y="-4.379310344827586"/>
      <point x="570.2413793103449" y="-4.379310344827586" type="curve" smooth="yes"/>
      <point x="664.551724137931" y="-4.379310344827586"/>
      <point x="726.0344827586207" y="64.72413793103449"/>
      <point x="726.0344827586207" y="187.72413793103448" type="curve" smooth="yes"/>
      <point x="726.0344827586207" y="406.58620689655174"/>
      <point x="581.8620689655172" y="565.8275862068965"/>
      <point x="352.8620689655172" y="565.8275862068965" type="curve" smooth="yes"/>
      <point x="173.3793103448276" y="565.8275862068965"/>
      <point x="43.37931034482759" y="450.0344827586207"/>
      <point x="43.37931034482759" y="254.72413793103448" type="curve" smooth="yes"/>
      <point x="43.37931034482759" y="91.06896551724138"/>
      <point x="114.48275862068964" y="-5.0"/>
      <point x="222.6551724137931" y="-5.0" type="curve" smooth="yes"/>
      <point x="317.8620689655172" y="-5.0"/>
      <point x="378.9310344827586" y="58.862068965517246"/>
      <point x="378.9310344827586" y="159.44827586206895" type="curve" smooth="yes"/>
      <point x="378.9310344827586" y="251.82758620689654"/>
      <point x="328.3103448275862" y="315.4137931034483"/>
      <point x="246.2413793103448" y="315.4137931034483" type="curve" smooth="yes"/>
      <point x="152.79310344827587" y="315.4137931034483"/>
      <point x="103.06896551724138" y="222.3103448275862"/>
      <point x="100.44827586206895" y="117.37931034482759" type="curve"/>
      <point x="134.0344827586207" y="91.37931034482759" type="line"/>
      <point x="135.27586206896552" y="172.48275862068965"/>
      <point x="162.93103448275863" y="235.3793103448276"/>
      <point x="207.82758620689657" y="235.3793103448276" type="curve" smooth="yes"/>
      <point x="247.62068965517244" y="235.3793103448276"/>
      <point x="265.6206896551724" y="194.9655172413793"/>
      <point x="265.6206896551724" y="150.3448275862069" type="curve" smooth="yes"/>
      <point x="265.6206896551724" y="95.9655172413793"/>
      <point x="247.62068965517244" y="57.689655172413794"/>
      <point x="201.20689655172416" y="57.689655172413794" type="curve" smooth="yes"/>
      <point x="143.9310344827586" y="57.689655172413794"/>
      <point x="103.20689655172414" y="126.55172413793103"/>
      <point x="103.20689655172414" y="253.10344827586206" type="curve" smooth="yes"/>
      <point x="103.20689655172414" y="417.37931034482756"/>
      <point x="212.51724137931032" y="506.2413793103449"/>
      <point x="341.6551724137931" y="506.2413793103449" type="curve" smooth="yes"/>
      <point x="507.1724137931035" y="506.2413793103449"/>
      <point x="611.8275862068965" y="380.3103448275862"/>
      <point x="611.8275862068965" y="182.75862068965517" type="curve" smooth="yes"/>
      <point x="611.8275862068965" y="99.20689655172414"/>
      <point x="590.3103448275862" y="58.310344827586206"/>
      <point x="550.1724137931035" y="58.310344827586206" type="curve" smooth="yes"/>
      <point x="513.6551724137931" y="58.310344827586206"/>
      <point x="489.8965517241379" y="98.44827586206897"/>
      <point x="489.8965517241379" y="183.24137931034483" type="curve" smooth="yes"/>
      <point x="489.8965517241379" y="349.2068965517241"/>
      <point x="556.1034482758621" y="506.2413793103448"/>
      <point x="707.3793103448277" y="506.2413793103448" type="curve" smooth="yes"/>
      <point x="818.3793103448277" y="506.2413793103448"/>
      <point x="890.2413793103448" y="423.9655172413793"/>
      <point x="890.2413793103448" y="266.34482758620686" type="curve" smooth="yes"/>
      <point x="890.2413793103448" y="165.75862068965517"/>
      <point x="865.7586206896552" y="98.75862068965517"/>
      <point x="809.3793103448276" y="30.103448275862068" type="curve"/>
    </contour>
  </outline>
</glyph>
<glyph name="halant-tamil" format="2">
  <unicode hex="0BCD"/>
  <note>
uni0BCD
</note>
  <anchor x="0.0" y="560.8275862068966" name="_top"/>
  <outline>
    <contour>
      <point x="0.0" y="628.1034482758621" type="curve" smooth="yes"/>
      <point x="37.82758620689655" y="628.1034482758621"/>
      <point x="69.03448275862068" y="658.0689655172414"/>
      <point x="69.03448275862068" y="693.2758620689656" type="curve" smooth="yes"/>
      <point x="69.03448275862068" y="727.8620689655172"/>
      <point x="37.82758620689655" y="758.2068965517241"/>
      <point x="0.0" y="758.2068965517241" type="curve" smooth="yes"/>
      <point x="-37.82758620689655" y="758.2068965517241"/>
      <point x="-68.41379310344827" y="727.8620689655172"/>
      <point x="-68.41379310344827" y="693.2758620689656" type="curve" smooth="yes"/>
      <point x="-68.41379310344827" y="658.0689655172414"/>
      <point x="-37.82758620689655" y="628.1034482758621"/>
    </contour>
  </outline>
</glyph>
<glyph name="om-tamil" format="2">
  <advance width="822.9310344827586"/>
  <unicode hex="0BD0"/>
  <note>
uni0BD0
</note>
  <outline>
    <contour>
      <point x="284.2413793103448" y="-359.8965517241379" type="curve" smooth="yes"/>
      <point x="507.2068965517242" y="-359.8965517241379"/>
      <point x="510.31034482758616" y="-141.82758620689657"/>
      <point x="648.9655172413793" y="-141.82758620689657" type="curve" smooth="yes"/>
      <point x="687.7931034482759" y="-141.82758620689657" type="line"/>
      <point x="687.7931034482759" y="-84.10344827586206" type="line"/>
      <point x="634.6206896551724" y="-84.10344827586206" type="line" smooth="yes"/>
      <point x="505.17241379310343" y="-84.10344827586206"/>
      <point x="417.89655172413796" y="29.96551724137931"/>
      <point x="494.5172413793104" y="197.55172413793105" type="curve"/>
      <point x="500.51724137931035" y="194.55172413793105" type="line"/>
      <point x="479.51724137931035" y="81.82758620689654"/>
      <point x="507.34482758620686" y="-4.379310344827587"/>
      <point x="621.5172413793103" y="-4.379310344827587" type="curve" smooth="yes"/>
      <point x="710.3448275862069" y="-4.379310344827587"/>
      <point x="779.551724137931" y="67.13793103448276"/>
      <point x="779.551724137931" y="194.86206896551724" type="curve" smooth="yes"/>
      <point x="779.551724137931" y="430.6896551724138"/>
      <point x="610.6896551724137" y="565.8275862068966"/>
      <point x="389.3103448275862" y="565.8275862068966" type="curve" smooth="yes"/>
      <point x="187.24137931034483" y="565.8275862068966"/>
      <point x="43.37931034482759" y="422.62068965517244"/>
      <point x="43.37931034482759" y="248.48275862068968" type="curve" smooth="yes"/>
      <point x="43.37931034482759" y="87.68965517241378"/>
      <point x="115.48275862068965" y="5.0"/>
      <point x="223.41379310344826" y="5.0" type="curve" smooth="yes"/>
      <point x="319.2413793103448" y="5.0"/>
      <point x="379.3103448275862" y="68.24137931034484"/>
      <point x="379.3103448275862" y="168.82758620689657" type="curve" smooth="yes"/>
      <point x="379.3103448275862" y="261.8275862068965"/>
      <point x="328.6896551724138" y="325.41379310344826"/>
      <point x="247.6206896551724" y="325.41379310344826" type="curve" smooth="yes"/>
      <point x="153.17241379310346" y="325.41379310344826"/>
      <point x="103.06896551724138" y="224.7931034482759"/>
      <point x="100.44827586206897" y="120.48275862068965" type="curve"/>
      <point x="134.03448275862067" y="91.37931034482759" type="line"/>
      <point x="134.89655172413794" y="175.58620689655174"/>
      <point x="163.3103448275862" y="245.3793103448276"/>
      <point x="209.20689655172416" y="245.3793103448276" type="curve" smooth="yes"/>
      <point x="248.3793103448276" y="245.3793103448276"/>
      <point x="267.0" y="204.96551724137933"/>
      <point x="267.0" y="160.34482758620692" type="curve" smooth="yes"/>
      <point x="267.0" y="105.9655172413793"/>
      <point x="248.62068965517238" y="67.6896551724138"/>
      <point x="201.58620689655172" y="67.6896551724138" type="curve" smooth="yes"/>
      <point x="145.3103448275862" y="67.6896551724138"/>
      <point x="103.20689655172414" y="122.79310344827586"/>
      <point x="103.20689655172414" y="246.86206896551727" type="curve" smooth="yes"/>
      <point x="103.20689655172414" y="400.3793103448276"/>
      <point x="233.79310344827587" y="506.86206896551727"/>
      <point x="380.8620689655172" y="506.86206896551727" type="curve" smooth="yes"/>
      <point x="548.551724137931" y="506.86206896551727"/>
      <point x="663.0" y="398.9655172413793"/>
      <point x="663.0" y="207.9655172413793" type="curve" smooth="yes"/>
      <point x="663.0" y="113.72413793103448"/>
      <point x="634.0" y="60.793103448275865"/>
      <point x="590.103448275862" y="60.793103448275865" type="curve" smooth="yes"/>
      <point x="532.9310344827587" y="60.793103448275865"/>
      <point x="526.7586206896551" y="148.48275862068965"/>
      <point x="561.0" y="256.5862068965517" type="curve"/>
      <point x="489.55172413793105" y="287.9310344827586" type="line"/>
      <point x="354.65517241379314" y="59.931034482758626"/>
      <point x="430.3793103448276" y="-64.37931034482759"/>
      <point x="535.7931034482759" y="-108.34482758620689" type="curve"/>
      <point x="535.7931034482759" y="-113.34482758620689" type="line"/>
      <point x="432.93103448275866" y="-131.86206896551724"/>
      <point x="437.6896551724138" y="-296.7931034482759"/>
      <point x="262.2758620689655" y="-296.7931034482759" type="curve" smooth="yes"/>
      <point x="179.96551724137933" y="-296.7931034482759"/>
      <point x="123.24137931034483" y="-252.82758620689657"/>
      <point x="136.24137931034483" y="-168.9655172413793" type="curve"/>
      <point x="82.51724137931033" y="-159.9655172413793" type="line"/>
      <point x="62.758620689655174" y="-279.3103448275862"/>
      <point x="144.6206896551724" y="-359.8965517241379"/>
    </contour>
    <contour>
      <point x="179.82758620689654" y="-233.17241379310346" type="line"/>
      <point x="223.79310344827587" y="-233.17241379310346" type="line"/>
      <point x="223.79310344827587" y="-79.3103448275862" type="line"/>
      <point x="179.82758620689654" y="-79.3103448275862" type="line"/>
    </contour>
    <contour>
      <point x="194.68965517241378" y="-233.17241379310346" type="line"/>
      <point x="352.7586206896552" y="-233.17241379310346" type="line"/>
      <point x="352.7586206896552" y="-191.44827586206895" type="line"/>
      <point x="194.68965517241378" y="-191.44827586206895" type="line"/>
    </contour>
    <contour>
      <point x="254.17241379310343" y="-233.17241379310346" type="line"/>
      <point x="296.7586206896552" y="-233.17241379310346" type="line"/>
      <point x="296.7586206896552" y="-138.55172413793102" type="line" smooth="yes"/>
      <point x="296.7586206896552" y="-126.17241379310343"/>
      <point x="301.7586206896552" y="-117.79310344827586"/>
      <point x="311.89655172413796" y="-117.79310344827586" type="curve" smooth="yes"/>
      <point x="322.2758620689655" y="-117.79310344827586"/>
      <point x="326.65517241379314" y="-126.17241379310343"/>
      <point x="326.65517241379314" y="-138.55172413793102" type="curve" smooth="yes"/>
      <point x="326.65517241379314" y="-233.17241379310346" type="line"/>
      <point x="372.0" y="-233.17241379310346" type="line"/>
      <point x="372.0" y="-142.79310344827584" type="line" smooth="yes"/>
      <point x="372.0" y="-95.55172413793103"/>
      <point x="344.7586206896552" y="-76.93103448275862"/>
      <point x="311.89655172413796" y="-76.93103448275862" type="curve" smooth="yes"/>
      <point x="279.41379310344826" y="-76.93103448275862"/>
      <point x="254.17241379310343" y="-95.55172413793103"/>
      <point x="254.17241379310343" y="-142.79310344827584" type="curve" smooth="yes"/>
    </contour>
    <contour>
      <point x="275.1379310344828" y="-66.58620689655173" type="curve" smooth="yes"/>
      <point x="291.1379310344828" y="-66.58620689655173"/>
      <point x="304.7586206896552" y="-53.58620689655172"/>
      <point x="304.7586206896552" y="-37.96551724137931" type="curve" smooth="yes"/>
      <point x="304.7586206896552" y="-21.72413793103448"/>
      <point x="291.1379310344828" y="-8.724137931034482"/>
      <point x="275.1379310344828" y="-8.724137931034482" type="curve" smooth="yes"/>
      <point x="258.51724137931035" y="-8.724137931034482"/>
      <point x="244.89655172413794" y="-21.72413793103448"/>
      <point x="244.89655172413794" y="-37.96551724137931" type="curve" smooth="yes"/>
      <point x="244.89655172413794" y="-53.58620689655172"/>
      <point x="258.51724137931035" y="-66.58620689655173"/>
    </contour>
  </outline>
</glyph>
<glyph name="zero-tamil" format="2">
  <advance width="499.82758620689657"/>
  <unicode hex="0BE6"/>
  <note>
uni0BE6
</note>
  <outline>
    <contour>
      <point x="244.3103448275862" y="-5.0" type="curve" smooth="yes"/>
      <point x="373.62068965517244" y="-5.0"/>
      <point x="455.6896551724137" y="97.0"/>
      <point x="455.6896551724137" y="280.72413793103453" type="curve" smooth="yes"/>
      <point x="455.6896551724137" y="461.93103448275866"/>
      <point x="377.6206896551724" y="565.8275862068966"/>
      <point x="249.41379310344826" y="565.8275862068966" type="curve" smooth="yes"/>
      <point x="117.58620689655173" y="565.8275862068966"/>
      <point x="44.137931034482754" y="454.5862068965517"/>
      <point x="44.137931034482754" y="278.2413793103448" type="curve" smooth="yes"/>
      <point x="44.137931034482754" y="105.62068965517241"/>
      <point x="111.86206896551724" y="-5.0"/>
    </contour>
    <contour>
      <point x="224.34482758620686" y="67.96551724137932" type="curve" smooth="yes"/>
      <point x="138.72413793103448" y="67.96551724137932"/>
      <point x="107.10344827586208" y="161.10344827586206"/>
      <point x="107.10344827586208" y="280.72413793103453" type="curve" smooth="yes"/>
      <point x="107.10344827586208" y="397.82758620689657"/>
      <point x="140.58620689655174" y="492.86206896551727"/>
      <point x="224.34482758620686" y="492.86206896551727" type="curve" smooth="yes"/>
      <point x="303.3448275862069" y="492.86206896551727"/>
      <point x="343.1034482758621" y="415.9655172413793"/>
      <point x="343.1034482758621" y="280.72413793103453" type="curve" smooth="yes"/>
      <point x="343.1034482758621" y="142.9655172413793"/>
      <point x="299.9655172413793" y="67.96551724137932"/>
    </contour>
  </outline>
</glyph>
